G75*
%MOIN*%
%OFA0B0*%
%FSLAX25Y25*%
%IPPOS*%
%LPD*%
%AMOC8*
5,1,8,0,0,1.08239X$1,22.5*
%
%ADD10C,0.01600*%
%ADD11C,0.00500*%
%ADD12C,0.00400*%
%ADD13C,0.00100*%
%ADD14C,0.00600*%
%ADD15C,0.00300*%
%ADD16C,0.00200*%
%ADD17C,0.00000*%
%ADD18C,0.00800*%
D10*
X0001800Y0001800D02*
X0395501Y0001800D01*
X0395501Y0316761D01*
X0001800Y0316761D01*
X0001800Y0001800D01*
D11*
X0048926Y0163926D02*
X0064674Y0163926D01*
X0064674Y0179674D01*
X0048926Y0179674D01*
X0048926Y0163926D01*
X0051485Y0166485D02*
X0051485Y0177115D01*
X0062115Y0177115D01*
X0062115Y0166485D01*
X0051485Y0166485D01*
X0052483Y0175385D02*
X0052485Y0175438D01*
X0052491Y0175490D01*
X0052501Y0175542D01*
X0052514Y0175593D01*
X0052532Y0175643D01*
X0052553Y0175692D01*
X0052578Y0175739D01*
X0052606Y0175783D01*
X0052637Y0175826D01*
X0052672Y0175866D01*
X0052709Y0175903D01*
X0052749Y0175938D01*
X0052792Y0175969D01*
X0052837Y0175997D01*
X0052883Y0176022D01*
X0052932Y0176043D01*
X0052982Y0176061D01*
X0053033Y0176074D01*
X0053085Y0176084D01*
X0053137Y0176090D01*
X0053190Y0176092D01*
X0053243Y0176090D01*
X0053295Y0176084D01*
X0053347Y0176074D01*
X0053398Y0176061D01*
X0053448Y0176043D01*
X0053497Y0176022D01*
X0053544Y0175997D01*
X0053588Y0175969D01*
X0053631Y0175938D01*
X0053671Y0175903D01*
X0053708Y0175866D01*
X0053743Y0175826D01*
X0053774Y0175783D01*
X0053802Y0175738D01*
X0053827Y0175692D01*
X0053848Y0175643D01*
X0053866Y0175593D01*
X0053879Y0175542D01*
X0053889Y0175490D01*
X0053895Y0175438D01*
X0053897Y0175385D01*
X0053895Y0175332D01*
X0053889Y0175280D01*
X0053879Y0175228D01*
X0053866Y0175177D01*
X0053848Y0175127D01*
X0053827Y0175078D01*
X0053802Y0175031D01*
X0053774Y0174987D01*
X0053743Y0174944D01*
X0053708Y0174904D01*
X0053671Y0174867D01*
X0053631Y0174832D01*
X0053588Y0174801D01*
X0053543Y0174773D01*
X0053497Y0174748D01*
X0053448Y0174727D01*
X0053398Y0174709D01*
X0053347Y0174696D01*
X0053295Y0174686D01*
X0053243Y0174680D01*
X0053190Y0174678D01*
X0053137Y0174680D01*
X0053085Y0174686D01*
X0053033Y0174696D01*
X0052982Y0174709D01*
X0052932Y0174727D01*
X0052883Y0174748D01*
X0052836Y0174773D01*
X0052792Y0174801D01*
X0052749Y0174832D01*
X0052709Y0174867D01*
X0052672Y0174904D01*
X0052637Y0174944D01*
X0052606Y0174987D01*
X0052578Y0175032D01*
X0052553Y0175078D01*
X0052532Y0175127D01*
X0052514Y0175177D01*
X0052501Y0175228D01*
X0052491Y0175280D01*
X0052485Y0175332D01*
X0052483Y0175385D01*
X0083383Y0183690D02*
X0083385Y0183739D01*
X0083391Y0183789D01*
X0083401Y0183837D01*
X0083414Y0183885D01*
X0083432Y0183931D01*
X0083452Y0183976D01*
X0083477Y0184019D01*
X0083505Y0184060D01*
X0083536Y0184098D01*
X0083570Y0184134D01*
X0083606Y0184167D01*
X0083645Y0184198D01*
X0083687Y0184224D01*
X0083730Y0184248D01*
X0083776Y0184268D01*
X0083822Y0184285D01*
X0083870Y0184297D01*
X0083919Y0184306D01*
X0083968Y0184311D01*
X0084017Y0184312D01*
X0084067Y0184309D01*
X0084116Y0184302D01*
X0084164Y0184291D01*
X0084211Y0184277D01*
X0084257Y0184259D01*
X0084302Y0184237D01*
X0084344Y0184211D01*
X0084384Y0184183D01*
X0084422Y0184151D01*
X0084458Y0184117D01*
X0084490Y0184079D01*
X0084520Y0184039D01*
X0084546Y0183997D01*
X0084568Y0183953D01*
X0084588Y0183908D01*
X0084603Y0183861D01*
X0084615Y0183813D01*
X0084623Y0183764D01*
X0084627Y0183715D01*
X0084627Y0183665D01*
X0084623Y0183616D01*
X0084615Y0183567D01*
X0084603Y0183519D01*
X0084588Y0183472D01*
X0084568Y0183427D01*
X0084546Y0183383D01*
X0084520Y0183341D01*
X0084490Y0183301D01*
X0084458Y0183263D01*
X0084422Y0183229D01*
X0084384Y0183197D01*
X0084344Y0183169D01*
X0084302Y0183143D01*
X0084257Y0183121D01*
X0084211Y0183103D01*
X0084164Y0183089D01*
X0084116Y0183078D01*
X0084067Y0183071D01*
X0084017Y0183068D01*
X0083968Y0183069D01*
X0083919Y0183074D01*
X0083870Y0183083D01*
X0083822Y0183095D01*
X0083776Y0183112D01*
X0083730Y0183132D01*
X0083687Y0183156D01*
X0083645Y0183182D01*
X0083606Y0183213D01*
X0083570Y0183246D01*
X0083536Y0183282D01*
X0083505Y0183320D01*
X0083477Y0183361D01*
X0083452Y0183404D01*
X0083432Y0183449D01*
X0083414Y0183495D01*
X0083401Y0183543D01*
X0083391Y0183591D01*
X0083385Y0183641D01*
X0083383Y0183690D01*
X0083808Y0183690D02*
X0083810Y0183717D01*
X0083816Y0183744D01*
X0083825Y0183770D01*
X0083838Y0183794D01*
X0083854Y0183817D01*
X0083873Y0183836D01*
X0083895Y0183853D01*
X0083919Y0183867D01*
X0083944Y0183877D01*
X0083971Y0183884D01*
X0083998Y0183887D01*
X0084026Y0183886D01*
X0084053Y0183881D01*
X0084079Y0183873D01*
X0084103Y0183861D01*
X0084126Y0183845D01*
X0084147Y0183827D01*
X0084164Y0183806D01*
X0084179Y0183782D01*
X0084190Y0183757D01*
X0084198Y0183731D01*
X0084202Y0183704D01*
X0084202Y0183676D01*
X0084198Y0183649D01*
X0084190Y0183623D01*
X0084179Y0183598D01*
X0084164Y0183574D01*
X0084147Y0183553D01*
X0084126Y0183535D01*
X0084104Y0183519D01*
X0084079Y0183507D01*
X0084053Y0183499D01*
X0084026Y0183494D01*
X0083998Y0183493D01*
X0083971Y0183496D01*
X0083944Y0183503D01*
X0083919Y0183513D01*
X0083895Y0183527D01*
X0083873Y0183544D01*
X0083854Y0183563D01*
X0083838Y0183586D01*
X0083825Y0183610D01*
X0083816Y0183636D01*
X0083810Y0183663D01*
X0083808Y0183690D01*
X0086957Y0184674D02*
X0088926Y0186643D01*
X0086957Y0186643D01*
X0086957Y0184674D01*
X0086957Y0168926D02*
X0086957Y0166957D01*
X0088926Y0166957D01*
X0105068Y0166957D02*
X0106643Y0166957D01*
X0106643Y0168926D01*
X0106643Y0184674D02*
X0106643Y0186643D01*
X0104674Y0186643D01*
X0121288Y0209438D02*
X0132312Y0209438D01*
X0132312Y0214162D01*
X0121288Y0214162D01*
X0121288Y0209438D01*
X0107800Y0249300D02*
X0107800Y0284300D01*
X0065800Y0284300D01*
X0065800Y0249300D01*
X0107800Y0249300D01*
X0051300Y0250300D02*
X0051300Y0283300D01*
X0012300Y0283300D01*
X0012300Y0250300D01*
X0051300Y0250300D01*
X0244400Y0270300D02*
X0269200Y0270300D01*
X0269200Y0283300D01*
X0244400Y0283300D01*
X0244400Y0270300D01*
X0301800Y0257780D02*
X0301800Y0288080D01*
X0318700Y0288080D01*
X0318820Y0288180D02*
X0318820Y0257880D01*
X0318700Y0257748D02*
X0301800Y0257748D01*
X0301800Y0241800D02*
X0301800Y0211500D01*
X0301800Y0211468D02*
X0318700Y0211468D01*
X0318820Y0211600D02*
X0318820Y0241900D01*
X0318700Y0241800D02*
X0301800Y0241800D01*
X0303300Y0284300D02*
X0303302Y0284363D01*
X0303308Y0284425D01*
X0303318Y0284487D01*
X0303331Y0284549D01*
X0303349Y0284609D01*
X0303370Y0284668D01*
X0303395Y0284726D01*
X0303424Y0284782D01*
X0303456Y0284836D01*
X0303491Y0284888D01*
X0303529Y0284937D01*
X0303571Y0284985D01*
X0303615Y0285029D01*
X0303663Y0285071D01*
X0303712Y0285109D01*
X0303764Y0285144D01*
X0303818Y0285176D01*
X0303874Y0285205D01*
X0303932Y0285230D01*
X0303991Y0285251D01*
X0304051Y0285269D01*
X0304113Y0285282D01*
X0304175Y0285292D01*
X0304237Y0285298D01*
X0304300Y0285300D01*
X0304363Y0285298D01*
X0304425Y0285292D01*
X0304487Y0285282D01*
X0304549Y0285269D01*
X0304609Y0285251D01*
X0304668Y0285230D01*
X0304726Y0285205D01*
X0304782Y0285176D01*
X0304836Y0285144D01*
X0304888Y0285109D01*
X0304937Y0285071D01*
X0304985Y0285029D01*
X0305029Y0284985D01*
X0305071Y0284937D01*
X0305109Y0284888D01*
X0305144Y0284836D01*
X0305176Y0284782D01*
X0305205Y0284726D01*
X0305230Y0284668D01*
X0305251Y0284609D01*
X0305269Y0284549D01*
X0305282Y0284487D01*
X0305292Y0284425D01*
X0305298Y0284363D01*
X0305300Y0284300D01*
X0305298Y0284237D01*
X0305292Y0284175D01*
X0305282Y0284113D01*
X0305269Y0284051D01*
X0305251Y0283991D01*
X0305230Y0283932D01*
X0305205Y0283874D01*
X0305176Y0283818D01*
X0305144Y0283764D01*
X0305109Y0283712D01*
X0305071Y0283663D01*
X0305029Y0283615D01*
X0304985Y0283571D01*
X0304937Y0283529D01*
X0304888Y0283491D01*
X0304836Y0283456D01*
X0304782Y0283424D01*
X0304726Y0283395D01*
X0304668Y0283370D01*
X0304609Y0283349D01*
X0304549Y0283331D01*
X0304487Y0283318D01*
X0304425Y0283308D01*
X0304363Y0283302D01*
X0304300Y0283300D01*
X0304237Y0283302D01*
X0304175Y0283308D01*
X0304113Y0283318D01*
X0304051Y0283331D01*
X0303991Y0283349D01*
X0303932Y0283370D01*
X0303874Y0283395D01*
X0303818Y0283424D01*
X0303764Y0283456D01*
X0303712Y0283491D01*
X0303663Y0283529D01*
X0303615Y0283571D01*
X0303571Y0283615D01*
X0303529Y0283663D01*
X0303491Y0283712D01*
X0303456Y0283764D01*
X0303424Y0283818D01*
X0303395Y0283874D01*
X0303370Y0283932D01*
X0303349Y0283991D01*
X0303331Y0284051D01*
X0303318Y0284113D01*
X0303308Y0284175D01*
X0303302Y0284237D01*
X0303300Y0284300D01*
D12*
X0263881Y0297767D02*
X0263114Y0297000D01*
X0261579Y0297000D01*
X0260812Y0297767D01*
X0262346Y0299302D02*
X0263114Y0299302D01*
X0263881Y0298535D01*
X0263881Y0297767D01*
X0263114Y0299302D02*
X0263881Y0300069D01*
X0263881Y0300837D01*
X0263114Y0301604D01*
X0261579Y0301604D01*
X0260812Y0300837D01*
X0259277Y0299302D02*
X0256208Y0299302D01*
X0254673Y0301604D02*
X0251604Y0301604D01*
X0252371Y0302000D02*
X0253906Y0302000D01*
X0254673Y0302767D01*
X0254673Y0303535D01*
X0253906Y0304302D01*
X0252371Y0304302D01*
X0251604Y0305069D01*
X0251604Y0305837D01*
X0252371Y0306604D01*
X0253906Y0306604D01*
X0254673Y0305837D01*
X0256208Y0306604D02*
X0256208Y0304302D01*
X0257742Y0305069D01*
X0258510Y0305069D01*
X0259277Y0304302D01*
X0259277Y0302767D01*
X0258510Y0302000D01*
X0256975Y0302000D01*
X0256208Y0302767D01*
X0253139Y0301604D02*
X0253139Y0297000D01*
X0250069Y0297767D02*
X0249302Y0297000D01*
X0247767Y0297000D01*
X0247000Y0297767D01*
X0247767Y0299302D02*
X0249302Y0299302D01*
X0250069Y0298535D01*
X0250069Y0297767D01*
X0247767Y0299302D02*
X0247000Y0300069D01*
X0247000Y0300837D01*
X0247767Y0301604D01*
X0249302Y0301604D01*
X0250069Y0300837D01*
X0250069Y0302000D02*
X0247000Y0302000D01*
X0247000Y0306604D01*
X0250069Y0306604D01*
X0248535Y0304302D02*
X0247000Y0304302D01*
X0251604Y0302767D02*
X0252371Y0302000D01*
X0253139Y0301233D02*
X0253139Y0307371D01*
X0256208Y0306604D02*
X0259277Y0306604D01*
X0153087Y0222215D02*
X0153087Y0221447D01*
X0152319Y0220680D01*
X0153087Y0219913D01*
X0153087Y0219145D01*
X0152319Y0218378D01*
X0150785Y0218378D01*
X0150017Y0219145D01*
X0148483Y0220680D02*
X0145413Y0220680D01*
X0147715Y0222982D01*
X0147715Y0218378D01*
X0143879Y0218378D02*
X0140809Y0218378D01*
X0142344Y0218378D02*
X0142344Y0222982D01*
X0140809Y0221447D01*
X0139275Y0220680D02*
X0136205Y0220680D01*
X0134671Y0222982D02*
X0131602Y0222982D01*
X0131326Y0224244D02*
X0131326Y0225011D01*
X0134395Y0228081D01*
X0134395Y0228848D01*
X0131326Y0228848D01*
X0129791Y0228081D02*
X0129024Y0228848D01*
X0127489Y0228848D01*
X0126722Y0228081D01*
X0126722Y0227313D01*
X0127489Y0226546D01*
X0129024Y0226546D01*
X0129791Y0225779D01*
X0129791Y0225011D01*
X0129024Y0224244D01*
X0127489Y0224244D01*
X0126722Y0225011D01*
X0125187Y0224244D02*
X0122118Y0224244D01*
X0122118Y0228848D01*
X0125187Y0228848D01*
X0123653Y0226546D02*
X0122118Y0226546D01*
X0123161Y0222982D02*
X0122394Y0222215D01*
X0122394Y0221447D01*
X0123161Y0220680D01*
X0124696Y0220680D01*
X0125463Y0219913D01*
X0125463Y0219145D01*
X0124696Y0218378D01*
X0123161Y0218378D01*
X0122394Y0219145D01*
X0123161Y0222982D02*
X0124696Y0222982D01*
X0125463Y0222215D01*
X0126998Y0222215D02*
X0126998Y0219145D01*
X0127765Y0218378D01*
X0129300Y0218378D01*
X0130067Y0219145D01*
X0130067Y0222215D01*
X0129300Y0222982D01*
X0127765Y0222982D01*
X0126998Y0222215D01*
X0128257Y0223477D02*
X0128257Y0229615D01*
X0133136Y0222982D02*
X0133136Y0218378D01*
X0150017Y0222215D02*
X0150785Y0222982D01*
X0152319Y0222982D01*
X0153087Y0222215D01*
X0152319Y0220680D02*
X0151552Y0220680D01*
X0101676Y0194222D02*
X0098607Y0191153D01*
X0099374Y0190386D01*
X0100909Y0190386D01*
X0101676Y0191153D01*
X0101676Y0194222D01*
X0100909Y0194990D01*
X0099374Y0194990D01*
X0098607Y0194222D01*
X0098607Y0191153D01*
X0097072Y0190386D02*
X0094003Y0190386D01*
X0095538Y0190386D02*
X0095538Y0194990D01*
X0094003Y0193455D01*
X0092468Y0194222D02*
X0091701Y0194990D01*
X0090167Y0194990D01*
X0089399Y0194222D01*
X0089399Y0193455D01*
X0090167Y0192688D01*
X0091701Y0192688D01*
X0092468Y0191920D01*
X0092468Y0191153D01*
X0091701Y0190386D01*
X0090167Y0190386D01*
X0089399Y0191153D01*
X0087865Y0190386D02*
X0084795Y0190386D01*
X0084795Y0194990D01*
X0087865Y0194990D01*
X0086330Y0192688D02*
X0084795Y0192688D01*
X0090934Y0195757D02*
X0090934Y0189619D01*
X0073039Y0293033D02*
X0073039Y0299171D01*
X0073806Y0298404D02*
X0074573Y0297637D01*
X0073806Y0298404D02*
X0072271Y0298404D01*
X0071504Y0297637D01*
X0071504Y0296869D01*
X0072271Y0296102D01*
X0073806Y0296102D01*
X0074573Y0295335D01*
X0074573Y0294567D01*
X0073806Y0293800D01*
X0072271Y0293800D01*
X0071504Y0294567D01*
X0069969Y0293800D02*
X0066900Y0293800D01*
X0066900Y0298404D01*
X0069969Y0298404D01*
X0068435Y0296102D02*
X0066900Y0296102D01*
X0076108Y0297637D02*
X0076875Y0298404D01*
X0078410Y0298404D01*
X0079177Y0297637D01*
X0079177Y0296869D01*
X0076108Y0293800D01*
X0079177Y0293800D01*
X0024277Y0297000D02*
X0021208Y0297000D01*
X0022742Y0297000D02*
X0022742Y0301604D01*
X0021208Y0300069D01*
X0019673Y0300837D02*
X0018906Y0301604D01*
X0017371Y0301604D01*
X0016604Y0300837D01*
X0016604Y0300069D01*
X0017371Y0299302D01*
X0018906Y0299302D01*
X0019673Y0298535D01*
X0019673Y0297767D01*
X0018906Y0297000D01*
X0017371Y0297000D01*
X0016604Y0297767D01*
X0015069Y0297000D02*
X0012000Y0297000D01*
X0012000Y0301604D01*
X0015069Y0301604D01*
X0013535Y0299302D02*
X0012000Y0299302D01*
X0018139Y0302371D02*
X0018139Y0296233D01*
D13*
X0048819Y0186973D02*
X0048819Y0185472D01*
X0049819Y0185472D01*
X0050292Y0185722D02*
X0050542Y0185472D01*
X0051042Y0185472D01*
X0051293Y0185722D01*
X0051293Y0185972D01*
X0051042Y0186223D01*
X0050542Y0186223D01*
X0050292Y0186473D01*
X0050292Y0186723D01*
X0050542Y0186973D01*
X0051042Y0186973D01*
X0051293Y0186723D01*
X0051765Y0186723D02*
X0052015Y0186973D01*
X0052516Y0186973D01*
X0052766Y0186723D01*
X0052766Y0186473D01*
X0052516Y0186223D01*
X0052766Y0185972D01*
X0052766Y0185722D01*
X0052516Y0185472D01*
X0052015Y0185472D01*
X0051765Y0185722D01*
X0052265Y0186223D02*
X0052516Y0186223D01*
X0052845Y0184769D02*
X0052845Y0183267D01*
X0051844Y0184769D01*
X0051844Y0183267D01*
X0050871Y0184018D02*
X0050370Y0184018D01*
X0049898Y0184518D02*
X0049898Y0183518D01*
X0049648Y0183267D01*
X0049147Y0183267D01*
X0048897Y0183518D01*
X0048897Y0184518D01*
X0049147Y0184769D01*
X0049648Y0184769D01*
X0049898Y0184518D01*
X0050370Y0184769D02*
X0050370Y0183267D01*
X0049898Y0183267D02*
X0049398Y0183768D01*
X0050370Y0184769D02*
X0051371Y0184769D01*
X0050792Y0185222D02*
X0050792Y0187224D01*
X0049819Y0186973D02*
X0048819Y0186973D01*
X0048819Y0186223D02*
X0049319Y0186223D01*
X0053317Y0184018D02*
X0054318Y0184018D01*
X0054790Y0184518D02*
X0055040Y0184769D01*
X0055541Y0184769D01*
X0055791Y0184518D01*
X0055791Y0184268D01*
X0054790Y0183267D01*
X0055791Y0183267D01*
X0056264Y0184018D02*
X0057264Y0184018D01*
X0057014Y0184769D02*
X0056264Y0184018D01*
X0057014Y0183267D02*
X0057014Y0184769D01*
X0175900Y0263097D02*
X0176900Y0263097D01*
X0176900Y0264597D01*
X0175900Y0264597D01*
X0175900Y0263097D01*
X0175900Y0263151D02*
X0176900Y0263151D01*
X0176900Y0263249D02*
X0175900Y0263249D01*
X0175900Y0263348D02*
X0176900Y0263348D01*
X0176900Y0263446D02*
X0175900Y0263446D01*
X0175900Y0263545D02*
X0176900Y0263545D01*
X0176900Y0263643D02*
X0175900Y0263643D01*
X0175900Y0263742D02*
X0176900Y0263742D01*
X0176900Y0263840D02*
X0175900Y0263840D01*
X0175900Y0263939D02*
X0176900Y0263939D01*
X0176900Y0264037D02*
X0175900Y0264037D01*
X0175900Y0264136D02*
X0176900Y0264136D01*
X0176900Y0264234D02*
X0175900Y0264234D01*
X0175900Y0264333D02*
X0176900Y0264333D01*
X0176900Y0264431D02*
X0175900Y0264431D01*
X0175900Y0264530D02*
X0176900Y0264530D01*
X0187192Y0246900D02*
X0188692Y0246900D01*
X0188692Y0245900D01*
X0187192Y0245900D01*
X0187192Y0246900D01*
X0187192Y0246896D02*
X0188692Y0246896D01*
X0188692Y0246798D02*
X0187192Y0246798D01*
X0187192Y0246699D02*
X0188692Y0246699D01*
X0188692Y0246601D02*
X0187192Y0246601D01*
X0187192Y0246502D02*
X0188692Y0246502D01*
X0188692Y0246404D02*
X0187192Y0246404D01*
X0187192Y0246305D02*
X0188692Y0246305D01*
X0188692Y0246207D02*
X0187192Y0246207D01*
X0187192Y0246108D02*
X0188692Y0246108D01*
X0188692Y0246010D02*
X0187192Y0246010D01*
X0187192Y0245911D02*
X0188692Y0245911D01*
X0206877Y0245911D02*
X0208377Y0245911D01*
X0208377Y0245900D02*
X0208377Y0246900D01*
X0206877Y0246900D01*
X0206877Y0245900D01*
X0208377Y0245900D01*
X0208377Y0246010D02*
X0206877Y0246010D01*
X0206877Y0246108D02*
X0208377Y0246108D01*
X0208377Y0246207D02*
X0206877Y0246207D01*
X0206877Y0246305D02*
X0208377Y0246305D01*
X0208377Y0246404D02*
X0206877Y0246404D01*
X0206877Y0246502D02*
X0208377Y0246502D01*
X0208377Y0246601D02*
X0206877Y0246601D01*
X0206877Y0246699D02*
X0208377Y0246699D01*
X0208377Y0246798D02*
X0206877Y0246798D01*
X0206877Y0246896D02*
X0208377Y0246896D01*
X0224081Y0234400D02*
X0225581Y0234400D01*
X0225581Y0233400D01*
X0224081Y0233400D01*
X0224081Y0234400D01*
X0224081Y0234385D02*
X0225581Y0234385D01*
X0225581Y0234287D02*
X0224081Y0234287D01*
X0224081Y0234188D02*
X0225581Y0234188D01*
X0225581Y0234090D02*
X0224081Y0234090D01*
X0224081Y0233991D02*
X0225581Y0233991D01*
X0225581Y0233893D02*
X0224081Y0233893D01*
X0224081Y0233794D02*
X0225581Y0233794D01*
X0225581Y0233696D02*
X0224081Y0233696D01*
X0224081Y0233597D02*
X0225581Y0233597D01*
X0225581Y0233499D02*
X0224081Y0233499D01*
X0224081Y0233400D02*
X0225581Y0233400D01*
X0243400Y0221487D02*
X0244400Y0221487D01*
X0244400Y0219987D01*
X0243400Y0219987D01*
X0243400Y0221487D01*
X0243400Y0221480D02*
X0244400Y0221480D01*
X0244400Y0221382D02*
X0243400Y0221382D01*
X0243400Y0221283D02*
X0244400Y0221283D01*
X0244400Y0221185D02*
X0243400Y0221185D01*
X0243400Y0221086D02*
X0244400Y0221086D01*
X0244400Y0220988D02*
X0243400Y0220988D01*
X0243400Y0220889D02*
X0244400Y0220889D01*
X0244400Y0220791D02*
X0243400Y0220791D01*
X0243400Y0220692D02*
X0244400Y0220692D01*
X0244400Y0220594D02*
X0243400Y0220594D01*
X0243400Y0220495D02*
X0244400Y0220495D01*
X0244400Y0220397D02*
X0243400Y0220397D01*
X0243400Y0220298D02*
X0244400Y0220298D01*
X0244400Y0220200D02*
X0243400Y0220200D01*
X0243400Y0220101D02*
X0244400Y0220101D01*
X0244400Y0220003D02*
X0243400Y0220003D01*
X0245000Y0209676D02*
X0246000Y0209676D01*
X0246000Y0208176D01*
X0245000Y0208176D01*
X0245000Y0209676D01*
X0245000Y0209659D02*
X0246000Y0209659D01*
X0246000Y0209560D02*
X0245000Y0209560D01*
X0245000Y0209462D02*
X0246000Y0209462D01*
X0246000Y0209363D02*
X0245000Y0209363D01*
X0245000Y0209265D02*
X0246000Y0209265D01*
X0246000Y0209166D02*
X0245000Y0209166D01*
X0245000Y0209068D02*
X0246000Y0209068D01*
X0246000Y0208969D02*
X0245000Y0208969D01*
X0245000Y0208871D02*
X0246000Y0208871D01*
X0246000Y0208772D02*
X0245000Y0208772D01*
X0245000Y0208674D02*
X0246000Y0208674D01*
X0246000Y0208575D02*
X0245000Y0208575D01*
X0245000Y0208477D02*
X0246000Y0208477D01*
X0246000Y0208378D02*
X0245000Y0208378D01*
X0245000Y0208280D02*
X0246000Y0208280D01*
X0246000Y0208181D02*
X0245000Y0208181D01*
X0233456Y0200200D02*
X0231956Y0200200D01*
X0231956Y0199200D01*
X0233456Y0199200D01*
X0233456Y0200200D01*
X0233456Y0200103D02*
X0231956Y0200103D01*
X0231956Y0200005D02*
X0233456Y0200005D01*
X0233456Y0199906D02*
X0231956Y0199906D01*
X0231956Y0199808D02*
X0233456Y0199808D01*
X0233456Y0199709D02*
X0231956Y0199709D01*
X0231956Y0199611D02*
X0233456Y0199611D01*
X0233456Y0199512D02*
X0231956Y0199512D01*
X0231956Y0199414D02*
X0233456Y0199414D01*
X0233456Y0199315D02*
X0231956Y0199315D01*
X0231956Y0199217D02*
X0233456Y0199217D01*
X0210200Y0208176D02*
X0210200Y0209676D01*
X0209200Y0209676D01*
X0209200Y0208176D01*
X0210200Y0208176D01*
X0210200Y0208181D02*
X0209200Y0208181D01*
X0209200Y0208280D02*
X0210200Y0208280D01*
X0210200Y0208378D02*
X0209200Y0208378D01*
X0209200Y0208477D02*
X0210200Y0208477D01*
X0210200Y0208575D02*
X0209200Y0208575D01*
X0209200Y0208674D02*
X0210200Y0208674D01*
X0210200Y0208772D02*
X0209200Y0208772D01*
X0209200Y0208871D02*
X0210200Y0208871D01*
X0210200Y0208969D02*
X0209200Y0208969D01*
X0209200Y0209068D02*
X0210200Y0209068D01*
X0210200Y0209166D02*
X0209200Y0209166D01*
X0209200Y0209265D02*
X0210200Y0209265D01*
X0210200Y0209363D02*
X0209200Y0209363D01*
X0209200Y0209462D02*
X0210200Y0209462D01*
X0210200Y0209560D02*
X0209200Y0209560D01*
X0209200Y0209659D02*
X0210200Y0209659D01*
X0194350Y0219990D02*
X0193350Y0219990D01*
X0193350Y0221490D01*
X0194350Y0221490D01*
X0194350Y0219990D01*
X0194350Y0220003D02*
X0193350Y0220003D01*
X0193350Y0220101D02*
X0194350Y0220101D01*
X0194350Y0220200D02*
X0193350Y0220200D01*
X0193350Y0220298D02*
X0194350Y0220298D01*
X0194350Y0220397D02*
X0193350Y0220397D01*
X0193350Y0220495D02*
X0194350Y0220495D01*
X0194350Y0220594D02*
X0193350Y0220594D01*
X0193350Y0220692D02*
X0194350Y0220692D01*
X0194350Y0220791D02*
X0193350Y0220791D01*
X0193350Y0220889D02*
X0194350Y0220889D01*
X0194350Y0220988D02*
X0193350Y0220988D01*
X0193350Y0221086D02*
X0194350Y0221086D01*
X0194350Y0221185D02*
X0193350Y0221185D01*
X0193350Y0221283D02*
X0194350Y0221283D01*
X0194350Y0221382D02*
X0193350Y0221382D01*
X0193350Y0221480D02*
X0194350Y0221480D01*
X0216700Y0265066D02*
X0216700Y0266566D01*
X0217700Y0266566D01*
X0217700Y0265066D01*
X0216700Y0265066D01*
X0216700Y0265121D02*
X0217700Y0265121D01*
X0217700Y0265219D02*
X0216700Y0265219D01*
X0216700Y0265318D02*
X0217700Y0265318D01*
X0217700Y0265416D02*
X0216700Y0265416D01*
X0216700Y0265515D02*
X0217700Y0265515D01*
X0217700Y0265613D02*
X0216700Y0265613D01*
X0216700Y0265712D02*
X0217700Y0265712D01*
X0217700Y0265810D02*
X0216700Y0265810D01*
X0216700Y0265909D02*
X0217700Y0265909D01*
X0217700Y0266007D02*
X0216700Y0266007D01*
X0216700Y0266106D02*
X0217700Y0266106D01*
X0217700Y0266204D02*
X0216700Y0266204D01*
X0216700Y0266303D02*
X0217700Y0266303D01*
X0217700Y0266401D02*
X0216700Y0266401D01*
X0216700Y0266500D02*
X0217700Y0266500D01*
X0210345Y0286700D02*
X0208845Y0286700D01*
X0208845Y0287700D01*
X0210345Y0287700D01*
X0210345Y0286700D01*
X0210345Y0286793D02*
X0208845Y0286793D01*
X0208845Y0286892D02*
X0210345Y0286892D01*
X0210345Y0286990D02*
X0208845Y0286990D01*
X0208845Y0287089D02*
X0210345Y0287089D01*
X0210345Y0287187D02*
X0208845Y0287187D01*
X0208845Y0287286D02*
X0210345Y0287286D01*
X0210345Y0287384D02*
X0208845Y0287384D01*
X0208845Y0287483D02*
X0210345Y0287483D01*
X0210345Y0287581D02*
X0208845Y0287581D01*
X0208845Y0287680D02*
X0210345Y0287680D01*
X0190660Y0287700D02*
X0190660Y0286700D01*
X0189160Y0286700D01*
X0189160Y0287700D01*
X0190660Y0287700D01*
X0190660Y0287680D02*
X0189160Y0287680D01*
X0189160Y0287581D02*
X0190660Y0287581D01*
X0190660Y0287483D02*
X0189160Y0287483D01*
X0189160Y0287384D02*
X0190660Y0287384D01*
X0190660Y0287286D02*
X0189160Y0287286D01*
X0189160Y0287187D02*
X0190660Y0287187D01*
X0190660Y0287089D02*
X0189160Y0287089D01*
X0189160Y0286990D02*
X0190660Y0286990D01*
X0190660Y0286892D02*
X0189160Y0286892D01*
X0189160Y0286793D02*
X0190660Y0286793D01*
X0259081Y0233600D02*
X0260581Y0233600D01*
X0260581Y0232600D01*
X0259081Y0232600D01*
X0259081Y0233600D01*
X0259081Y0233597D02*
X0260581Y0233597D01*
X0260581Y0233499D02*
X0259081Y0233499D01*
X0259081Y0233400D02*
X0260581Y0233400D01*
X0260581Y0233302D02*
X0259081Y0233302D01*
X0259081Y0233203D02*
X0260581Y0233203D01*
X0260581Y0233105D02*
X0259081Y0233105D01*
X0259081Y0233006D02*
X0260581Y0233006D01*
X0260581Y0232908D02*
X0259081Y0232908D01*
X0259081Y0232809D02*
X0260581Y0232809D01*
X0260581Y0232711D02*
X0259081Y0232711D01*
X0259081Y0232612D02*
X0260581Y0232612D01*
X0277600Y0221487D02*
X0278600Y0221487D01*
X0278600Y0219987D01*
X0277600Y0219987D01*
X0277600Y0221487D01*
X0277600Y0221480D02*
X0278600Y0221480D01*
X0278600Y0221382D02*
X0277600Y0221382D01*
X0277600Y0221283D02*
X0278600Y0221283D01*
X0278600Y0221185D02*
X0277600Y0221185D01*
X0277600Y0221086D02*
X0278600Y0221086D01*
X0278600Y0220988D02*
X0277600Y0220988D01*
X0277600Y0220889D02*
X0278600Y0220889D01*
X0278600Y0220791D02*
X0277600Y0220791D01*
X0277600Y0220692D02*
X0278600Y0220692D01*
X0278600Y0220594D02*
X0277600Y0220594D01*
X0277600Y0220495D02*
X0278600Y0220495D01*
X0278600Y0220397D02*
X0277600Y0220397D01*
X0277600Y0220298D02*
X0278600Y0220298D01*
X0278600Y0220200D02*
X0277600Y0220200D01*
X0277600Y0220101D02*
X0278600Y0220101D01*
X0278600Y0220003D02*
X0277600Y0220003D01*
X0268456Y0201000D02*
X0266956Y0201000D01*
X0266956Y0200000D01*
X0268456Y0200000D01*
X0268456Y0201000D01*
X0268456Y0200990D02*
X0266956Y0200990D01*
X0266956Y0200891D02*
X0268456Y0200891D01*
X0268456Y0200793D02*
X0266956Y0200793D01*
X0266956Y0200694D02*
X0268456Y0200694D01*
X0268456Y0200596D02*
X0266956Y0200596D01*
X0266956Y0200497D02*
X0268456Y0200497D01*
X0268456Y0200399D02*
X0266956Y0200399D01*
X0266956Y0200300D02*
X0268456Y0200300D01*
X0268456Y0200202D02*
X0266956Y0200202D01*
X0266956Y0200103D02*
X0268456Y0200103D01*
X0268456Y0200005D02*
X0266956Y0200005D01*
D14*
X0273600Y0202300D02*
X0276300Y0202300D01*
X0276300Y0205000D01*
X0276300Y0228600D02*
X0276300Y0231300D01*
X0273600Y0231300D01*
X0250000Y0231300D02*
X0247300Y0231300D01*
X0247300Y0228600D01*
X0241300Y0228600D02*
X0241300Y0231300D01*
X0238600Y0231300D01*
X0215000Y0231300D02*
X0212300Y0231300D01*
X0212300Y0228600D01*
X0188400Y0223400D02*
X0188400Y0222600D01*
X0188400Y0223400D02*
X0175200Y0223400D01*
X0175200Y0222600D01*
X0175200Y0211000D02*
X0175200Y0210200D01*
X0188400Y0210200D01*
X0188400Y0211000D01*
X0212300Y0205000D02*
X0212300Y0202300D01*
X0215000Y0202300D01*
X0238600Y0202300D02*
X0241300Y0202300D01*
X0241300Y0205000D01*
X0247300Y0205000D02*
X0247300Y0202300D01*
X0250000Y0202300D01*
X0214500Y0249100D02*
X0214500Y0250100D01*
X0214500Y0249100D02*
X0213500Y0249100D01*
X0180100Y0249100D02*
X0179100Y0249100D01*
X0179100Y0250100D01*
X0179100Y0283500D02*
X0179100Y0284500D01*
X0180100Y0284500D01*
X0213500Y0284500D02*
X0214500Y0284500D01*
X0214500Y0283500D01*
X0181900Y0189000D02*
X0178600Y0189000D01*
X0176200Y0189000D01*
X0172800Y0189000D01*
X0172800Y0149600D02*
X0181900Y0149600D01*
D15*
X0168886Y0189434D02*
X0165750Y0192570D01*
X0165750Y0191002D02*
X0168886Y0191002D01*
X0168886Y0192570D02*
X0165750Y0189434D01*
X0167318Y0189434D02*
X0167318Y0192570D01*
X0170250Y0222234D02*
X0173386Y0225370D01*
X0171818Y0225370D02*
X0171818Y0222234D01*
X0173386Y0222234D02*
X0170250Y0225370D01*
X0170250Y0223802D02*
X0173386Y0223802D01*
X0206550Y0226034D02*
X0209686Y0229170D01*
X0208118Y0229170D02*
X0208118Y0226034D01*
X0209686Y0226034D02*
X0206550Y0229170D01*
X0206550Y0227602D02*
X0209686Y0227602D01*
X0242350Y0227602D02*
X0245486Y0227602D01*
X0245486Y0229170D02*
X0242350Y0226034D01*
X0243918Y0226034D02*
X0243918Y0229170D01*
X0242350Y0229170D02*
X0245486Y0226034D01*
X0176386Y0282434D02*
X0173250Y0285570D01*
X0173250Y0284002D02*
X0176386Y0284002D01*
X0176386Y0285570D02*
X0173250Y0282434D01*
X0174818Y0282434D02*
X0174818Y0285570D01*
D16*
X0301900Y0289460D02*
X0303368Y0289460D01*
X0304110Y0289827D02*
X0304477Y0289460D01*
X0305211Y0289460D01*
X0305578Y0289827D01*
X0305578Y0290194D01*
X0305211Y0290561D01*
X0304477Y0290561D01*
X0304110Y0290928D01*
X0304110Y0291295D01*
X0304477Y0291662D01*
X0305211Y0291662D01*
X0305578Y0291295D01*
X0304844Y0292029D02*
X0304844Y0289093D01*
X0306320Y0289827D02*
X0306320Y0290561D01*
X0307421Y0290561D01*
X0307788Y0290194D01*
X0307788Y0289827D01*
X0307421Y0289460D01*
X0306687Y0289460D01*
X0306320Y0289827D01*
X0306320Y0290561D02*
X0307054Y0291295D01*
X0307788Y0291662D01*
X0303368Y0291662D02*
X0301900Y0291662D01*
X0301900Y0289460D01*
X0301900Y0290561D02*
X0302634Y0290561D01*
X0304844Y0245749D02*
X0304844Y0242813D01*
X0305211Y0243180D02*
X0305578Y0243547D01*
X0305578Y0243914D01*
X0305211Y0244281D01*
X0304477Y0244281D01*
X0304110Y0244648D01*
X0304110Y0245015D01*
X0304477Y0245382D01*
X0305211Y0245382D01*
X0305578Y0245015D01*
X0306320Y0245015D02*
X0306687Y0245382D01*
X0307421Y0245382D01*
X0307788Y0245015D01*
X0307788Y0244648D01*
X0307421Y0244281D01*
X0306687Y0244281D01*
X0306320Y0244648D01*
X0306320Y0245015D01*
X0306687Y0244281D02*
X0306320Y0243914D01*
X0306320Y0243547D01*
X0306687Y0243180D01*
X0307421Y0243180D01*
X0307788Y0243547D01*
X0307788Y0243914D01*
X0307421Y0244281D01*
X0305211Y0243180D02*
X0304477Y0243180D01*
X0304110Y0243547D01*
X0303368Y0243180D02*
X0301900Y0243180D01*
X0301900Y0245382D01*
X0303368Y0245382D01*
X0302634Y0244281D02*
X0301900Y0244281D01*
D17*
X0178600Y0189000D02*
X0178598Y0188931D01*
X0178592Y0188863D01*
X0178582Y0188795D01*
X0178569Y0188728D01*
X0178551Y0188662D01*
X0178530Y0188597D01*
X0178505Y0188533D01*
X0178477Y0188471D01*
X0178445Y0188410D01*
X0178410Y0188351D01*
X0178371Y0188295D01*
X0178329Y0188240D01*
X0178284Y0188189D01*
X0178236Y0188139D01*
X0178186Y0188093D01*
X0178133Y0188050D01*
X0178077Y0188009D01*
X0178020Y0187972D01*
X0177960Y0187939D01*
X0177898Y0187908D01*
X0177835Y0187882D01*
X0177771Y0187859D01*
X0177705Y0187839D01*
X0177638Y0187824D01*
X0177571Y0187812D01*
X0177503Y0187804D01*
X0177434Y0187800D01*
X0177366Y0187800D01*
X0177297Y0187804D01*
X0177229Y0187812D01*
X0177162Y0187824D01*
X0177095Y0187839D01*
X0177029Y0187859D01*
X0176965Y0187882D01*
X0176902Y0187908D01*
X0176840Y0187939D01*
X0176780Y0187972D01*
X0176723Y0188009D01*
X0176667Y0188050D01*
X0176614Y0188093D01*
X0176564Y0188139D01*
X0176516Y0188189D01*
X0176471Y0188240D01*
X0176429Y0188295D01*
X0176390Y0188351D01*
X0176355Y0188410D01*
X0176323Y0188471D01*
X0176295Y0188533D01*
X0176270Y0188597D01*
X0176249Y0188662D01*
X0176231Y0188728D01*
X0176218Y0188795D01*
X0176208Y0188863D01*
X0176202Y0188931D01*
X0176200Y0189000D01*
D18*
X0176570Y0193300D02*
X0176570Y0200706D01*
X0174101Y0198238D01*
X0171488Y0199472D02*
X0170254Y0200706D01*
X0167785Y0200706D01*
X0166550Y0199472D01*
X0166550Y0198238D01*
X0167785Y0197003D01*
X0170254Y0197003D01*
X0171488Y0195769D01*
X0171488Y0194534D01*
X0170254Y0193300D01*
X0167785Y0193300D01*
X0166550Y0194534D01*
X0163938Y0193300D02*
X0159000Y0193300D01*
X0159000Y0200706D01*
X0163938Y0200706D01*
X0169019Y0201941D02*
X0169019Y0192066D01*
X0174101Y0193300D02*
X0179038Y0193300D01*
X0181651Y0193300D02*
X0186589Y0193300D01*
X0184120Y0193300D02*
X0184120Y0200706D01*
X0181651Y0198238D01*
X0161469Y0197003D02*
X0159000Y0197003D01*
M02*
