G75*
%MOIN*%
%OFA0B0*%
%FSLAX25Y25*%
%IPPOS*%
%LPD*%
%AMOC8*
5,1,8,0,0,1.08239X$1,22.5*
%
%ADD10R,0.05800X0.16300*%
%ADD11R,0.03600X0.15100*%
%ADD12R,0.01587X0.03753*%
%ADD13R,0.03753X0.01587*%
%ADD14R,0.03600X0.02000*%
%ADD15R,0.02000X0.03600*%
%ADD16R,0.17500X0.17500*%
%ADD17R,0.02769X0.02965*%
%ADD18R,0.03792X0.02965*%
%ADD19R,0.03200X0.08650*%
%ADD20R,0.13200X0.08650*%
%ADD21R,0.06312X0.02000*%
%ADD22R,0.03800X0.02000*%
%ADD23R,0.02178X0.04540*%
%ADD24R,0.04540X0.02178*%
%ADD25R,0.04146X0.01981*%
%ADD26R,0.01981X0.04146*%
%ADD27R,0.14973X0.14973*%
%ADD28R,0.08900X0.03200*%
%ADD29R,0.05100X0.01900*%
%ADD30R,0.04800X0.02000*%
%ADD31R,0.02000X0.04800*%
%ADD32R,0.21300X0.21300*%
%ADD33R,0.04000X0.02000*%
%ADD34R,0.02000X0.04000*%
D10*
X0021800Y0241800D03*
X0031800Y0241800D03*
X0041800Y0241800D03*
D11*
X0073400Y0242150D03*
X0080100Y0242150D03*
X0086800Y0242150D03*
X0093500Y0242150D03*
X0100200Y0242150D03*
D12*
X0061721Y0180068D03*
X0059359Y0180068D03*
X0057391Y0180068D03*
X0055422Y0180068D03*
X0053454Y0180068D03*
X0051485Y0180068D03*
X0051485Y0163532D03*
X0053454Y0163532D03*
X0055422Y0163532D03*
X0057391Y0163532D03*
X0059359Y0163532D03*
X0061328Y0163532D03*
D13*
X0065068Y0167272D03*
X0065068Y0169241D03*
X0065068Y0171209D03*
X0065068Y0173178D03*
X0065068Y0175146D03*
X0065068Y0177115D03*
X0048532Y0177115D03*
X0048532Y0175146D03*
X0048532Y0173178D03*
X0048532Y0171209D03*
X0048532Y0169241D03*
X0048532Y0167272D03*
D14*
X0179300Y0252036D03*
X0179300Y0254005D03*
X0179300Y0255973D03*
X0179300Y0257942D03*
X0179300Y0259910D03*
X0179300Y0261879D03*
X0179300Y0263847D03*
X0179300Y0265816D03*
X0179300Y0267784D03*
X0179300Y0269753D03*
X0179300Y0271721D03*
X0179300Y0273690D03*
X0179300Y0275658D03*
X0179300Y0277627D03*
X0179300Y0279595D03*
X0179300Y0281564D03*
X0214300Y0281564D03*
X0214300Y0279595D03*
X0214300Y0277627D03*
X0214300Y0275658D03*
X0214300Y0273690D03*
X0214300Y0271721D03*
X0214300Y0269753D03*
X0214300Y0267784D03*
X0214300Y0265816D03*
X0214300Y0263847D03*
X0214300Y0261879D03*
X0214300Y0259910D03*
X0214300Y0257942D03*
X0214300Y0255973D03*
X0214300Y0254005D03*
X0214300Y0252036D03*
D15*
X0211564Y0249300D03*
X0209595Y0249300D03*
X0207627Y0249300D03*
X0205658Y0249300D03*
X0203690Y0249300D03*
X0201721Y0249300D03*
X0199753Y0249300D03*
X0197784Y0249300D03*
X0195816Y0249300D03*
X0193847Y0249300D03*
X0191879Y0249300D03*
X0189910Y0249300D03*
X0187942Y0249300D03*
X0185973Y0249300D03*
X0184005Y0249300D03*
X0182036Y0249300D03*
X0182036Y0284300D03*
X0184005Y0284300D03*
X0185973Y0284300D03*
X0187942Y0284300D03*
X0189910Y0284300D03*
X0191879Y0284300D03*
X0193847Y0284300D03*
X0195816Y0284300D03*
X0197784Y0284300D03*
X0199753Y0284300D03*
X0201721Y0284300D03*
X0203690Y0284300D03*
X0205658Y0284300D03*
X0207627Y0284300D03*
X0209595Y0284300D03*
X0211564Y0284300D03*
D16*
X0196800Y0266800D03*
D17*
X0129910Y0215501D03*
X0123099Y0215501D03*
X0129792Y0208139D03*
D18*
X0123572Y0208139D03*
D19*
X0247750Y0265940D03*
X0256800Y0265940D03*
X0265850Y0265940D03*
D20*
X0256800Y0287660D03*
D21*
X0299240Y0286700D03*
X0299240Y0284240D03*
X0299240Y0281680D03*
X0299240Y0279120D03*
X0299240Y0276560D03*
X0299240Y0274000D03*
X0299240Y0271440D03*
X0299240Y0268880D03*
X0299240Y0266320D03*
X0299240Y0263760D03*
X0299240Y0261200D03*
X0299240Y0258640D03*
X0321480Y0258740D03*
X0321480Y0261300D03*
X0321480Y0263860D03*
X0321480Y0266420D03*
X0321480Y0268980D03*
X0321480Y0271540D03*
X0321480Y0274100D03*
X0321480Y0276660D03*
X0321480Y0279220D03*
X0321480Y0281780D03*
X0321480Y0284340D03*
X0321480Y0286900D03*
D22*
X0321480Y0240620D03*
X0321480Y0238060D03*
X0321480Y0235500D03*
X0321480Y0232940D03*
X0321480Y0230380D03*
X0321480Y0227820D03*
X0321480Y0225260D03*
X0321480Y0222700D03*
X0321480Y0220140D03*
X0321480Y0217580D03*
X0321480Y0215020D03*
X0321480Y0212460D03*
X0299240Y0212360D03*
X0299240Y0214920D03*
X0299240Y0217480D03*
X0299240Y0220040D03*
X0299240Y0222600D03*
X0299240Y0225160D03*
X0299240Y0227720D03*
X0299240Y0230280D03*
X0299240Y0232840D03*
X0299240Y0235400D03*
X0299240Y0237960D03*
X0299240Y0240420D03*
D23*
X0028335Y0182351D03*
X0025776Y0182351D03*
X0023217Y0182351D03*
X0020658Y0182351D03*
X0018099Y0182351D03*
X0018099Y0163965D03*
X0020658Y0163965D03*
X0023217Y0163965D03*
X0025776Y0163965D03*
X0028335Y0163965D03*
D24*
X0032455Y0168081D03*
X0032455Y0170641D03*
X0032455Y0173200D03*
X0032455Y0175759D03*
X0032455Y0178318D03*
X0014069Y0178318D03*
X0014069Y0175759D03*
X0014069Y0173200D03*
X0014069Y0170641D03*
X0014069Y0168081D03*
D25*
X0087154Y0169910D03*
X0087154Y0171879D03*
X0087154Y0173847D03*
X0087154Y0175816D03*
X0087154Y0177784D03*
X0087154Y0179753D03*
X0087154Y0181721D03*
X0087154Y0183690D03*
X0106446Y0183690D03*
X0106446Y0181721D03*
X0106446Y0179753D03*
X0106446Y0177784D03*
X0106446Y0175816D03*
X0106446Y0173847D03*
X0106446Y0171879D03*
X0106446Y0169910D03*
D26*
X0103690Y0167154D03*
X0101721Y0167154D03*
X0099753Y0167154D03*
X0097784Y0167154D03*
X0095816Y0167154D03*
X0093847Y0167154D03*
X0091879Y0167154D03*
X0089910Y0167154D03*
X0089910Y0186446D03*
X0091879Y0186446D03*
X0093847Y0186446D03*
X0095816Y0186446D03*
X0097784Y0186446D03*
X0099753Y0186446D03*
X0101721Y0186446D03*
X0103690Y0186446D03*
D27*
X0096800Y0176800D03*
D28*
X0167900Y0151800D03*
X0167900Y0156800D03*
X0167900Y0161800D03*
X0167900Y0166800D03*
X0167900Y0171800D03*
X0167900Y0176800D03*
X0167900Y0181800D03*
X0167900Y0186800D03*
X0186800Y0186800D03*
X0186800Y0181800D03*
X0186800Y0176800D03*
X0186800Y0171800D03*
X0186800Y0166800D03*
X0186800Y0161800D03*
X0186800Y0156800D03*
X0186800Y0151800D03*
D29*
X0190200Y0212860D03*
X0190200Y0214830D03*
X0190200Y0216800D03*
X0190200Y0218770D03*
X0190200Y0220740D03*
X0173400Y0220740D03*
X0173400Y0218770D03*
X0173400Y0216800D03*
X0173400Y0214830D03*
X0173400Y0212860D03*
D30*
X0213200Y0212863D03*
X0213200Y0214831D03*
X0213200Y0216800D03*
X0213200Y0218769D03*
X0213200Y0220737D03*
X0213200Y0222706D03*
X0213200Y0224674D03*
X0213200Y0226643D03*
X0213200Y0210894D03*
X0213200Y0208926D03*
X0213200Y0206957D03*
X0240400Y0206957D03*
X0240400Y0208926D03*
X0240400Y0210894D03*
X0240400Y0212863D03*
X0240400Y0214831D03*
X0240400Y0216800D03*
X0240400Y0218769D03*
X0240400Y0220737D03*
X0240400Y0222706D03*
X0240400Y0224674D03*
X0240400Y0226643D03*
D31*
X0236643Y0230400D03*
X0234674Y0230400D03*
X0232706Y0230400D03*
X0230737Y0230400D03*
X0228769Y0230400D03*
X0226800Y0230400D03*
X0224831Y0230400D03*
X0222863Y0230400D03*
X0220894Y0230400D03*
X0218926Y0230400D03*
X0216957Y0230400D03*
X0216957Y0203200D03*
X0218926Y0203200D03*
X0220894Y0203200D03*
X0222863Y0203200D03*
X0224831Y0203200D03*
X0226800Y0203200D03*
X0228769Y0203200D03*
X0230737Y0203200D03*
X0232706Y0203200D03*
X0234674Y0203200D03*
X0236643Y0203200D03*
D32*
X0226800Y0216800D03*
X0261800Y0216800D03*
D33*
X0248600Y0216800D03*
X0248600Y0218769D03*
X0248600Y0220737D03*
X0248600Y0222706D03*
X0248600Y0224674D03*
X0248600Y0226643D03*
X0248600Y0214831D03*
X0248600Y0212863D03*
X0248600Y0210894D03*
X0248600Y0208926D03*
X0248600Y0206957D03*
X0275000Y0206957D03*
X0275000Y0208926D03*
X0275000Y0210894D03*
X0275000Y0212863D03*
X0275000Y0214831D03*
X0275000Y0216800D03*
X0275000Y0218769D03*
X0275000Y0220737D03*
X0275000Y0222706D03*
X0275000Y0224674D03*
X0275000Y0226643D03*
D34*
X0271643Y0230000D03*
X0269674Y0230000D03*
X0267706Y0230000D03*
X0265737Y0230000D03*
X0263769Y0230000D03*
X0261800Y0230000D03*
X0259831Y0230000D03*
X0257863Y0230000D03*
X0255894Y0230000D03*
X0253926Y0230000D03*
X0251957Y0230000D03*
X0251957Y0203600D03*
X0253926Y0203600D03*
X0255894Y0203600D03*
X0257863Y0203600D03*
X0259831Y0203600D03*
X0261800Y0203600D03*
X0263769Y0203600D03*
X0265737Y0203600D03*
X0267706Y0203600D03*
X0269674Y0203600D03*
X0271643Y0203600D03*
M02*
