%
T1C.009F0S0
X0112Y01644
X01075Y01805
X012Y02415
X01075Y0358
X0125Y03595
X01155Y0379
X01255Y03855
X01135Y0425
X01045Y06045
X0108Y06225
X0106Y0626
X01065Y06295
X01105Y06485
X0114Y065
X0112Y0664
X0124Y06655
X01185Y06685
X01195Y0672
X0106Y07045
X01205Y07115
X0105Y07165
X01255Y073
X01255Y0743
X0114Y07515
X0126Y076
X0103Y0763
X0172Y07796
X01425Y076
X01655Y0757
X0143Y0743
X0136Y0735
X01655Y07345
X01425Y07295
X01725Y0727
X01285Y0712
X01696Y0678
X0173Y067
X016Y0667
X01295Y0664
X01287Y06574
X01358Y06574
X01323Y06574
X0155Y0655
X01635Y0654
X0151Y06315
X01575Y06185
X0146Y06155
X01485Y06125
X01405Y06085
X01405Y05845
X01576Y05812
X0174Y0576
X0132Y0569
X0175Y05605
X0151Y05395
X01405Y04005
X01305Y02555
X0144Y02505
X01305Y02415
X01595Y019
X01725Y0183
X01575Y01695
X0152Y0166
X01388Y01644
X01735Y01595
X01475Y0159
X01605Y0159
X01775Y0157
X01795Y01535
X01965Y0369
X02075Y03795
X01975Y038
X01965Y0386
X01995Y0395
X0186Y04045
X021Y04068
X02205Y04086
X01885Y04345
X01995Y04405
X0194Y04505
X0213Y04555
X0205Y046
X01865Y0492
X0199Y04995
X02215Y05455
X02125Y055
X02185Y05535
X0225Y0555
X01865Y0556
X01865Y05585
X0227Y057
X0188Y05785
X0222Y0604
X0201Y0606
X01985Y0608
X018Y06095
X0211Y0624
X01835Y06255
X02241Y0629
X02235Y0665
X019Y0677
X0179Y0681
X01925Y0711
X02095Y0711
X0213Y0717
X022Y07215
X0224Y07275
X01825Y07535
X021Y0761
X02208Y07708
X02525Y07495
X0236Y0737
X02315Y07325
X02395Y06835
X0244Y0683
X02525Y0682
X02388Y065965
X025Y06595
X02359Y065715
X0251Y06405
X02367Y0635
X02375Y06315
X02365Y0623
X02461Y06215
X024435Y061865
X024735Y06179
X024835Y06144
X0244Y06045
X0236Y06015
X02515Y0586
X023345Y05841
X024355Y057605
X02346Y056305
X02332Y056105
X025Y053
X02302Y04107
X02476Y03452
X02452Y03252
X0248Y03145
X0242Y0286
X0262Y0293
X02605Y03035
X0264Y03345
X02736Y041
X02778Y04148
X0274Y04195
X02665Y04385
X0254Y04455
X02595Y0479
X02705Y0483
X027455Y050285
X02585Y0523
X02555Y05435
X02635Y05445
X0255Y05605
X02531Y0563
X02755Y057
X0258Y05735
X027645Y057605
X0254Y0579
X0276Y0579
X0276Y05825
X0254Y0606
X02765Y06115
X027Y0623
X02695Y06255
X02545Y0627
X02725Y0627
X02755Y06355
X02545Y06365
X02626Y06385
X0267Y06445
X0268Y06475
X02705Y0648
X02775Y06565
X02595Y0659
X02665Y0679
X0254Y06795
X02635Y06795
X02695Y0681
X02595Y06845
X02625Y06955
X0279Y07795
X0301Y07655
X0292Y0761
X0291Y07315
X0295Y07315
X02855Y0694
X0291Y06735
X02945Y0671
X02817Y06662
X02874Y065785
X02904Y06576
X02926Y065645
X02992Y06547
X028655Y065415
X0299Y064995
X0296Y06414
X0288Y0636
X030125Y063445
X02872Y06328
X0295Y063
X02982Y062695
X02872Y0626
X0278Y0625
X02893Y06247
X028925Y06225
X02983Y062235
X02998Y06113
X02875Y06105
X0282Y06065
X02796Y06064
X03005Y0598
X02864Y05972
X02985Y05965
X02865Y05915
X02948Y05876
X03007Y058395
X0278Y05805
X0295Y0577
X02783Y05735
X0288Y05665
X02856Y05658
X029Y0565
X02925Y05649
X028225Y056075
X0286Y0551
X0298Y05485
X02885Y0546
X02835Y05395
X02944Y0526
X02875Y0526
X0298Y0515
X03016Y04452
X02967Y04432
X02922Y04414
X0288Y04402
X02975Y0364
X02925Y0354
X0278Y0284
X029Y02444
X02936Y02004
X02936Y01972
X03155Y01787
X03112Y01877
X0323Y01965
X031045Y045375
X03119Y04665
X031885Y047525
X0312Y04865
X03176Y04934
X03208Y04966
X03204Y05031
X03208Y05056
X03045Y05095
X03209Y05099
X03208Y05124
X03216Y05184
X0322Y05212
X0322Y05244
X0322Y05268
X03125Y05315
X0322Y05328
X0322Y05395
X03128Y05396
X0322Y05428
X0311Y0544
X03218Y0546
X03236Y05484
X03211Y05525
X03155Y05535
X03104Y05652
X0308Y05652
X03185Y0571
X0322Y05756
X0313Y0582
X03069Y058975
X03092Y05917
X030665Y060155
X032255Y060155
X030885Y060155
X031865Y060155
X03264Y060165
X03145Y06017
X03106Y060355
X030695Y060375
X032245Y060375
X03188Y060375
X031195Y060535
X030855Y06055
X03224Y0606
X03187Y060615
X031375Y060725
X03275Y06073
X03105Y06076
X03124Y060915
X03068Y06096
X03185Y060975
X032245Y060975
X03151Y06105
X0326Y06106
X032625Y06135
X0309Y06136
X03068Y06136
X03113Y06136
X03147Y06137
X03265Y06173
X03144Y06173
X030895Y061745
X030675Y06176
X03165Y061945
X03249Y06212
X03187Y06213
X03227Y062135
X030665Y062155
X03125Y06225
X031065Y06237
X031855Y06248
X03224Y0625
X03128Y062505
X0309Y062525
X0311Y062645
X03187Y062705
X030715Y06271
X03226Y062725
X03091Y062835
X03187Y062925
X032635Y06293
X03069Y06293
X03146Y062935
X03226Y062945
X031865Y06391
X03074Y064045
X03163Y06443
X0308Y06464
X0316Y06505
X03034Y06544
X03214Y0657
X03236Y06574
X0314Y06575
X03095Y0659
X0312Y0659
X03175Y0662
X03215Y0664
X030615Y066465
X03245Y06685
X031995Y06723
X03155Y06725
X031Y0676
X0312Y06855
X03055Y0686
X0307Y0691
X030535Y070555
X03205Y0707
X0309Y0724
X0317Y07405
X03155Y0762
X0325Y07735
X0312Y07835
X0336Y0786
X03496Y0782
X03355Y07445
X0337Y0734
X03525Y0709
X03345Y06775
X0329Y06685
X03335Y0666
X03505Y0664
X03335Y06595
X03495Y0656
X03525Y06555
X03485Y0648
X03435Y06395
X034Y06348
X03322Y062945
X033445Y062945
X033045Y06274
X033415Y062715
X032905Y062565
X033225Y06253
X03305Y062385
X03287Y062245
X03344Y06215
X03435Y06185
X03299Y061745
X03321Y06173
X03344Y06173
X03299Y061375
X033225Y06136
X033445Y061355
X033425Y060975
X03303Y060765
X033205Y060585
X0329Y060555
X03341Y060385
X033025Y06036
X033215Y060155
X033435Y060155
X03355Y05875
X03385Y0587
X03432Y058445
X03444Y05771
X034135Y056335
X03455Y05545
X0342Y0546
X03405Y05435
X03526Y05419
X03405Y05395
X03432Y05328
X03432Y05268
X03432Y05244
X03436Y05212
X03436Y05184
X0347Y05124
X03509Y05104
X032815Y048585
X03328Y047845
X03303Y04766
X0333Y02075
X0335Y0206
X0337Y02045
X0339Y0203
X0341Y02015
X03465Y02
X03485Y01985
X03505Y0197
X0331Y0188
X0374Y0188
X0376Y01965
X0372Y0197
X037Y01985
X0368Y02
X03663Y02015
X03645Y0203
X03625Y02045
X03565Y0206
X03545Y02075
X0374Y04785
X0364Y0489
X0357Y04965
X03712Y05016
X03564Y0504
X03772Y0504
X03552Y05076
X03736Y05124
X0376Y05265
X03775Y0537
X036395Y056325
X0371Y059
X03754Y05999
X03745Y06025
X03775Y06065
X0355Y06395
X03575Y06425
X03756Y06564
X03748Y06696
X03575Y06765
X03605Y0697
X03645Y0728
X036Y07795
X0395Y0787
X04Y07805
X03825Y0766
X0395Y0758
X03975Y07565
X0394Y06975
X03965Y0696
X04Y0686
X0393Y0685
X03865Y06835
X03948Y06824
X03948Y06724
X04015Y0652
X0388Y0648
X03992Y06472
X039Y06295
X03905Y06255
X03818Y06197
X03815Y06155
X03865Y0606
X03965Y06045
X0385Y06025
X039915Y06013
X03784Y0601
X038Y0599
X03835Y05965
X03945Y05955
X03815Y05935
X03905Y059
X03895Y05545
X0385Y055
X03805Y05395
X03852Y05224
X03792Y05212
X0386Y05184
X03808Y05104
X03824Y05076
X03952Y04965
X03922Y04385
X0394Y01965
X038Y01965
X0384Y01965
X03975Y01965
X0396Y0188
X0378Y0188
X0386Y0188
X039973Y0188
X0382Y0188
X03955Y0177
X0383Y0176
X04075Y0188
X04055Y01965
X04095Y01965
X04222Y04032
X04115Y04165
X04055Y04395
X04175Y0547
X0404Y0556
X04065Y0559
X0419Y05635
X0425Y0586
X04045Y06115
X0416Y0621
X041805Y064655
X0422Y0651
X04205Y0656
X0416Y0658
X0414Y0662
X0427Y0662
X040555Y066515
X04036Y06724
X04045Y0679
X0426Y06795
X040675Y06854
X0421Y06885
X04075Y0756
X0415Y07565
X041Y07655
X042Y07665
X0405Y0773
X042Y0773
X04255Y0773
X041Y07805
X0415Y07805
X0438Y0787
X0446Y07725
X04435Y0769
X04386Y07665
X04415Y07665
X04525Y07635
X04395Y07633
X04305Y07545
X04417Y07452
X04432Y07385
X04448Y07351
X04348Y0732
X04442Y07318
X04528Y07298
X04347Y07275
X04433Y07275
X04447Y07258
X04528Y07141
X04445Y07122
X04385Y07035
X04524Y069295
X0444Y06835
X04465Y06755
X04315Y0665
X0434Y06645
X0436Y0646
X0441Y06445
X04351Y05186
X04325Y051
X04293Y05026
X0436Y049
X04395Y04858
X04487Y04463
X0446Y0426
X04282Y04108
X0432Y04079
X0436Y04068
X0474Y04015
X04535Y04145
X04735Y0415
X04736Y04461
X04555Y0486
X04555Y05577
X04735Y06385
X04705Y0639
X04765Y06395
X04555Y06435
X04685Y0654
X04765Y06545
X04615Y06585
X04685Y0664
X04575Y06835
X0465Y06895
X04745Y069
X04685Y0693
X0465Y07005
X04685Y07005
X0476Y07008
X04735Y07008
X04624Y07012
X04604Y07044
X04769Y07081
X0462Y0714
X04644Y072
X04557Y07293
X0462Y0732
X04743Y07358
X04625Y0736
X04775Y07365
X0472Y0737
X04685Y07505
X04762Y07507
X0473Y07513
X046Y07619
X0455Y0764
X04683Y0764
X04535Y0774
X0457Y0781
X0478Y0764
X04802Y0764
X048265Y076395
X0488Y07634
X04837Y074895
X0494Y0747
X048575Y074655
X04968Y07407
X04887Y072985
X0489Y07218
X04822Y0717
X04893Y07161
X04887Y071385
X04783Y07125
X0489Y07115
X0486Y0711
X04892Y07083
X04891Y07061
X04837Y07014
X04879Y06967
X04981Y06938
X04963Y06911
X04885Y06899
X0478Y0683
X04815Y06815
X048Y06795
X0489Y0678
X04785Y06685
X048Y0654
X04815Y0651
X0485Y06495
X04995Y0639
X04855Y0638
X0497Y06255
X04988Y05183
X04991Y05069
X04996Y049
X05128Y01664
X05124Y01816
X05115Y02495
X05268Y02512
X05217Y02597
X0517Y02735
X0508Y0278
X0517Y02785
X0517Y0284
X05065Y02905
X0514Y03005
X05105Y03005
X05175Y03075
X05235Y03125
X05225Y0401
X05055Y05103
X0515Y0523
X05075Y0529
X0509Y0531
X05155Y05665
X05225Y05665
X05055Y05665
X05135Y05735
X05155Y0578
X0516Y0604
X0511Y06073
X0524Y0609
X052Y0612
X05153Y06233
X05078Y06306
X0515Y0642
X0511Y0646
X05205Y06485
X05145Y06525
X0508Y06534
X05175Y06535
X05075Y0656
X05225Y0685
X05175Y0685
X05139Y0722
X0525Y07225
X0505Y0726
X052Y07275
X0516Y07305
X052Y0731
X05124Y07337
X05265Y0745
X05155Y07465
X05225Y07585
X0521Y07635
X05155Y07655
X05325Y06875
X0541Y06775
X05405Y0578
X0535Y0578
X05375Y0536
X053Y0518
X0529Y0401
X0529Y0264
X0532Y0264
X05305Y0261
X05325Y0259
X0529Y0259
X0536Y0239
X054Y0166
T2C.01F095S3
X0259Y0206
X02445Y0224
X01065Y06985
X024Y07865
X02865Y0787
X0317Y0771
X0295Y0755
X02925Y0755
X03176Y0566
X0311Y0559
X03435Y0557
X03525Y0555
X0278Y05185
X0288Y02745
X02815Y02595
X02835Y0254
X0325Y0188
X03505Y0188
X03013Y01878
X05327Y01862
X05155Y07694
T3C.038F197S55
X012Y027
X011Y027
X013Y027
X012Y028
X011Y028
X013Y028
X011Y032
X012Y032
X013Y032
X012Y033
X011Y033
X013Y033
X012Y041
X013Y041
X012Y042
X013Y042
X012Y043
X013Y043
X012Y044
X013Y044
X013Y045
X012Y045
X013Y046
X012Y046
X013Y047
X012Y047
X013Y048
X012Y048
X013Y049
X012Y049
X013Y05
X012Y05
X013Y051
X012Y051
X012Y052
X013Y052
X012Y053
X013Y053
X013Y054
X012Y054
X012Y055
X013Y055
X012Y056
X013Y056
X0169Y0701
X017Y056
X017Y055
X017Y054
X017Y053
X017Y052
X017Y051
X017Y05
X017Y049
X017Y048
X017Y047
X017Y046
X017Y045
X017Y044
X017Y043
X017Y042
X017Y041
X017Y039
X017Y038
X017Y037
X017Y036
X017Y035
X017Y034
X017Y033
X017Y032
X017Y031
X017Y03
X017Y029
X017Y028
X017Y027
X017Y026
X017Y025
X017Y024
X017Y023
X017Y022
X017Y021
X017Y02
X018Y02
X018Y021
X018Y022
X018Y023
X018Y024
X018Y025
X018Y026
X018Y027
X018Y028
X018Y029
X018Y03
X018Y031
X018Y032
X018Y033
X018Y034
X018Y035
X018Y036
X018Y037
X018Y038
X018Y039
X018Y041
X018Y042
X018Y043
X018Y044
X018Y045
X018Y046
X018Y047
X018Y048
X018Y049
X018Y05
X018Y051
X018Y052
X018Y053
X018Y054
X018Y055
X018Y056
X018Y064
X019Y064
X018Y065
X019Y065
X0189Y0701
X0179Y0701
X023Y072
X024Y072
X024Y071
X023Y071
X023Y07
X023Y069
X023Y068
X023Y067
X023Y066
X023Y065
X023Y064
X023Y063
X021Y043
X022Y043
X023Y043
X021Y042
X023Y042
X022Y042
X026Y061
X027Y061
X027Y069
X026Y069
X03Y069
X028Y069
X027Y07
X028Y07
X03Y07
X026Y07
X029Y072
X03Y072
X033Y077
X034Y077
X037Y068
X038Y068
X038Y067
X037Y067
X038Y066
X037Y066
X03976Y05835
X03976Y05735
X04455Y059
X04355Y059
X04355Y06
X04455Y06
X04455Y061
X04355Y061
X04355Y062
X04455Y062
X041Y063
X041Y064
X041Y065
X041Y066
X045Y066
X044Y066
X045Y067
X044Y067
X041Y067
X041Y068
X041Y069
X041Y07
X041Y071
X041Y072
X05192Y04614
X05122Y04574
X05192Y04534
X05122Y04494
X05192Y04454
X05122Y04414
X05192Y04374
X05122Y04334
X05248Y03383
X05148Y03383
X05348Y03383
T4C.039F197S55
X014Y038
X013Y039
X011Y039
X0267Y053
X026Y072
X027Y072
X027Y073
X026Y073
X027Y074
X026Y074
X027Y075
X026Y075
X027Y076
X026Y076
X027Y077
X026Y077
X027Y078
X026Y078
X052Y023
X053Y023
T5C.039F197S55
X049295Y075305
X046295Y075705
X049295Y076105
T6C.03937F197S55
X019Y058504
X019Y061496
T7C.04F139S55
X023Y046
X024Y046
X023Y047
X024Y047
X023Y048
X024Y048
X023Y049
X024Y049
X023Y05
X024Y05
X023Y051
X024Y051
X023Y052
X024Y052
X023Y053
X024Y053
X023Y054
X024Y054
X023Y055
X024Y055
X033Y075
X034Y075
X035Y075
X036Y075
X037Y075
X034Y074
X036Y074
X033Y074
X037Y074
X035Y074
X04Y046
X041Y046
X04Y047
X041Y047
X041Y048
X04Y048
X04Y049
X041Y049
X041Y05
X04Y05
X041Y051
X04Y051
X04Y052
X041Y052
X04Y053
X041Y053
X04Y054
X041Y054
X041Y055
X04Y055
X039Y074
X04Y074
X038Y074
X041Y074
X042Y074
X04Y075
X039Y075
X041Y075
X038Y075
X042Y075
T8C.053F107S55
X048625Y0551
X048625Y0671
X054375Y0671
X054375Y0551
T9C.06299F089S55
X0121Y0679
T10C.065F089S55
X05157Y04154
X05157Y04794
T11C.07087F081S55
X013872Y0679
T12C.131F035S794
X05292Y04224
X05292Y04724
T13C.15F035S9
X022Y017
X012Y02
X022Y039
X012Y078
X053Y078
X049Y039
X053Y02
X049Y017
M30
