*
*
G04 PADS 9.4 Build Number: 491120 generated Gerber (RS-274-X) file*
G04 PC Version=2.1*
*
%IN "DK-TM4C129X_3.0.pcb"*%
*
%MOIN*%
*
%FSLAX35Y35*%
*
*
*
*
G04 PC Standard Apertures*
*
*
G04 Thermal Relief Aperture macro.*
%AMTER*
1,1,$1,0,0*
1,0,$1-$2,0,0*
21,0,$3,$4,0,0,45*
21,0,$3,$4,0,0,135*
%
*
*
G04 Annular Aperture macro.*
%AMANN*
1,1,$1,0,0*
1,0,$2,0,0*
%
*
*
G04 Odd Aperture macro.*
%AMODD*
1,1,$1,0,0*
1,0,$1-0.005,0,0*
%
*
*
G04 PC Custom Aperture Macros*
*
*
*
*
*
*
G04 PC Aperture Table*
*
%ADD010C,0.005*%
%ADD012C,0.01*%
%ADD013C,0.008*%
%ADD014C,0.012*%
%ADD015C,0.006*%
%ADD018C,0.015*%
%ADD020R,0.06X0.06*%
%ADD021C,0.06*%
%ADD036C,0.001*%
%ADD047C,0.02*%
%ADD054C,0.022*%
%ADD059C,0.018*%
%ADD065C,0.063*%
%ADD079R,0.07X0.07*%
%ADD080C,0.07*%
%ADD126C,0.07874*%
%ADD174R,0.03937X0.03543*%
%ADD179R,0.03543X0.03937*%
%ADD243C,0.004*%
%ADD288R,0.02756X0.01969*%
%ADD289R,0.01969X0.02756*%
%ADD296C,0.031*%
%ADD306O,0.07X0.085*%
%ADD309R,0.02362X0.03543*%
%ADD310R,0.03543X0.02362*%
%ADD320R,0.01969X0.01969*%
%ADD337C,0.053*%
%ADD339C,0.08661*%
%ADD367R,0.065X0.065*%
%ADD368C,0.065*%
%ADD372C,0.19*%
%ADD381R,0.01181X0.05118*%
%ADD382R,0.07087X0.08661*%
%ADD383R,0.02559X0.05315*%
%ADD400C,0.095*%
%ADD401C,0.14*%
%ADD402R,0.05X0.11*%
%ADD406C,0.131*%
*
*
*
*
G04 PC Circuitry*
G04 Layer Name DK-TM4C129X_3.0.pcb - circuitry*
%LPD*%
*
*
G04 PC Custom Flashes*
G04 Layer Name DK-TM4C129X_3.0.pcb - flashes*
%LPD*%
*
*
G04 PC Circuitry*
G04 Layer Name DK-TM4C129X_3.0.pcb - circuitry*
%LPD*%
*
G54D10*
G01X471500Y164281D02*
Y161000D01*
Y164281D02*
X470477D01*
X470136Y164125*
X470023Y163969*
X469909Y163656*
Y163344*
X470023Y163031*
X470136Y162875*
X470477Y162719*
X471500D02*
X470477D01*
X470136Y162563*
X470136D02*
X470023Y162406D01*
X469909Y162094*
Y161625*
X470023Y161313*
X470023D02*
X470136Y161156D01*
X470477Y161000*
X471500*
X468886Y164281D02*
Y161000D01*
Y164281D02*
X468091D01*
X467750Y164125*
X467523Y163813*
X467523D02*
X467409Y163500D01*
X467295Y163031*
Y162250*
X467409Y161781*
X467523Y161469*
X467750Y161156*
X468091Y161000*
X468886*
X466273Y162406D02*
X464227D01*
X462409Y164281D02*
Y161000D01*
X463205Y164281D02*
X461614D01*
X460591D02*
Y161000D01*
Y164281D02*
X459682Y161000D01*
X458773Y164281D02*
X459682Y161000D01*
X458773Y164281D02*
Y161000D01*
X456614Y164281D02*
X457750Y162094D01*
X456045*
X456614Y164281D02*
Y161000D01*
X453318Y163500D02*
X453432Y163813D01*
X453432D02*
X453659Y164125D01*
X453886Y164281*
X454341*
X454568Y164125*
X454795Y163813*
X454795D02*
X454909Y163500D01*
X455023Y163031*
Y162250*
X454909Y161781*
X454795Y161469*
X454568Y161156*
X454341Y161000*
X453886*
X453659Y161156*
X453432Y161469*
X453318Y161781*
X452295Y163656D02*
X452068Y163813D01*
X452068D02*
X451727Y164281D01*
Y161000*
X450591Y163500D02*
Y163656D01*
X450477Y163969*
X450364Y164125*
X450136Y164281*
X449682*
X449455Y164125*
X449341Y163969*
X449227Y163656*
Y163344*
X449341Y163031*
X449568Y162563*
X449568D02*
X450705Y161000D01*
X449114*
X446614Y163188D02*
X446727Y162719D01*
X446955Y162406*
X447295Y162250*
X447409*
X447750Y162406*
X447977Y162719*
X448091Y163188*
X448091D02*
Y163344D01*
X447977Y163813*
X447977D02*
X447750Y164125D01*
X447409Y164281*
X447295*
X446955Y164125*
X446727Y163813*
X446727D02*
X446614Y163188D01*
X446614D02*
Y162406D01*
X446727Y161625*
X446955Y161156*
X447295Y161000*
X447523*
X447864Y161156*
X447977Y161469*
X445591Y164281D02*
X444000Y161000D01*
Y164281D02*
X445591Y161000D01*
X440364Y164281D02*
Y161000D01*
Y164281D02*
X439341D01*
X439000Y164125*
X438886Y163969*
X438773Y163656*
Y163344*
X438886Y163031*
X439000Y162875*
X439341Y162719*
X440364*
X439568D02*
X438773Y161000D01*
X437750Y164281D02*
Y161000D01*
Y164281D02*
X436273D01*
X437750Y162719D02*
X436841D01*
X437750Y161000D02*
X436273D01*
X435250Y164281D02*
X434341Y161000D01*
X433432Y164281D02*
X434341Y161000D01*
X429568Y164281D02*
X428318D01*
X429000Y163031*
X428659*
X428432Y162875*
X428318Y162719*
X428205Y162250*
Y161938*
X428205D02*
X428318Y161469D01*
X428545Y161156*
X428886Y161000*
X429227*
X429568Y161156*
X429682Y161313*
X429682D02*
X429795Y161625D01*
X427068Y161313D02*
X427182Y161156D01*
X427068Y161000*
X426955Y161156*
X427068Y161313*
X425250Y164281D02*
X425591Y164125D01*
X425818Y163656*
X425932Y162875*
Y162406*
X425818Y161625*
X425591Y161156*
X425250Y161000*
X425023*
X424682Y161156*
X424455Y161625*
X424341Y162406*
Y162875*
X424455Y163656*
X424682Y164125*
X425023Y164281*
X425250*
X486500Y187781D02*
Y184500D01*
Y187781D02*
X487523D01*
X487864Y187625*
X487977Y187469*
X488091Y187156*
Y186844*
X487977Y186531*
X487864Y186375*
X487523Y186219*
X486500D02*
X487523D01*
X487864Y186063*
X487864D02*
X487977Y185906D01*
X488091Y185594*
Y185125*
X487977Y184813*
X487977D02*
X487864Y184656D01*
X487523Y184500*
X486500*
X489795Y187781D02*
X489568Y187625D01*
X489341Y187313*
X489341D02*
X489227Y187000D01*
X489114Y186531*
Y185750*
X489227Y185281*
X489341Y184969*
X489568Y184656*
X489795Y184500*
X490250*
X490477Y184656*
X490705Y184969*
X490818Y185281*
X490932Y185750*
Y186531*
X490818Y187000*
X490705Y187313*
X490705D02*
X490477Y187625D01*
X490250Y187781*
X489795*
X492750D02*
Y184500D01*
X491955Y187781D02*
X493545D01*
X470409Y171313D02*
X470636Y171625D01*
X470977Y171781*
X471432*
X471773Y171625*
X472000Y171313*
X472000D02*
Y171000D01*
X471886Y170688*
X471886D02*
X471773Y170531D01*
X471545Y170375*
X470864Y170063*
X470864D02*
X470636Y169906D01*
X470523Y169750*
X470409Y169438*
X470409D02*
Y168969D01*
X470636Y168656*
X470977Y168500*
X471432*
X471773Y168656*
X472000Y168969*
X469386Y171781D02*
Y168500D01*
X468023*
X465864Y171781D02*
Y169281D01*
X465977Y168813*
X465977D02*
X466091Y168656D01*
X466318Y168500*
X466545*
X466773Y168656*
X466886Y168813*
X466886D02*
X467000Y169281D01*
Y169594*
X307900Y100450D02*
X332900D01*
X357900Y75450D02*
X360400D01*
X247900Y96778D02*
Y93497D01*
Y96778D02*
X248923D01*
X249264Y96622*
X249377Y96466*
X249491Y96153*
Y95841*
X249377Y95528*
X249264Y95372*
X248923Y95216*
X247900*
X248695D02*
X249491Y93497D01*
X250514Y94747D02*
X251877D01*
Y95059*
X251764Y95372*
X251650Y95528*
X251423Y95684*
X251082*
X250855Y95528*
X250627Y95216*
X250514Y94747*
Y94434*
X250627Y93966*
X250855Y93653*
X251082Y93497*
X251423*
X251650Y93653*
X251877Y93966*
X252900Y95684D02*
X253582Y93497D01*
X254264Y95684D02*
X253582Y93497D01*
X255400Y93809D02*
X255286Y93653D01*
X255400Y93497*
X255514Y93653*
X255400Y93809*
X120400Y96778D02*
Y93497D01*
Y96778D02*
X121423D01*
X121764Y96622*
X121877Y96466*
X121991Y96153*
Y95841*
X121877Y95528*
X121764Y95372*
X121423Y95216*
X120400D02*
X121423D01*
X121764Y95059*
X121877Y94903*
X121991Y94591*
Y94122*
X121877Y93809*
X121764Y93653*
X121423Y93497*
X120400*
X123582Y95684D02*
X123355Y95528D01*
X123127Y95216*
X123014Y94747*
Y94434*
X123127Y93966*
X123355Y93653*
X123582Y93497*
X123923*
X124150Y93653*
X124377Y93966*
X124491Y94434*
Y94747*
X124377Y95216*
X124150Y95528*
X123923Y95684*
X123582*
X126877D02*
Y93497D01*
Y95216D02*
X126650Y95528D01*
X126423Y95684*
X126082*
X125855Y95528*
X125627Y95216*
X125514Y94747*
Y94434*
X125627Y93966*
X125855Y93653*
X126082Y93497*
X126423*
X126650Y93653*
X126877Y93966*
X127900Y95684D02*
Y93497D01*
Y94747D02*
X128014Y95216D01*
X128241Y95528*
X128468Y95684*
X128809*
X131195Y96778D02*
Y93497D01*
Y95216D02*
X130968Y95528D01*
X130741Y95684*
X130400*
X130173Y95528*
X129945Y95216*
X129832Y94747*
Y94434*
X129945Y93966*
X130173Y93653*
X130400Y93497*
X130741*
X130968Y93653*
X131195Y93966*
X134832Y96778D02*
Y93497D01*
Y96778D02*
X136423Y93497D01*
Y96778D02*
Y93497D01*
X138014Y95684D02*
X137786Y95528D01*
X137559Y95216*
X137445Y94747*
Y94434*
X137559Y93966*
X137786Y93653*
X138014Y93497*
X138355*
X138582Y93653*
X138809Y93966*
X138923Y94434*
Y94747*
X138809Y95216*
X138582Y95528*
X138355Y95684*
X138014*
X140059Y93809D02*
X139945Y93653D01*
X140059Y93497*
X140173Y93653*
X140059Y93809*
X117900Y71778D02*
Y68497D01*
Y71778D02*
X118695D01*
X119036Y71622*
X119264Y71309*
X119377Y70997*
X119491Y70528*
Y69747*
X119377Y69278*
X119264Y68966*
X119036Y68653*
X118695Y68497*
X117900*
X121877Y70684D02*
Y68497D01*
Y70216D02*
X121650Y70528D01*
X121423Y70684*
X121082*
X120855Y70528*
X120627Y70216*
X120514Y69747*
Y69434*
X120627Y68966*
X120855Y68653*
X121082Y68497*
X121423*
X121650Y68653*
X121877Y68966*
X123241Y71778D02*
Y69122D01*
X123355Y68653*
X123582Y68497*
X123809*
X122900Y70684D02*
X123695D01*
X124832Y69747D02*
X126195D01*
Y70059*
X126082Y70372*
X125968Y70528*
X125741Y70684*
X125400*
X125173Y70528*
X124945Y70216*
X124832Y69747*
Y69434*
X124945Y68966*
X125173Y68653*
X125400Y68497*
X125741*
X125968Y68653*
X126195Y68966*
X127332Y70684D02*
X127218Y70528D01*
X127332Y70372*
X127445Y70528*
X127332Y70684*
Y68809D02*
X127218Y68653D01*
X127332Y68497*
X127445Y68653*
X127332Y68809*
X177400Y71778D02*
Y68497D01*
Y71778D02*
X178877D01*
X177400Y70216D02*
X178309D01*
X179900Y71778D02*
X180014Y71622D01*
X180127Y71778*
X180014Y71934*
X179900Y71778*
X180014Y70684D02*
Y68497D01*
X181150Y71778D02*
Y68497D01*
X182173Y69747D02*
X183536D01*
Y70059*
X183423Y70372*
X183309Y70528*
X183082Y70684*
X182741*
X182514Y70528*
X182286Y70216*
X182173Y69747*
Y69434*
X182286Y68966*
X182514Y68653*
X182741Y68497*
X183082*
X183309Y68653*
X183536Y68966*
X184559Y70684D02*
Y68497D01*
Y70059D02*
X184900Y70528D01*
X185127Y70684*
X185468*
X185695Y70528*
X185809Y70059*
Y68497*
X188195Y70684D02*
Y68497D01*
Y70216D02*
X187968Y70528D01*
X187741Y70684*
X187400*
X187173Y70528*
X186945Y70216*
X186832Y69747*
Y69434*
X186945Y68966*
X187173Y68653*
X187400Y68497*
X187741*
X187968Y68653*
X188195Y68966*
X189218Y70684D02*
Y68497D01*
Y70059D02*
X189559Y70528D01*
X189786Y70684*
X190127*
X190355Y70528*
X190468Y70059*
Y68497*
Y70059D02*
X190809Y70528D01*
X191036Y70684*
X191377*
X191605Y70528*
X191718Y70059*
Y68497*
X192741Y69747D02*
X194105D01*
Y70059*
X193991Y70372*
X193877Y70528*
X193650Y70684*
X193309*
X193082Y70528*
X192855Y70216*
X192741Y69747*
Y69434*
X192855Y68966*
X193082Y68653*
X193309Y68497*
X193650*
X193877Y68653*
X194105Y68966*
X195241Y70684D02*
X195127Y70528D01*
X195241Y70372*
X195355Y70528*
X195241Y70684*
Y68809D02*
X195127Y68653D01*
X195241Y68497*
X195355Y68653*
X195241Y68809*
X347400Y71778D02*
Y68497D01*
Y71778D02*
X348423D01*
X348764Y71622*
X348877Y71466*
X348991Y71153*
Y70684*
X348877Y70372*
X348764Y70216*
X348423Y70059*
X347400*
X351718Y70997D02*
X351605Y71309D01*
X351377Y71622*
X351150Y71778*
X350695*
X350468Y71622*
X350241Y71309*
X350127Y70997*
X350014Y70528*
Y69747*
X350127Y69278*
X350241Y68966*
X350468Y68653*
X350695Y68497*
X351150*
X351377Y68653*
X351605Y68966*
X351718Y69278*
X352741Y71778D02*
Y68497D01*
Y71778D02*
X353764D01*
X354105Y71622*
X354218Y71466*
X354332Y71153*
Y70841*
X354218Y70528*
X354105Y70372*
X353764Y70216*
X352741D02*
X353764D01*
X354105Y70059*
X354218Y69903*
X354332Y69591*
Y69122*
X354218Y68809*
X354105Y68653*
X353764Y68497*
X352741*
X357968Y71778D02*
Y68497D01*
Y71778D02*
X358764D01*
X359105Y71622*
X359332Y71309*
X359445Y70997*
X359559Y70528*
Y69747*
X359445Y69278*
X359332Y68966*
X359105Y68653*
X358764Y68497*
X357968*
X361832Y70216D02*
X361718Y70528D01*
X361377Y70684*
X361036*
X360695Y70528*
X360582Y70216*
X360695Y69903*
X360923Y69747*
X361491Y69591*
X361718Y69434*
X361832Y69122*
Y68966*
X361718Y68653*
X361377Y68497*
X361036*
X360695Y68653*
X360582Y68966*
X364218Y70684D02*
Y68184D01*
X364105Y67716*
X363991Y67559*
X363764Y67403*
X363423*
X363195Y67559*
X364218Y70216D02*
X363991Y70528D01*
X363764Y70684*
X363423*
X363195Y70528*
X362968Y70216*
X362855Y69747*
Y69434*
X362968Y68966*
X363195Y68653*
X363423Y68497*
X363764*
X363991Y68653*
X364218Y68966*
X365241Y70684D02*
Y68497D01*
Y70059D02*
X365582Y70528D01*
X365809Y70684*
X366150*
X366377Y70528*
X366491Y70059*
Y68497*
X367514Y70684D02*
Y68497D01*
Y69747D02*
X367627Y70216D01*
X367855Y70528*
X368082Y70684*
X368423*
X369559D02*
X369445Y70528D01*
X369559Y70372*
X369673Y70528*
X369559Y70684*
Y68809D02*
X369445Y68653D01*
X369559Y68497*
X369673Y68653*
X369559Y68809*
X422400Y71778D02*
Y68497D01*
Y71778D02*
X423309Y68497D01*
X424218Y71778D02*
X423309Y68497D01*
X424218Y71778D02*
Y68497D01*
X425809Y70684D02*
X425582Y70528D01*
X425355Y70216*
X425241Y69747*
Y69434*
X425355Y68966*
X425582Y68653*
X425809Y68497*
X426150*
X426377Y68653*
X426605Y68966*
X426718Y69434*
Y69747*
X426605Y70216*
X426377Y70528*
X426150Y70684*
X425809*
X429105Y71778D02*
Y68497D01*
Y70216D02*
X428877Y70528D01*
X428650Y70684*
X428309*
X428082Y70528*
X427855Y70216*
X427741Y69747*
Y69434*
X427855Y68966*
X428082Y68653*
X428309Y68497*
X428650*
X428877Y68653*
X429105Y68966*
X430127Y71778D02*
X430241Y71622D01*
X430355Y71778*
X430241Y71934*
X430127Y71778*
X430241Y70684D02*
Y68497D01*
X432286Y71778D02*
X432059D01*
X431832Y71622*
X431718Y71153*
Y68497*
X431377Y70684D02*
X432173D01*
X433309Y71778D02*
X433423Y71622D01*
X433536Y71778*
X433423Y71934*
X433309Y71778*
X433423Y70684D02*
Y68497D01*
X434559Y69747D02*
X435923D01*
Y70059*
X435809Y70372*
X435695Y70528*
X435468Y70684*
X435127*
X434900Y70528*
X434673Y70216*
X434559Y69747*
Y69434*
X434673Y68966*
X434900Y68653*
X435127Y68497*
X435468*
X435695Y68653*
X435923Y68966*
X438309Y71778D02*
Y68497D01*
Y70216D02*
X438082Y70528D01*
X437855Y70684*
X437514*
X437286Y70528*
X437059Y70216*
X436945Y69747*
Y69434*
X437059Y68966*
X437286Y68653*
X437514Y68497*
X437855*
X438082Y68653*
X438309Y68966*
X441945Y71778D02*
Y68497D01*
Y71778D02*
X442741D01*
X443082Y71622*
X443309Y71309*
X443423Y70997*
X443536Y70528*
Y69747*
X443423Y69278*
X443309Y68966*
X443082Y68653*
X442741Y68497*
X441945*
X445923Y70684D02*
Y68497D01*
Y70216D02*
X445695Y70528D01*
X445468Y70684*
X445127*
X444900Y70528*
X444673Y70216*
X444559Y69747*
Y69434*
X444673Y68966*
X444900Y68653*
X445127Y68497*
X445468*
X445695Y68653*
X445923Y68966*
X447286Y71778D02*
Y69122D01*
X447400Y68653*
X447627Y68497*
X447855*
X446945Y70684D02*
X447741D01*
X448877Y69747D02*
X450241D01*
Y70059*
X450127Y70372*
X450014Y70528*
X449786Y70684*
X449445*
X449218Y70528*
X448991Y70216*
X448877Y69747*
Y69434*
X448991Y68966*
X449218Y68653*
X449445Y68497*
X449786*
X450014Y68653*
X450241Y68966*
X451377Y70684D02*
X451264Y70528D01*
X451377Y70372*
X451491Y70528*
X451377Y70684*
Y68809D02*
X451264Y68653D01*
X451377Y68497*
X451491Y68653*
X451377Y68809*
X587491Y71809D02*
X587264Y72122D01*
X586923Y72278*
X586468*
X586127Y72122*
X585900Y71809*
Y71497*
X586014Y71184*
X586127Y71028*
X586355Y70872*
X587036Y70559*
X587264Y70403*
X587377Y70247*
X587491Y69934*
Y69466*
X587264Y69153*
X586923Y68997*
X586468*
X586127Y69153*
X585900Y69466*
X589082Y71184D02*
X588855Y71028D01*
X588627Y70716*
X588514Y70247*
Y69934*
X588627Y69466*
X588855Y69153*
X589082Y68997*
X589423*
X589650Y69153*
X589877Y69466*
X589991Y69934*
Y70247*
X589877Y70716*
X589650Y71028*
X589423Y71184*
X589082*
X591923Y72278D02*
X591695D01*
X591468Y72122*
X591355Y71653*
Y68997*
X591014Y71184D02*
X591809D01*
X593286Y72278D02*
Y69622D01*
X593400Y69153*
X593627Y68997*
X593855*
X592945Y71184D02*
X593741D01*
X594877D02*
X595332Y68997D01*
X595786Y71184D02*
X595332Y68997D01*
X595786Y71184D02*
X596241Y68997D01*
X596695Y71184D02*
X596241Y68997D01*
X599082Y71184D02*
Y68997D01*
Y70716D02*
X598855Y71028D01*
X598627Y71184*
X598286*
X598059Y71028*
X597832Y70716*
X597718Y70247*
Y69934*
X597832Y69466*
X598059Y69153*
X598286Y68997*
X598627*
X598855Y69153*
X599082Y69466*
X600105Y71184D02*
Y68997D01*
Y70247D02*
X600218Y70716D01*
X600445Y71028*
X600673Y71184*
X601014*
X602036Y70247D02*
X603400D01*
Y70559*
X603286Y70872*
X603173Y71028*
X602945Y71184*
X602605*
X602377Y71028*
X602150Y70716*
X602036Y70247*
Y69934*
X602150Y69466*
X602377Y69153*
X602605Y68997*
X602945*
X603173Y69153*
X603400Y69466*
X268900Y71778D02*
Y68497D01*
Y71778D02*
X270377D01*
X268900Y70216D02*
X269809D01*
X268900Y68497D02*
X270377D01*
X271400Y70684D02*
Y68497D01*
Y70059D02*
X271741Y70528D01*
X271968Y70684*
X272309*
X272536Y70528*
X272650Y70059*
Y68497*
X275036Y70684D02*
Y68184D01*
X274923Y67716*
X274809Y67559*
X274582Y67403*
X274241*
X274014Y67559*
X275036Y70216D02*
X274809Y70528D01*
X274582Y70684*
X274241*
X274014Y70528*
X273786Y70216*
X273673Y69747*
Y69434*
X273786Y68966*
X274014Y68653*
X274241Y68497*
X274582*
X274809Y68653*
X275036Y68966*
X276059Y71778D02*
X276173Y71622D01*
X276286Y71778*
X276173Y71934*
X276059Y71778*
X276173Y70684D02*
Y68497D01*
X277309Y70684D02*
Y68497D01*
Y70059D02*
X277650Y70528D01*
X277877Y70684*
X278218*
X278445Y70528*
X278559Y70059*
Y68497*
X279582Y69747D02*
X280945D01*
Y70059*
X280832Y70372*
X280718Y70528*
X280491Y70684*
X280150*
X279923Y70528*
X279695Y70216*
X279582Y69747*
Y69434*
X279695Y68966*
X279923Y68653*
X280150Y68497*
X280491*
X280718Y68653*
X280945Y68966*
X281968Y69747D02*
X283332D01*
Y70059*
X283218Y70372*
X283105Y70528*
X282877Y70684*
X282536*
X282309Y70528*
X282082Y70216*
X281968Y69747*
Y69434*
X282082Y68966*
X282309Y68653*
X282536Y68497*
X282877*
X283105Y68653*
X283332Y68966*
X284355Y70684D02*
Y68497D01*
Y69747D02*
X284468Y70216D01*
X284695Y70528*
X284923Y70684*
X285264*
X286400D02*
X286286Y70528D01*
X286400Y70372*
X286514Y70528*
X286400Y70684*
Y68809D02*
X286286Y68653D01*
X286400Y68497*
X286514Y68653*
X286400Y68809*
G54D12*
X172500Y183000D02*
X179500Y176000D01*
Y153500*
X517000Y273500D02*
X521700Y268800D01*
Y259700*
X494654Y432400D02*
Y422400D01*
X495600*
X493054Y448400D02*
Y441200D01*
X494654Y439600*
Y432400*
X249700Y611395D02*
Y545864D01*
X250000Y545564*
Y530000*
X249700Y611395D02*
X251000Y612695D01*
Y640500*
X179000Y692053D02*
Y701000D01*
X474500Y690000D02*
Y692200D01*
X477300Y695000*
Y695044*
X480456Y698200*
Y709404*
X471228Y733000D02*
Y735367D01*
X472000Y737000*
X471228Y733000D02*
Y726272D01*
X480150Y717350*
Y709710*
X480456Y709404*
X175900Y60450D02*
Y75450D01*
X266400Y60450D02*
Y75450D01*
X344900D02*
Y60450D01*
X419900Y75450D02*
Y60450D01*
X332900Y115450D02*
Y75450D01*
X357900Y100450D02*
Y75450D01*
X382900Y100450D02*
Y75450D01*
X407900Y100450D02*
Y75450D01*
X482900Y115450D02*
Y75450D01*
X532900Y115450D02*
Y75450D01*
X457900Y115450D02*
X607900D01*
X307900Y100450D02*
X507900D01*
X657900D02*
X457900D01*
Y75450*
X307900Y115450D02*
X507900D01*
Y75450*
X582900Y115450D02*
Y75450D01*
Y75950*
Y60950*
X432900Y115450D02*
Y75450D01*
Y100450*
X251355Y90013D02*
X253855D01*
X253855D02*
X252491Y87513D01*
X252491D02*
X253173D01*
X253173D02*
X253627Y87200D01*
X253855Y86888*
X253855D02*
X254082Y85950D01*
Y85325*
X253855Y84388*
X253855D02*
X253400Y83763D01*
X253400D02*
X252718Y83450D01*
X252036*
X251355Y83763*
X251355D02*
X251127Y84075D01*
X250900Y84700*
X256355Y84075D02*
X256127Y83763D01*
X256127D02*
X256355Y83450D01*
X256582Y83763*
X256582D02*
X256355Y84075D01*
X259991Y90013D02*
X259309Y89700D01*
X258855Y88763*
X258855D02*
X258627Y87200D01*
Y86263*
X258627D02*
X258855Y84700D01*
X259309Y83763*
X259309D02*
X259991Y83450D01*
X260445*
X261127Y83763*
X261127D02*
X261582Y84700D01*
X261809Y86263*
X261809D02*
Y87200D01*
X261582Y88763*
X261582D02*
X261127Y89700D01*
X260445Y90013*
X260445D02*
X259991D01*
X145900D02*
Y83450D01*
Y90013D02*
X147945D01*
X147945D02*
X148627Y89700D01*
X148855Y89388*
X148855D02*
X149082Y88763D01*
X149082D02*
Y88138D01*
X149082D02*
X148855Y87513D01*
X148855D02*
X148627Y87200D01*
X147945Y86888*
X145900D02*
X147945D01*
X147945D02*
X148627Y86575D01*
X148855Y86263*
X148855D02*
X149082Y85638D01*
X149082D02*
Y84700D01*
X148855Y84075*
X148627Y83763*
X148627D02*
X147945Y83450D01*
X145900*
X151127Y90013D02*
Y83450D01*
Y90013D02*
X152718D01*
X152718D02*
X153400Y89700D01*
X153855Y89075*
X154082Y88450*
X154309Y87513*
X154309D02*
Y85950D01*
X154082Y85013*
X154082D02*
X153855Y84388D01*
X153855D02*
X153400Y83763D01*
X153400D02*
X152718Y83450D01*
X151127*
X156355Y86263D02*
X160445D01*
X164082Y90013D02*
Y83450D01*
X162491Y90013D02*
X165673D01*
X167718D02*
Y83450D01*
Y90013D02*
X169536Y83450D01*
X171355Y90013D02*
X169536Y83450D01*
X171355Y90013D02*
Y83450D01*
X175673Y90013D02*
X173400Y85638D01*
X173400D02*
X176809D01*
X175673Y90013D02*
Y83450D01*
X182264Y88450D02*
X182036Y89075D01*
X181582Y89700*
X181127Y90013*
X181127D02*
X180218D01*
X180218D02*
X179764Y89700D01*
X179309Y89075*
X179082Y88450*
X178855Y87513*
X178855D02*
Y85950D01*
X179082Y85013*
X179082D02*
X179309Y84388D01*
X179309D02*
X179764Y83763D01*
X179764D02*
X180218Y83450D01*
X181127*
X181582Y83763*
X181582D02*
X182036Y84388D01*
X182036D02*
X182264Y85013D01*
X184309Y88763D02*
X184764Y89075D01*
X185445Y90013*
X185445D02*
Y83450D01*
X187718Y88450D02*
Y88763D01*
X187718D02*
X187945Y89388D01*
X187945D02*
X188173Y89700D01*
X188627Y90013*
X188627D02*
X189536D01*
X189536D02*
X189991Y89700D01*
X190218Y89388*
X190218D02*
X190445Y88763D01*
X190445D02*
Y88138D01*
X190445D02*
X190218Y87513D01*
X190218D02*
X189764Y86575D01*
X187491Y83450*
X190673*
X195673Y87825D02*
X195445Y86888D01*
X195445D02*
X194991Y86263D01*
X194991D02*
X194309Y85950D01*
X194082*
X193400Y86263*
X193400D02*
X192945Y86888D01*
X192945D02*
X192718Y87825D01*
Y88138*
X192718D02*
X192945Y89075D01*
X193400Y89700*
X194082Y90013*
X194082D02*
X194309D01*
X194309D02*
X194991Y89700D01*
X195445Y89075*
X195673Y87825*
Y86263*
X195673D02*
X195445Y84700D01*
X194991Y83763*
X194991D02*
X194309Y83450D01*
X193855*
X193173Y83763*
X193173D02*
X192945Y84388D01*
X197718Y90013D02*
X200900Y83450D01*
Y90013D02*
X197718Y83450D01*
X314559Y110606D02*
Y104044D01*
X312968Y110606D02*
X316150D01*
X319332Y108419D02*
X318877Y108106D01*
X318423Y107481*
X318195Y106544*
Y105919*
X318423Y104981*
X318877Y104356*
X319332Y104044*
X320014*
X320468Y104356*
X320923Y104981*
X321150Y105919*
Y106544*
X320923Y107481*
X320468Y108106*
X320014Y108419*
X319332*
X323195D02*
Y101856D01*
Y107481D02*
X323650Y108106D01*
X324105Y108419*
X324786*
X325241Y108106*
X325695Y107481*
X325923Y106544*
Y105919*
X325695Y104981*
X325241Y104356*
X324786Y104044*
X324105*
X323650Y104356*
X323195Y104981*
X437400Y110606D02*
Y104044D01*
Y110606D02*
X439445D01*
X440127Y110294*
X440355Y109981*
X440582Y109356*
Y108731*
X440355Y108106*
X440127Y107794*
X439445Y107481*
X437400D02*
X439445D01*
X440127Y107169*
X440355Y106856*
X440582Y106231*
Y105294*
X440355Y104669*
X440127Y104356*
X439445Y104044*
X437400*
X443991Y110606D02*
X443536Y110294D01*
X443082Y109669*
X442855Y109044*
X442627Y108106*
Y106544*
X442855Y105606*
X443082Y104981*
X443536Y104356*
X443991Y104044*
X444900*
X445355Y104356*
X445809Y104981*
X446036Y105606*
X446264Y106544*
Y108106*
X446036Y109044*
X445809Y109669*
X445355Y110294*
X444900Y110606*
X443991*
X449900D02*
Y104044D01*
X448309Y110606D02*
X451491D01*
X463991D02*
Y104044D01*
X462400Y110606D02*
X465582D01*
X468991D02*
X468536Y110294D01*
X468082Y109669*
X467855Y109044*
X467627Y108106*
Y106544*
X467855Y105606*
X468082Y104981*
X468536Y104356*
X468991Y104044*
X469900*
X470355Y104356*
X470809Y104981*
X471036Y105606*
X471264Y106544*
Y108106*
X471036Y109044*
X470809Y109669*
X470355Y110294*
X469900Y110606*
X468991*
X473309D02*
Y104044D01*
Y110606D02*
X475355D01*
X476036Y110294*
X476264Y109981*
X476491Y109356*
Y108419*
X476264Y107794*
X476036Y107481*
X475355Y107169*
X473309*
X487400Y110606D02*
Y104044D01*
Y110606D02*
X489445D01*
X490127Y110294*
X490355Y109981*
X490582Y109356*
Y108731*
X490355Y108106*
X490127Y107794*
X489445Y107481*
X487400D02*
X489445D01*
X490127Y107169*
X490355Y106856*
X490582Y106231*
Y105294*
X490355Y104669*
X490127Y104356*
X489445Y104044*
X487400*
X493991Y110606D02*
X493536Y110294D01*
X493082Y109669*
X492855Y109044*
X492627Y108106*
Y106544*
X492855Y105606*
X493082Y104981*
X493536Y104356*
X493991Y104044*
X494900*
X495355Y104356*
X495809Y104981*
X496036Y105606*
X496264Y106544*
Y108106*
X496036Y109044*
X495809Y109669*
X495355Y110294*
X494900Y110606*
X493991*
X499900D02*
Y104044D01*
X498309Y110606D02*
X501491D01*
X524524Y126367D02*
Y120395D01*
Y126367D02*
X526178Y120395D01*
X527833Y126367D02*
X526178Y120395D01*
X527833Y126367D02*
Y120395D01*
X532176Y124377D02*
Y120395D01*
Y123523D02*
X531762Y124092D01*
X531762D02*
X531349Y124377D01*
X530728*
X530315Y124092*
X529901Y123523*
X529694Y122670*
Y122102*
X529901Y121248*
X530315Y120680*
X530728Y120395*
X531349*
X531762Y120680*
X531762D02*
X532176Y121248D01*
X536312Y123523D02*
X536106Y124092D01*
X535485Y124377*
X534865*
X534244Y124092*
X534037Y123523*
X534037D02*
X534244Y122955D01*
X534658Y122670*
X535692Y122386*
X536106Y122102*
X536312Y121533*
X536312D02*
Y121248D01*
X536312D02*
X536106Y120680D01*
X535485Y120395*
X534865*
X534244Y120680*
X534037Y121248*
X538174Y126367D02*
Y120395D01*
X540242Y124377D02*
X538174Y121533D01*
X539001Y122670D02*
X540449Y120395D01*
X587400Y110606D02*
Y104044D01*
Y110606D02*
X589445D01*
X590127Y110294*
X590355Y109981*
X590582Y109356*
Y108731*
X590355Y108106*
X590127Y107794*
X589445Y107481*
X587400D02*
X589445D01*
X590127Y107169*
X590355Y106856*
X590582Y106231*
Y105294*
X590355Y104669*
X590127Y104356*
X589445Y104044*
X587400*
X593991Y110606D02*
X593536Y110294D01*
X593082Y109669*
X592855Y109044*
X592627Y108106*
Y106544*
X592855Y105606*
X593082Y104981*
X593536Y104356*
X593991Y104044*
X594900*
X595355Y104356*
X595809Y104981*
X596036Y105606*
X596264Y106544*
Y108106*
X596036Y109044*
X595809Y109669*
X595355Y110294*
X594900Y110606*
X593991*
X599900D02*
Y104044D01*
X598309Y110606D02*
X601491D01*
X371741D02*
Y104044D01*
X373786Y108419D02*
Y104044D01*
Y107169D02*
X374468Y108106D01*
X374923Y108419*
X375605*
X376059Y108106*
X376286Y107169*
Y104044*
X379014Y110606D02*
Y105294D01*
X379241Y104356*
X379695Y104044*
X380150*
X378332Y108419D02*
X379923D01*
X382195Y106544D02*
X384923D01*
Y107169*
X384695Y107794*
X384468Y108106*
X384014Y108419*
X383332*
X382877Y108106*
X382423Y107481*
X382195Y106544*
Y105919*
X382423Y104981*
X382877Y104356*
X383332Y104044*
X384014*
X384468Y104356*
X384923Y104981*
X386968Y108419D02*
Y104044D01*
Y106544D02*
X387195Y107481D01*
X387650Y108106*
X388105Y108419*
X388786*
X390832D02*
Y104044D01*
Y107169D02*
X391514Y108106D01*
X391968Y108419*
X392650*
X393105Y108106*
X393332Y107169*
Y104044*
X398105Y108419D02*
Y104044D01*
Y107481D02*
X397650Y108106D01*
X397195Y108419*
X396514*
X396059Y108106*
X395605Y107481*
X395377Y106544*
Y105919*
X395605Y104981*
X396059Y104356*
X396514Y104044*
X397195*
X397650Y104356*
X398105Y104981*
X400150Y110606D02*
Y104044D01*
X513991Y110606D02*
Y104044D01*
X512400Y110606D02*
X515582D01*
X518991D02*
X518536Y110294D01*
X518082Y109669*
X517855Y109044*
X517627Y108106*
Y106544*
X517855Y105606*
X518082Y104981*
X518536Y104356*
X518991Y104044*
X519900*
X520355Y104356*
X520809Y104981*
X521036Y105606*
X521264Y106544*
Y108106*
X521036Y109044*
X520809Y109669*
X520355Y110294*
X519900Y110606*
X518991*
X523309D02*
Y104044D01*
Y110606D02*
X525355D01*
X526036Y110294*
X526264Y109981*
X526491Y109356*
Y108419*
X526264Y107794*
X526036Y107481*
X525355Y107169*
X523309*
X466889Y124514D02*
X466475Y125083D01*
X465855Y125367*
X465027*
X464407Y125083*
X463993Y124514*
Y123945*
X464200Y123377*
X464407Y123092*
X464820Y122808*
X466061Y122239*
X466475Y121955*
X466682Y121670*
X466889Y121102*
Y120248*
X466475Y119680*
X465855Y119395*
X465027*
X464407Y119680*
X463993Y120248*
X468750Y125367D02*
X468957Y125083D01*
X469164Y125367*
X468957Y125652*
X468750Y125367*
X468957Y123377D02*
Y119395D01*
X471025Y125367D02*
Y119395D01*
X472886Y125367D02*
Y119395D01*
X474955Y123377D02*
X472886Y120533D01*
X473714Y121670D02*
X475161Y119395D01*
X479298Y122523D02*
X479091Y123092D01*
X478470Y123377*
X477850*
X477230Y123092*
X477023Y122523*
X477230Y121955*
X477643Y121670*
X478677Y121386*
X479091Y121102*
X479298Y120533*
Y120248*
X479091Y119680*
X478470Y119395*
X477850*
X477230Y119680*
X477023Y120248*
X483641Y122523D02*
X483227Y123092D01*
X482814Y123377*
X482193*
X481780Y123092*
X481366Y122523*
X481159Y121670*
Y121102*
X481366Y120248*
X481780Y119680*
X482193Y119395*
X482814*
X483227Y119680*
X483641Y120248*
X485502Y123377D02*
Y119395D01*
Y121670D02*
X485709Y122523D01*
X486123Y123092*
X486536Y123377*
X487157*
X489018Y121670D02*
X491500D01*
Y122239*
X491293Y122808*
X491086Y123092*
X490673Y123377*
X490052*
X489639Y123092*
X489225Y122523*
X489018Y121670*
Y121102*
X489225Y120248*
X489639Y119680*
X490052Y119395*
X490673*
X491086Y119680*
X491500Y120248*
X493361Y121670D02*
X495843D01*
Y122239*
X495636Y122808*
X495430Y123092*
X495016Y123377*
X494395*
X493982Y123092*
X493568Y122523*
X493361Y121670*
Y121102*
X493568Y120248*
X493982Y119680*
X494395Y119395*
X495016*
X495430Y119680*
X495843Y120248*
X497705Y123377D02*
Y119395D01*
Y122239D02*
X498325Y123092D01*
X498739Y123377*
X499359*
X499773Y123092*
X499980Y122239*
Y119395*
X563991Y110606D02*
Y104044D01*
X562400Y110606D02*
X565582D01*
X568991D02*
X568536Y110294D01*
X568082Y109669*
X567855Y109044*
X567627Y108106*
Y106544*
X567855Y105606*
X568082Y104981*
X568536Y104356*
X568991Y104044*
X569900*
X570355Y104356*
X570809Y104981*
X571036Y105606*
X571264Y106544*
Y108106*
X571036Y109044*
X570809Y109669*
X570355Y110294*
X569900Y110606*
X568991*
X573309D02*
Y104044D01*
Y110606D02*
X575355D01*
X576036Y110294*
X576264Y109981*
X576491Y109356*
Y108419*
X576264Y107794*
X576036Y107481*
X575355Y107169*
X573309*
X567095Y126367D02*
X565441Y120395D01*
X567095Y126367D02*
X568750Y120395D01*
X566061Y122386D02*
X568130D01*
X572886Y123523D02*
X572680Y124092D01*
X572059Y124377*
X571439*
X570818Y124092*
X570611Y123523*
X570818Y122955*
X571232Y122670*
X572266Y122386*
X572680Y122102*
X572886Y121533*
Y121248*
X572680Y120680*
X572059Y120395*
X571439*
X570818Y120680*
X570611Y121248*
X577023Y123523D02*
X576816Y124092D01*
X576195Y124377*
X575575*
X574955Y124092*
X574748Y123523*
X574955Y122955*
X575368Y122670*
X576402Y122386*
X576816Y122102*
X577023Y121533*
Y121248*
X576816Y120680*
X576195Y120395*
X575575*
X574955Y120680*
X574748Y121248*
X578884Y122670D02*
X581366D01*
Y123239*
X581159Y123808*
X580952Y124092*
X580539Y124377*
X579918*
X579505Y124092*
X579091Y123523*
X578884Y122670*
Y122102*
X579091Y121248*
X579505Y120680*
X579918Y120395*
X580539*
X580952Y120680*
X581366Y121248*
X583227Y124377D02*
Y120395D01*
Y123239D02*
X583848Y124092D01*
X584261Y124377*
X584882*
X585295Y124092*
X585502Y123239*
Y120395*
Y123239D02*
X586123Y124092D01*
X586536Y124377*
X587157*
X587570Y124092*
X587777Y123239*
Y120395*
X589639Y126367D02*
Y120395D01*
Y123523D02*
X590052Y124092D01*
X590466Y124377*
X591086*
X591500Y124092*
X591914Y123523*
X592120Y122670*
Y122102*
X591914Y121248*
X591500Y120680*
X591086Y120395*
X590466*
X590052Y120680*
X589639Y121248*
X593982Y126367D02*
Y120395D01*
X596050Y124377D02*
X597291Y120395D01*
X598532Y124377D02*
X597291Y120395D01*
X596877Y119258*
X596464Y118689*
X596050Y118405*
X595843*
X537400Y110606D02*
Y104044D01*
Y110606D02*
X539445D01*
X540127Y110294*
X540355Y109981*
X540582Y109356*
Y108731*
X540355Y108106*
X540127Y107794*
X539445Y107481*
X537400D02*
X539445D01*
X540127Y107169*
X540355Y106856*
X540582Y106231*
Y105294*
X540355Y104669*
X540127Y104356*
X539445Y104044*
X537400*
X543991Y110606D02*
X543536Y110294D01*
X543082Y109669*
X542855Y109044*
X542627Y108106*
Y106544*
X542855Y105606*
X543082Y104981*
X543536Y104356*
X543991Y104044*
X544900*
X545355Y104356*
X545809Y104981*
X546036Y105606*
X546264Y106544*
Y108106*
X546036Y109044*
X545809Y109669*
X545355Y110294*
X544900Y110606*
X543991*
X549900D02*
Y104044D01*
X548309Y110606D02*
X551491D01*
X343758Y125445D02*
X343551Y126014D01*
X343138Y126583*
X343138D02*
X342724Y126867D01*
X341897*
X341483Y126583*
X341069Y126014*
X340863Y125445*
X340863D02*
X340656Y124592D01*
Y123170*
X340863Y122317*
X340863D02*
X341069Y121748D01*
X341483Y121180*
X341897Y120895*
X342724*
X343138Y121180*
X343138D02*
X343551Y121748D01*
X343758Y122317*
X346653Y124877D02*
X346240Y124592D01*
X345826Y124023*
X345619Y123170*
Y122602*
X345826Y121748*
X346240Y121180*
X346653Y120895*
X347274*
X347688Y121180*
X347688D02*
X348101Y121748D01*
X348308Y122602*
Y123170*
X348101Y124023*
X347688Y124592*
X347688D02*
X347274Y124877D01*
X346653*
X350169D02*
Y118905D01*
Y124023D02*
X350583Y124592D01*
X350997Y124877*
X351617*
X352031Y124592*
X352444Y124023*
X352651Y123170*
Y122602*
X352444Y121748*
X352031Y121180*
X351617Y120895*
X350997*
X350583Y121180*
X350169Y121748*
X354513Y124877D02*
Y118905D01*
Y124023D02*
X354926Y124592D01*
X355340Y124877*
X355960*
X356374Y124592*
X356788Y124023*
X356788D02*
X356994Y123170D01*
Y122602*
X356788Y121748*
X356788D02*
X356374Y121180D01*
X355960Y120895*
X355340*
X354926Y121180*
X354513Y121748*
X358856Y123170D02*
X361338D01*
X361338D02*
Y123739D01*
X361338D02*
X361131Y124308D01*
X360924Y124592*
X360510Y124877*
X359890*
X359476Y124592*
X359063Y124023*
X359063D02*
X358856Y123170D01*
Y122602*
X359063Y121748*
X359063D02*
X359476Y121180D01*
X359890Y120895*
X360510*
X360924Y121180*
X361338Y121748*
X363199Y124877D02*
Y120895D01*
Y123170D02*
X363406Y124023D01*
X363819Y124592*
X364233Y124877*
X364853*
X371472Y126867D02*
Y120895D01*
X373953*
X378297Y124877D02*
Y120895D01*
Y124023D02*
X377883Y124592D01*
X377469Y124877*
X376849*
X376435Y124592*
X376022Y124023*
X375815Y123170*
Y122602*
X376022Y121748*
X376435Y121180*
X376849Y120895*
X377469*
X377883Y121180*
X378297Y121748*
X380365Y124877D02*
X381606Y120895D01*
X382847Y124877D02*
X381606Y120895D01*
X381192Y119758*
X380778Y119189*
X380365Y118905*
X380158*
X384708Y123170D02*
X387190D01*
Y123739*
X386983Y124308*
X386776Y124592*
X386363Y124877*
X386363D02*
X385742D01*
X385328Y124592*
X384915Y124023*
X384708Y123170*
Y122602*
X384915Y121748*
X385328Y121180*
X385742Y120895*
X386363*
X386363D02*
X386776Y121180D01*
X387190Y121748*
X389051Y124877D02*
Y120895D01*
Y123170D02*
X389258Y124023D01*
X389672Y124592*
X390085Y124877*
X390706*
X397324Y126867D02*
Y120895D01*
Y126867D02*
X400219Y120895D01*
Y126867D02*
Y120895D01*
X404563Y124877D02*
Y120895D01*
Y124023D02*
X404149Y124592D01*
X403735Y124877*
X403115*
X402701Y124592*
X402288Y124023*
X402288D02*
X402081Y123170D01*
Y122602*
X402288Y121748*
X402288D02*
X402701Y121180D01*
X403115Y120895*
X403735*
X404149Y121180*
X404563Y121748*
X406424Y124877D02*
Y120895D01*
Y123739D02*
X407044Y124592D01*
X407458Y124877*
X408078*
X408492Y124592*
X408699Y123739*
Y120895*
Y123739D02*
X409319Y124592D01*
X409733Y124877*
X410353*
X410767Y124592*
X410974Y123739*
Y120895*
X412835Y123170D02*
X415317D01*
Y123739*
X415110Y124308*
X414903Y124592*
X414490Y124877*
X413869*
X413456Y124592*
X413042Y124023*
X412835Y123170*
Y122602*
X413042Y121748*
X413456Y121180*
X413869Y120895*
X414490*
X414903Y121180*
X415317Y121748*
X612900Y117575D02*
Y112325D01*
Y117575D02*
X615264D01*
X612900Y115075D02*
X614355D01*
X619082Y115825D02*
Y112325D01*
Y115075D02*
X618718Y115575D01*
X618355Y115825*
X617809*
X617445Y115575*
X617082Y115075*
X616900Y114325*
Y113825*
X617082Y113075*
X617445Y112575*
X617809Y112325*
X618355*
X618718Y112575*
X619082Y113075*
X620718Y117575D02*
Y112325D01*
Y115075D02*
X621082Y115575D01*
X621445Y115825*
X621991*
X622355Y115575*
X622718Y115075*
X622900Y114325*
Y113825*
X622718Y113075*
X622355Y112575*
X621991Y112325*
X621445*
X621082Y112575*
X620718Y113075*
X628718Y117575D02*
Y112325D01*
Y117575D02*
X629991D01*
X630536Y117325*
X630900Y116825*
X631082Y116325*
X631264Y115575*
Y114325*
X631082Y113575*
X630900Y113075*
X630536Y112575*
X629991Y112325*
X628718*
X632900Y115825D02*
Y112325D01*
Y114325D02*
X633082Y115075D01*
X633445Y115575*
X633809Y115825*
X634355*
X638173D02*
Y112325D01*
Y115075D02*
X637809Y115575D01*
X637445Y115825*
X636900*
X636536Y115575*
X636173Y115075*
X635991Y114325*
Y113825*
X636173Y113075*
X636536Y112575*
X636900Y112325*
X637445*
X637809Y112575*
X638173Y113075*
X639809Y115825D02*
X640536Y112325D01*
X641264Y115825D02*
X640536Y112325D01*
X641264Y115825D02*
X641991Y112325D01*
X642718Y115825D02*
X641991Y112325D01*
X644355Y117575D02*
X644536Y117325D01*
X644718Y117575*
X644536Y117825*
X644355Y117575*
X644536Y115825D02*
Y112325D01*
X646355Y115825D02*
Y112325D01*
Y114825D02*
X646900Y115575D01*
X647264Y115825*
X647809*
X648173Y115575*
X648355Y114825*
Y112325*
X652173Y115825D02*
Y111825D01*
X651991Y111075*
X651809Y110825*
X651445Y110575*
X650900*
X650536Y110825*
X652173Y115075D02*
X651809Y115575D01*
X651445Y115825*
X650900*
X650536Y115575*
X650173Y115075*
X649991Y114325*
Y113825*
X650173Y113075*
X650536Y112575*
X650900Y112325*
X651445*
X651809Y112575*
X652173Y113075*
G54D13*
X465688Y70018D02*
X465279Y69830D01*
X465006Y69268*
X465006D02*
X464870Y68330D01*
Y67768*
X464870D02*
X465006Y66830D01*
X465279Y66268*
X465279D02*
X465688Y66080D01*
X465961*
X466370Y66268*
X466370D02*
X466643Y66830D01*
X466779Y67768*
X466779D02*
Y68330D01*
X466643Y69268*
X466643D02*
X466370Y69830D01*
X465961Y70018*
X465961D02*
X465688D01*
X469915D02*
X468552Y66080D01*
X468006Y70018D02*
X469915D01*
X473597Y70768D02*
X471143Y64767D01*
X474825Y69268D02*
X475097Y69455D01*
X475506Y70018*
X475506D02*
Y66080D01*
X478506Y70018D02*
X477143D01*
X477143D02*
X477006Y68330D01*
X477143Y68518*
X477143D02*
X477552Y68705D01*
X477961*
X478370Y68518*
X478370D02*
X478643Y68143D01*
X478643D02*
X478779Y67580D01*
X478643Y67205*
X478506Y66643*
X478506D02*
X478234Y66268D01*
X478234D02*
X477825Y66080D01*
X477415*
X477006Y66268*
X477006D02*
X476870Y66455D01*
X476734Y66830*
X482461Y70768D02*
X480006Y64767D01*
X483825Y69080D02*
Y69268D01*
X483825D02*
X483961Y69643D01*
X483961D02*
X484097Y69830D01*
X484370Y70018*
X484370D02*
X484915D01*
X484915D02*
X485188Y69830D01*
X485325Y69643*
X485325D02*
X485461Y69268D01*
X485461D02*
Y68893D01*
X485461D02*
X485325Y68518D01*
X485325D02*
X485052Y67955D01*
X483688Y66080*
X485597*
X487643Y70018D02*
X487234Y69830D01*
X486961Y69268*
X486961D02*
X486825Y68330D01*
Y67768*
X486825D02*
X486961Y66830D01*
X487234Y66268*
X487234D02*
X487643Y66080D01*
X487915*
X488325Y66268*
X488325D02*
X488597Y66830D01*
X488734Y67768*
X488734D02*
Y68330D01*
X488597Y69268*
X488597D02*
X488325Y69830D01*
X487915Y70018*
X487915D02*
X487643D01*
X489961Y69268D02*
X490234Y69455D01*
X490643Y70018*
X490643D02*
Y66080D01*
X492143Y70018D02*
X493643D01*
X493643D02*
X492825Y68518D01*
X492825D02*
X493234D01*
X493234D02*
X493506Y68330D01*
X493643Y68143*
X493643D02*
X493779Y67580D01*
Y67205*
X493643Y66643*
X493643D02*
X493370Y66268D01*
X493370D02*
X492961Y66080D01*
X492552*
X492143Y66268*
X492143D02*
X492006Y66455D01*
X491870Y66830*
X614370Y69018D02*
Y65080D01*
Y69018D02*
X615597D01*
X615597D02*
X616006Y68830D01*
X616143Y68643*
X616143D02*
X616279Y68268D01*
X616279D02*
Y67705D01*
X616143Y67330*
X616006Y67143*
X616006D02*
X615597Y66955D01*
X614370*
X618597Y69018D02*
X617506Y65080D01*
X618597Y69018D02*
X619688Y65080D01*
X617915Y66393D02*
X619279D01*
X620915Y69018D02*
Y65080D01*
Y69018D02*
X621870D01*
X621870D02*
X622279Y68830D01*
X622552Y68455*
X622688Y68080*
X622825Y67518*
X622825D02*
Y66580D01*
X622688Y66018*
X622688D02*
X622552Y65643D01*
X622552D02*
X622279Y65268D01*
X622279D02*
X621870Y65080D01*
X620915*
X625552Y67143D02*
X625415Y67518D01*
X625415D02*
X625006Y67705D01*
X624597*
X624188Y67518*
X624188D02*
X624052Y67143D01*
X624052D02*
X624188Y66768D01*
X624188D02*
X624461Y66580D01*
X625143Y66393*
X625143D02*
X625415Y66205D01*
X625552Y65830*
Y65643*
X625552D02*
X625415Y65268D01*
X625415D02*
X625006Y65080D01*
X624597*
X624188Y65268*
X624188D02*
X624052Y65643D01*
X629915Y67705D02*
X630734Y65080D01*
X631552Y67705D02*
X630734Y65080D01*
X634552Y67705D02*
X634415Y67143D01*
X634415D02*
X634143Y66768D01*
X634143D02*
X633734Y66580D01*
X633597*
X633188Y66768*
X633188D02*
X632915Y67143D01*
X632915D02*
X632779Y67705D01*
Y67893*
X632779D02*
X632915Y68455D01*
X633188Y68830*
X633597Y69018*
X633597D02*
X633734D01*
X633734D02*
X634143Y68830D01*
X634415Y68455*
X634552Y67705*
Y66768*
X634552D02*
X634415Y65830D01*
X634143Y65268*
X634143D02*
X633734Y65080D01*
X633461*
X633052Y65268*
X633052D02*
X632915Y65643D01*
X635915Y65455D02*
X635779Y65268D01*
X635779D02*
X635915Y65080D01*
X636052Y65268*
X636052D02*
X635915Y65455D01*
X637552Y69018D02*
X639052D01*
X639052D02*
X638234Y67518D01*
X638234D02*
X638643D01*
X638643D02*
X638915Y67330D01*
X639052Y67143*
X639052D02*
X639188Y66580D01*
Y66205*
X639052Y65643*
X639052D02*
X638779Y65268D01*
X638779D02*
X638370Y65080D01*
X637961*
X637552Y65268*
X637552D02*
X637415Y65455D01*
X637279Y65830*
X301300Y187800D02*
X301303D01*
Y192205*
X293600Y200400D02*
Y199998D01*
X295398Y198200*
Y192205*
X315500Y178700D02*
X319000D01*
Y178654*
X324925Y192205D02*
Y188000D01*
X325000*
X322957Y192205D02*
Y191500D01*
X323000Y196500*
X311146Y192205D02*
Y187700D01*
X311200*
X299335Y192205D02*
Y197298D01*
X299500Y197463*
X297366Y192205D02*
Y195766D01*
X297600Y196000*
X293429Y192205D02*
Y197200D01*
X293600*
X350500Y188000D02*
X350546Y187954D01*
X352656Y190064*
Y192205*
X352484*
X330831D02*
Y188000D01*
X331000*
X382012D02*
X382321D01*
Y184953*
X383100*
X382012Y188000D02*
Y192205D01*
X383000Y176000D02*
Y179047D01*
X383100*
X407500Y188000D02*
X407602D01*
Y192205*
X405500Y196500D02*
X405634Y192000D01*
Y192205*
X399728Y188000D02*
Y190716D01*
Y192205*
X397500Y196500D02*
X397569Y194364D01*
Y192205*
X397760*
X378000Y188000D02*
X378075D01*
Y192205*
X376000Y196500D02*
X376106Y191000D01*
Y192205*
X374000Y188000D02*
X374138D01*
Y192205*
X382000Y188000D02*
X382012D01*
X380000Y196500D02*
X380043Y196457D01*
Y192205*
X395400Y180228D02*
X395500D01*
Y177000*
X395400Y183772D02*
Y185650D01*
X396000Y186250*
Y188000*
X395791Y192205D02*
X395982D01*
Y190046*
X396000Y188000*
X393823Y192205D02*
Y196500D01*
X394000*
X385949Y192205D02*
Y188000D01*
X386000*
X383980Y192205D02*
Y196500D01*
X384000*
X409500D02*
X409571Y191500D01*
Y192205*
X195453Y395000D02*
X199500D01*
X196453Y374500D02*
Y371338D01*
X196500Y371291*
Y369000*
X194272Y380000D02*
X197500D01*
X180000D02*
X185500Y374500D01*
X190547*
X180000Y380000D02*
X190728D01*
X180000Y390000D02*
X185000Y395000D01*
X189547*
X474000Y401500D02*
Y405847D01*
X210000Y406800D02*
Y420000D01*
X220000D02*
Y413500D01*
X220500Y413000*
Y408600*
X230000Y420000D02*
Y414400D01*
X230200Y414200*
Y410700*
X433900Y420500D02*
X436000Y418400D01*
Y406800*
X433900Y420500D02*
Y485000D01*
X436000Y487100*
Y490000*
X432000Y407900D02*
Y501100D01*
X435100Y504200*
Y518600*
X428200Y410800D02*
Y456200D01*
X429300Y457300*
Y502600*
X446000Y426000D02*
X448800Y423200D01*
Y420153*
Y414247D02*
Y414500D01*
X453500*
X473500Y415000D02*
Y411753D01*
X474000*
X501346Y432400D02*
X508200D01*
X512200Y433400*
X519200Y437400*
X448700Y446300D02*
X451284Y448884D01*
X451734*
X455454Y452603*
Y452800*
X473600Y446100D02*
Y447989D01*
X475054Y449443*
Y452400*
X462146Y452800D02*
Y452603D01*
X470350Y444400*
X480400*
X484400Y448400*
X493054*
X481746Y452400D02*
X489250D01*
X493054Y448597*
Y448400*
X499746D02*
X508000D01*
X512200Y449400*
X519200Y445400*
X218228Y550000D02*
X218314D01*
Y553500*
X218500*
X221772Y550000D02*
X230000D01*
X311000Y544000D02*
Y548047D01*
X311100*
X140500Y584500D02*
Y608500D01*
X300700Y583950D02*
X303800D01*
Y583947*
X313000Y582000D02*
Y585547D01*
X313500*
X309200Y591700D02*
X313500D01*
Y591453*
X445500Y600000D02*
X459323D01*
X489823Y630500*
X507800*
Y630600*
X287200Y632800D02*
X287944Y630978D01*
Y630000*
X288528*
X287500Y610500D02*
Y610792D01*
X291047*
Y611500*
X322748Y627102D02*
X324650Y629004D01*
Y637300*
X322748Y627102D02*
X326800Y623050D01*
Y620550*
X329852Y617498*
X322337Y627000D02*
X322500D01*
X322600Y627250*
X325003Y642100D02*
Y644150D01*
X324650Y638000D02*
Y637300D01*
Y639263*
X325003Y639616*
Y642100*
X324203D02*
Y644639D01*
X324903Y645339*
Y650450*
X324203Y642100D02*
X325003D01*
X322600Y627250D02*
X322748Y627102D01*
X289250Y622500D02*
X292128D01*
X289300Y624700D02*
X292128Y625862D01*
Y626600*
X318650Y639100D02*
X321078D01*
Y638900*
X296000Y641400D02*
X298547D01*
Y640500*
X318500Y609750D02*
Y613531D01*
X314400Y617300D02*
X318500D01*
Y617469*
X304453Y640500D02*
X305634D01*
X307400Y640450*
X296953Y611500D02*
Y611300D01*
X299800*
X323000Y616969D02*
Y617073D01*
X326500*
Y617300*
X295672Y626600D02*
Y626950D01*
X298200*
X324622Y638900D02*
X324650Y638872D01*
Y637300*
X329881Y617469D02*
X329852Y617498D01*
X331354Y619000*
X337528*
X343500Y639500D02*
X346028D01*
X349572Y639300D02*
X352003D01*
X352203Y639500*
X355000*
X341072Y619000D02*
Y618500D01*
X343500*
X179000Y681000D02*
Y686147D01*
X316000Y650500D02*
X318997D01*
Y650450*
X316300Y644300D02*
X319097D01*
Y644150*
X299000Y649950D02*
Y646500D01*
X299047*
X304953D02*
Y646400D01*
X308000*
X386428Y680600D02*
X386500D01*
Y683500*
X468454Y668300D02*
X468500D01*
Y664000*
X475146Y668300D02*
Y668500D01*
X478500*
X485772Y713850D02*
X488700D01*
X476900Y708100D02*
X477187Y705978D01*
Y705000*
X477772*
X482200Y717000D02*
Y714000D01*
X482228*
X473500Y700800D02*
X473778D01*
Y702500*
X474100Y702822*
Y705000*
X474228*
X452800Y714100D02*
X455728D01*
Y714000*
X459272D02*
X462000D01*
X125500Y743000D02*
X132154D01*
X137846Y760000D02*
X142500D01*
X137346Y729500D02*
X142500D01*
X138846Y743000D02*
X143000D01*
X172000Y732154D02*
Y729391D01*
X172500Y728891*
Y727000*
X236000Y737000D02*
X236228Y736772D01*
Y733500*
X231500Y732500D02*
X234047Y728709D01*
Y728500*
X474300Y735800D02*
X474461D01*
Y733000*
X474772*
X455700Y729300D02*
Y732000D01*
X455728*
X472950Y754550D02*
X473000Y751300D01*
X487950Y759550D02*
X488000Y763400D01*
X477950Y759550D02*
X480200Y761800D01*
Y764000*
X459272Y732000D02*
X462000D01*
X378309Y69325D02*
X378036Y69700D01*
X377627Y69888*
X377627D02*
X377082D01*
X377082D02*
X376673Y69700D01*
X376400Y69325*
Y68950*
X376536Y68575*
X376673Y68388*
X376673D02*
X376945Y68200D01*
X377764Y67825*
X378036Y67638*
X378036D02*
X378173Y67450D01*
X378309Y67075*
Y66513*
X378309D02*
X378036Y66138D01*
X378036D02*
X377627Y65950D01*
X377082*
X376673Y66138*
X376673D02*
X376400Y66513D01*
X379536Y69888D02*
Y65950D01*
X381173*
X383764Y69888D02*
Y66888D01*
X383764D02*
X383627Y66325D01*
X383491Y66138*
X383491D02*
X383218Y65950D01*
X382945*
X382673Y66138*
X382673D02*
X382536Y66325D01*
X382400Y66888*
X382400D02*
Y67263D01*
X293309Y69325D02*
X293036Y69700D01*
X292627Y69888*
X292627D02*
X292082D01*
X292082D02*
X291673Y69700D01*
X291400Y69325*
Y68950*
X291536Y68575*
X291673Y68388*
X291673D02*
X291945Y68200D01*
X292764Y67825*
X293036Y67638*
X293036D02*
X293173Y67450D01*
X293309Y67075*
Y66513*
X293309D02*
X293036Y66138D01*
X293036D02*
X292627Y65950D01*
X292082*
X291673Y66138*
X291673D02*
X291400Y66513D01*
X294536Y69888D02*
Y65950D01*
X296173*
X298764Y69888D02*
Y66888D01*
X298764D02*
X298627Y66325D01*
X298491Y66138*
X298491D02*
X298218Y65950D01*
X297945*
X297673Y66138*
X297673D02*
X297536Y66325D01*
X297400Y66888*
X297400D02*
Y67263D01*
X201400Y69888D02*
Y65950D01*
Y69888D02*
X202355D01*
X202355D02*
X202764Y69700D01*
X203036Y69325*
X203173Y68950*
X203309Y68388*
X203309D02*
Y67450D01*
X203173Y66888*
X203173D02*
X203036Y66513D01*
X203036D02*
X202764Y66138D01*
X202764D02*
X202355Y65950D01*
X201400*
X204536Y69888D02*
Y65950D01*
X206445Y69888D02*
X204536Y67263D01*
X205218Y68200D02*
X206445Y65950D01*
X207673Y67638D02*
X210127D01*
X212309Y69888D02*
Y65950D01*
X211355Y69888D02*
X213264D01*
X214491D02*
Y65950D01*
Y69888D02*
X215582Y65950D01*
X216673Y69888D02*
X215582Y65950D01*
X216673Y69888D02*
Y65950D01*
X219264Y69888D02*
X217900Y67263D01*
X217900D02*
X219945D01*
X219264Y69888D02*
Y65950D01*
X223218Y68950D02*
X223082Y69325D01*
X222809Y69700*
X222536Y69888*
X222536D02*
X221991D01*
X221991D02*
X221718Y69700D01*
X221445Y69325*
X221309Y68950*
X221173Y68388*
X221173D02*
Y67450D01*
X221309Y66888*
X221309D02*
X221445Y66513D01*
X221445D02*
X221718Y66138D01*
X221718D02*
X221991Y65950D01*
X222536*
X222809Y66138*
X222809D02*
X223082Y66513D01*
X223082D02*
X223218Y66888D01*
X224445Y69138D02*
X224718Y69325D01*
X225127Y69888*
X225127D02*
Y65950D01*
X226491Y68950D02*
Y69138D01*
X226491D02*
X226627Y69513D01*
X226627D02*
X226764Y69700D01*
X227036Y69888*
X227036D02*
X227582D01*
X227582D02*
X227855Y69700D01*
X227991Y69513*
X227991D02*
X228127Y69138D01*
X228127D02*
Y68763D01*
X228127D02*
X227991Y68388D01*
X227991D02*
X227718Y67825D01*
X226355Y65950*
X228264*
X231264Y68575D02*
X231127Y68013D01*
X231127D02*
X230855Y67638D01*
X230855D02*
X230445Y67450D01*
X230309*
X229900Y67638*
X229900D02*
X229627Y68013D01*
X229627D02*
X229491Y68575D01*
Y68763*
X229491D02*
X229627Y69325D01*
X229900Y69700*
X230309Y69888*
X230309D02*
X230445D01*
X230445D02*
X230855Y69700D01*
X231127Y69325*
X231264Y68575*
Y67638*
X231264D02*
X231127Y66700D01*
X230855Y66138*
X230855D02*
X230445Y65950D01*
X230173*
X229764Y66138*
X229764D02*
X229627Y66513D01*
X232491Y69888D02*
X234400Y65950D01*
Y69888D02*
X232491Y65950D01*
X132218Y69888D02*
X131809Y69700D01*
X131536Y69138*
X131536D02*
X131400Y68200D01*
Y67638*
X131400D02*
X131536Y66700D01*
X131809Y66138*
X131809D02*
X132218Y65950D01*
X132491*
X132900Y66138*
X132900D02*
X133173Y66700D01*
X133309Y67638*
X133309D02*
Y68200D01*
X133173Y69138*
X133173D02*
X132900Y69700D01*
X132491Y69888*
X132491D02*
X132218D01*
X136445D02*
X135082Y65950D01*
X134536Y69888D02*
X136445D01*
X140127Y70638D02*
X137673Y64637D01*
X141355Y69138D02*
X141627Y69325D01*
X142036Y69888*
X142036D02*
Y65950D01*
X145036Y69888D02*
X143673D01*
X143673D02*
X143536Y68200D01*
X143673Y68388*
X143673D02*
X144082Y68575D01*
X144491*
X144900Y68388*
X144900D02*
X145173Y68013D01*
X145173D02*
X145309Y67450D01*
X145173Y67075*
X145036Y66513*
X145036D02*
X144764Y66138D01*
X144764D02*
X144355Y65950D01*
X143945*
X143536Y66138*
X143536D02*
X143400Y66325D01*
X143264Y66700*
X148991Y70638D02*
X146536Y64637D01*
X150355Y68950D02*
Y69138D01*
X150355D02*
X150491Y69513D01*
X150491D02*
X150627Y69700D01*
X150900Y69888*
X150900D02*
X151445D01*
X151445D02*
X151718Y69700D01*
X151855Y69513*
X151855D02*
X151991Y69138D01*
X151991D02*
Y68763D01*
X151991D02*
X151855Y68388D01*
X151855D02*
X151582Y67825D01*
X150218Y65950*
X152127*
X154173Y69888D02*
X153764Y69700D01*
X153491Y69138*
X153491D02*
X153355Y68200D01*
Y67638*
X153355D02*
X153491Y66700D01*
X153764Y66138*
X153764D02*
X154173Y65950D01*
X154445*
X154855Y66138*
X154855D02*
X155127Y66700D01*
X155264Y67638*
X155264D02*
Y68200D01*
X155127Y69138*
X155127D02*
X154855Y69700D01*
X154445Y69888*
X154445D02*
X154173D01*
X156491Y69138D02*
X156764Y69325D01*
X157173Y69888*
X157173D02*
Y65950D01*
X158673Y69888D02*
X160173D01*
X160173D02*
X159355Y68388D01*
X159355D02*
X159764D01*
X159764D02*
X160036Y68200D01*
X160173Y68013*
X160173D02*
X160309Y67450D01*
Y67075*
X160173Y66513*
X160173D02*
X159900Y66138D01*
X159900D02*
X159491Y65950D01*
X159082*
X158673Y66138*
X158673D02*
X158536Y66325D01*
X158400Y66700*
G54D14*
X507600Y422400D02*
Y417965D01*
X515700Y415400*
X441218Y91770D02*
Y83567D01*
X444627*
X450025Y91770D02*
X447184Y86302D01*
X451445*
X450025Y91770D02*
Y83567D01*
G54D15*
X297600Y196000D02*
X299063Y197463D01*
X299500*
X311000Y559000D02*
X311100Y558900D01*
Y553953*
X303800Y589853D02*
Y589750D01*
X306900*
X295000Y630000D02*
X297656D01*
X304056Y623600*
X310650*
Y623700*
X326250Y613500D02*
X326350D01*
X323000Y613031D02*
Y613259D01*
X326350*
Y613500*
X295672Y622500D02*
Y622350D01*
X298300*
X292072Y630000D02*
X295000D01*
X329881Y617469D02*
X329900Y617450D01*
G54D18*
X135286Y119434D02*
Y109591D01*
X132900Y119434D02*
X137673D01*
X140741D02*
Y109591D01*
Y119434D02*
X145173D01*
X140741Y114747D02*
X143468D01*
X140741Y109591D02*
X145173D01*
X148241Y119434D02*
X153014Y109591D01*
Y119434D02*
X148241Y109591D01*
X158809Y119434D02*
X156082Y109591D01*
X158809Y119434D02*
X161536Y109591D01*
X157105Y112872D02*
X160514D01*
X169377Y118028D02*
X168695Y118966D01*
X167673Y119434*
X166309*
X165286Y118966*
X164605Y118028*
Y117091*
X164945Y116153*
X165286Y115684*
X165968Y115216*
X168014Y114278*
X168695Y113809*
X169036Y113341*
X169377Y112403*
Y110997*
X168695Y110059*
X167673Y109591*
X166309*
X165286Y110059*
X164605Y110997*
X180286Y119434D02*
Y109591D01*
X183355Y119434D02*
Y109591D01*
Y119434D02*
X188127Y109591D01*
Y119434D02*
Y109591D01*
X195968Y118028D02*
X195286Y118966D01*
X194264Y119434*
X192900*
X191877Y118966*
X191195Y118028*
Y117091*
X191536Y116153*
X191877Y115684*
X192559Y115216*
X194605Y114278*
X195286Y113809*
X195627Y113341*
X195968Y112403*
Y110997*
X195286Y110059*
X194264Y109591*
X192900*
X191877Y110059*
X191195Y110997*
X201423Y119434D02*
Y109591D01*
X199036Y119434D02*
X203809D01*
X206877D02*
Y109591D01*
Y119434D02*
X209945D01*
X210968Y118966*
X211309Y118497*
X211650Y117559*
Y116622*
X211309Y115684*
X210968Y115216*
X209945Y114747*
X206877*
X209264D02*
X211650Y109591D01*
X214718Y119434D02*
Y112403D01*
X215059Y110997*
X215741Y110059*
X216764Y109591*
X217445*
X218468Y110059*
X219150Y110997*
X219491Y112403*
Y119434*
X222559D02*
Y109591D01*
Y119434D02*
X225286Y109591D01*
X228014Y119434D02*
X225286Y109591D01*
X228014Y119434D02*
Y109591D01*
X231082Y119434D02*
Y109591D01*
Y119434D02*
X235514D01*
X231082Y114747D02*
X233809D01*
X231082Y109591D02*
X235514D01*
X238582Y119434D02*
Y109591D01*
Y119434D02*
X243355Y109591D01*
Y119434D02*
Y109591D01*
X248809Y119434D02*
Y109591D01*
X246423Y119434D02*
X251195D01*
X259036Y118028D02*
X258355Y118966D01*
X257332Y119434*
X255968*
X254945Y118966*
X254264Y118028*
Y117091*
X254605Y116153*
X254945Y115684*
X255627Y115216*
X257673Y114278*
X258355Y113809*
X258695Y113341*
X259036Y112403*
Y110997*
X258355Y110059*
X257332Y109591*
X255968*
X254945Y110059*
X254264Y110997*
G54D20*
X230000Y430000D03*
X130000Y330000D03*
X410000Y720000D03*
X230000D03*
X300000Y690000D03*
X180000Y650000D03*
X440000Y660000D03*
Y670000D03*
X330000Y770000D03*
X300000Y720000D03*
X189000Y701000D03*
X130000Y280000D03*
X280000Y700000D03*
X534800Y338300D03*
X280000Y690000D03*
X180000Y640000D03*
X260000Y610000D03*
X397600Y573500D03*
X370000Y660000D03*
X380000D03*
X240000Y720000D03*
G54D21*
X230000Y420000D03*
X220000Y430000D03*
Y420000D03*
X210000Y430000D03*
Y420000D03*
X130000Y320000D03*
X120000Y330000D03*
Y320000D03*
X110000Y330000D03*
Y320000D03*
X410000Y710000D03*
Y700000D03*
Y690000D03*
Y680000D03*
Y670000D03*
Y660000D03*
Y650000D03*
Y640000D03*
Y630000D03*
X230000Y710000D03*
Y700000D03*
Y690000D03*
Y680000D03*
Y670000D03*
Y660000D03*
Y650000D03*
Y640000D03*
Y630000D03*
X300000Y700000D03*
X190000Y650000D03*
X450000Y660000D03*
Y670000D03*
X340000Y770000D03*
X290000Y720000D03*
X179000Y701000D03*
X169000D03*
X190000Y614961D03*
Y585039D03*
X130000Y270000D03*
X120000Y280000D03*
Y270000D03*
X110000Y280000D03*
Y270000D03*
X270000Y700000D03*
X260000D03*
X524800Y338300D03*
X514800D03*
X270000Y690000D03*
X260000D03*
X190000Y640000D03*
X270000Y610000D03*
X397600Y583500D03*
X370000Y670000D03*
Y680000D03*
X380000Y670000D03*
Y680000D03*
X240000Y710000D03*
G54D36*
G54D47*
X299500Y197463D02*
X402537Y300500D01*
X510500*
X514000*
X240000Y720000D02*
Y729000D01*
Y733500*
Y786500*
X520000Y727500D02*
Y731000D01*
Y761000*
X286500Y787000D02*
Y736000D01*
X291000Y731500*
X520000Y761000D02*
X515500Y765500D01*
Y769400*
X307900Y75950D02*
Y130450D01*
X457900Y75950D02*
Y130450D01*
X507900Y75950D02*
Y130450D01*
X557900Y75950D02*
Y130450D01*
X607900Y75950D02*
Y130450D01*
X245400Y75450D02*
Y100450D01*
X115400D02*
X307900D01*
X115400Y75450D02*
X657900D01*
Y130450D02*
X115400D01*
Y60450*
X657900*
Y130450*
G54D54*
X325000Y188000D03*
X301300Y187800D03*
X350500Y188000D03*
X532700Y186200D03*
X244500Y224000D03*
X259000Y206000D03*
X283500Y254000D03*
X281500Y259500D03*
X288000Y274500D03*
X278000Y518500D03*
X311000Y559000D03*
X352500Y555000D03*
X343500Y557000D03*
X317600Y566000D03*
X106500Y698500D03*
X295000Y755000D03*
X292500D03*
X240000Y786500D03*
X286500Y787000D03*
X317000Y771000D03*
X515500Y769400D03*
G54D59*
X147500Y159000D03*
X160500D03*
X177500Y157000D03*
X173500Y159500D03*
X179500Y153500D03*
X107500Y180500D03*
X112000Y164400D03*
X152000Y166000D03*
X138800Y164400D03*
X159500Y190000D03*
X157500Y169500D03*
X172500Y183000D03*
X323000Y196500D03*
X311200Y187700D03*
X293600Y200400D03*
Y197200D03*
X315500Y178700D03*
X331000Y188000D03*
X366300Y201500D03*
X341000D03*
X368000Y200000D03*
X346500D03*
X348500Y198500D03*
X350500Y197000D03*
X395500Y177000D03*
X383000Y176000D03*
X407500Y188000D03*
X405500Y196500D03*
X399728Y188000D03*
X397500Y196500D03*
X378000Y188000D03*
X376000Y196500D03*
X374000Y188000D03*
X370000Y198500D03*
X372000Y197000D03*
X394000Y196500D03*
X396000Y188000D03*
X386000D03*
X384000Y196500D03*
X382000Y188000D03*
X380000Y196500D03*
X409500D03*
X512400Y181600D03*
X512800Y166400D03*
X540000Y166000D03*
X120000Y241500D03*
X130500D03*
X354500Y207500D03*
X333000D03*
X356500Y206000D03*
X335000D03*
X362500Y204500D03*
X337000D03*
X364500Y203000D03*
X339000D03*
X536000Y239000D03*
X130500Y255500D03*
X144000Y250500D03*
X290000Y244400D03*
X508000Y278000D03*
X526800Y251200D03*
X511500Y249500D03*
X517000Y273500D03*
Y278500D03*
X521700Y259700D03*
X532500Y259000D03*
X529000D03*
X532000Y264000D03*
X529000D03*
X530500Y261000D03*
X248000Y314500D03*
X242000Y286000D03*
X278000Y284000D03*
X262000Y293000D03*
X260500Y303500D03*
X517500Y307500D03*
X523500Y312500D03*
X506500Y290500D03*
X510500Y300500D03*
X514000D03*
X517000Y284000D03*
X125000Y359500D03*
X107500Y358000D03*
X247600Y345200D03*
X245200Y325200D03*
X264000Y334500D03*
X292500Y354000D03*
X115500Y379000D03*
X125500Y385500D03*
X140500Y400500D03*
X196500Y369000D03*
X197500Y380000D03*
X196500Y386000D03*
X199500Y395000D03*
X207500Y379500D03*
X297500Y364000D03*
X474000Y401500D03*
X522500Y401000D03*
X529000D03*
X113500Y425000D03*
X199500Y440500D03*
X188500Y434500D03*
X186000Y404500D03*
X220500Y408600D03*
X230200Y410700D03*
X210000Y406800D03*
X274000Y419500D03*
X273600Y410000D03*
X277800Y414800D03*
X288000Y440200D03*
X266500Y438500D03*
X292200Y441400D03*
X392200Y438500D03*
X405500Y439500D03*
X432000Y407900D03*
X428200Y410800D03*
X436000Y406800D03*
X422200Y403200D03*
X411500Y416500D03*
X446000Y426000D03*
X453500Y414500D03*
X473500Y415000D03*
X194000Y450500D03*
X205000Y460000D03*
X213000Y455500D03*
X254000Y445500D03*
X259500Y479000D03*
X318850Y475250D03*
X311900Y466500D03*
X301600Y445200D03*
X310450Y453750D03*
X296700Y443200D03*
X330300Y476600D03*
X332800Y478450D03*
X374000Y478500D03*
X448700Y446300D03*
X473600Y446100D03*
X199000Y499500D03*
X186500Y492000D03*
X270500Y483000D03*
X274550Y502850D03*
X322000Y521200D03*
X320800Y512400D03*
X320400Y503100D03*
X320800Y505600D03*
X321600Y518400D03*
X312000Y486500D03*
X304500Y509500D03*
X320800Y496600D03*
X298000Y515000D03*
X320900Y509900D03*
X328150Y485850D03*
X317600Y493400D03*
X343600Y521200D03*
X347000Y512400D03*
X356400Y504000D03*
X355200Y507600D03*
X343600Y518400D03*
X357000Y496500D03*
X350900Y510400D03*
X364000Y489000D03*
X379200Y521200D03*
X373600Y512400D03*
X377200Y504000D03*
X382400Y507600D03*
X386000Y518400D03*
X395200Y496500D03*
X371200Y501600D03*
X380800Y510400D03*
X435100Y518600D03*
X429300Y502600D03*
X436000Y490000D03*
X432500Y510000D03*
X439500Y485800D03*
X455500Y486000D03*
X505500Y510300D03*
X498800Y518300D03*
X499100Y506900D03*
X499600Y490000D03*
X530000Y518000D03*
X151000Y539500D03*
X186500Y556000D03*
Y558500D03*
X175000Y560500D03*
X233200Y561050D03*
X225000Y555000D03*
X221500Y545500D03*
X212500Y550000D03*
X218500Y553500D03*
X255000Y560500D03*
X282250Y560750D03*
X250000Y530000D03*
X288500Y546000D03*
X263500Y544500D03*
X255500Y543500D03*
X283500Y539500D03*
X258500Y523000D03*
X287500Y526000D03*
X286000Y551000D03*
X315500Y553500D03*
X322000Y526800D03*
X321100Y552500D03*
X322000Y539500D03*
X312800Y539600D03*
X321800Y546000D03*
X322000Y542800D03*
X311000Y544000D03*
X312500Y531500D03*
X322000Y524400D03*
X294400Y526000D03*
X322000Y532800D03*
X323600Y548400D03*
X298000Y548500D03*
X343200Y526800D03*
X340500Y539500D03*
X342000Y546000D03*
X340500Y543500D03*
X352600Y541900D03*
X343200Y524400D03*
Y532800D03*
X345500Y554500D03*
X376000Y526500D03*
X404000Y556000D03*
X380500Y539500D03*
X385000Y550000D03*
X385200Y522400D03*
X377500Y537000D03*
X406500Y559000D03*
X389500Y554500D03*
X417500Y547000D03*
X455500Y557700D03*
X507500Y529000D03*
X509000Y531000D03*
X515000Y523000D03*
X537500Y536000D03*
X157600Y581200D03*
X140500Y584500D03*
X132000Y569000D03*
X188000Y578500D03*
X174000Y576000D03*
X234600Y563050D03*
X233450Y584100D03*
X236000Y601500D03*
X227000Y570000D03*
X243550Y576050D03*
X253100Y563000D03*
X258000Y573500D03*
X278300D03*
X254000Y579000D03*
X276000D03*
X278000Y580500D03*
X276000Y582500D03*
X288000Y566500D03*
X275500Y570000D03*
X251500Y586000D03*
X276450Y576050D03*
X286400Y597200D03*
X286500Y591500D03*
X285600Y565800D03*
X326400Y601650D03*
X308000Y565200D03*
X310400D03*
X314500Y601700D03*
X318650Y601550D03*
X295000Y577000D03*
X322000Y575600D03*
X322550Y601550D03*
X318500Y571000D03*
X308850Y601550D03*
X306650D03*
X300700Y583950D03*
X313000Y582000D03*
X298500Y596500D03*
X300500Y598000D03*
X306900Y589750D03*
X294800Y587600D03*
X309200Y591700D03*
X290000Y565000D03*
X292500Y564900D03*
X332150Y601550D03*
X335500Y587500D03*
X344400Y577100D03*
X341350Y563350D03*
X363950Y563250D03*
X334350Y601550D03*
X343200Y584450D03*
X338500Y587000D03*
X375400Y599900D03*
X380000Y599000D03*
X378400Y601000D03*
X390500Y590000D03*
X371000D03*
X394500Y595500D03*
X381500Y593500D03*
X399150Y601300D03*
X383500Y596500D03*
X425000Y586000D03*
X419000Y563500D03*
X505500Y566500D03*
X513500Y573500D03*
X515500Y578000D03*
X522500Y566500D03*
X515500D03*
X540500Y578000D03*
X535000D03*
X108000Y622500D03*
X106500Y629500D03*
X106000Y626000D03*
X104500Y604500D03*
X146000Y615500D03*
X140500Y608500D03*
X151000Y631500D03*
X157500Y618500D03*
X148500Y612500D03*
X201000Y606000D03*
X198500Y608000D03*
X180000Y609500D03*
X183500Y625500D03*
X236700Y635000D03*
X244000Y604500D03*
X236500Y623000D03*
X248350Y614400D03*
X247350Y617900D03*
X246100Y621500D03*
X244350Y618650D03*
X211000Y624000D03*
X222000Y604000D03*
X237500Y631500D03*
X224100Y629000D03*
X275500Y635500D03*
X269500Y625500D03*
X276500Y611500D03*
X279600Y606400D03*
X282000Y606500D03*
X251000Y640500D03*
X270000Y623000D03*
X254500Y627000D03*
X272500D03*
X254500Y636500D03*
X262600Y638500D03*
X288000Y636000D03*
X278000Y625000D03*
X287200Y632800D03*
X287500Y610500D03*
X287200Y626000D03*
X254000Y606000D03*
X308950Y617450D03*
X307150Y627100D03*
X310600Y603550D03*
X309100Y628350D03*
X314600Y629350D03*
X322600Y629450D03*
X322400Y606000D03*
X312800Y625050D03*
X306950Y603750D03*
X308550Y605500D03*
X306750Y617600D03*
X313750Y607250D03*
X310500Y607600D03*
X322450Y603750D03*
X306800Y609600D03*
X312400Y609150D03*
X295000Y630000D03*
X310650Y623700D03*
X322600Y627250D03*
X327500Y607300D03*
X318800Y603750D03*
X322400Y625000D03*
X311300Y613600D03*
X318700Y629250D03*
X328700Y622450D03*
X309000Y613600D03*
X318700Y606150D03*
X306650Y621550D03*
X306900Y629300D03*
X311950Y605350D03*
X289250Y622500D03*
X289300Y624700D03*
X318650Y639100D03*
X324900Y621200D03*
X322700Y621350D03*
X296000Y641400D03*
X312500Y622500D03*
X314700Y613700D03*
X318500Y609750D03*
X301250Y634450D03*
X326500Y617300D03*
X315100Y610500D03*
X306800Y613600D03*
X298300Y622350D03*
X298200Y626950D03*
X314400Y617300D03*
X316500Y619450D03*
X309000Y625250D03*
X326000Y610600D03*
X299800Y611300D03*
X307400Y640450D03*
X326250Y613500D03*
X322450Y609750D03*
X318700Y621300D03*
X311000Y626450D03*
X318550Y624800D03*
X318700Y627050D03*
X326350Y629300D03*
X330500Y623850D03*
X334400Y621500D03*
X329000Y605550D03*
X330300Y607650D03*
X334450Y613550D03*
X329900Y617450D03*
X332200Y629450D03*
X330450Y627400D03*
X329050Y625650D03*
X334400Y617300D03*
X332100D03*
X355000Y639500D03*
X343500Y618500D03*
X332050Y605850D03*
X334100Y603850D03*
X340000Y634800D03*
X334250Y609750D03*
X343500Y639500D03*
X334450Y629450D03*
X329900Y613750D03*
X332250Y613600D03*
X330250Y603600D03*
X334150Y627150D03*
X332250Y625300D03*
X381800Y619700D03*
X381500Y615500D03*
X374500Y602500D03*
X385000D03*
X404500Y611500D03*
X390000Y629500D03*
X386500Y606000D03*
X396500Y604500D03*
X390500Y625500D03*
X377500Y606500D03*
X416000Y621000D03*
X485500Y638000D03*
X476500Y639500D03*
X470500Y639000D03*
X473500Y638500D03*
X520000Y612000D03*
X507800Y630600D03*
X511000Y607300D03*
X515300Y623300D03*
X524000Y609000D03*
X515000Y642000D03*
X516000Y604000D03*
X497000Y625500D03*
X499500Y639000D03*
X110500Y648500D03*
X114000Y650000D03*
X124000Y665500D03*
X118500Y668500D03*
X128700Y657400D03*
X119500Y672000D03*
X112000Y664000D03*
X155000Y655000D03*
X160000Y667000D03*
X129500Y664000D03*
X135800Y657400D03*
X132300D03*
X163500Y654000D03*
X173000Y670000D03*
X190000Y677000D03*
X179000Y681000D03*
X169600Y678000D03*
X238800Y659650D03*
X223500Y665000D03*
X235900Y657150D03*
X250000Y659500D03*
X281700Y666200D03*
X287400Y657850D03*
X266500Y679000D03*
X268000Y647500D03*
X263500Y679500D03*
X267000Y644500D03*
X269500Y681000D03*
X270500Y648000D03*
X277500Y656500D03*
X254000Y679500D03*
X252500Y682000D03*
X286550Y654150D03*
X259500Y659000D03*
X299200Y654700D03*
X303400Y654400D03*
X315500Y672500D03*
X314000Y657500D03*
X310000Y676000D03*
X309500Y659000D03*
X324500Y668500D03*
X291000Y673500D03*
X290400Y657600D03*
X294500Y671000D03*
X292600Y656450D03*
X319950Y672300D03*
X321500Y664000D03*
X321400Y657000D03*
X323600Y657400D03*
X317500Y662000D03*
X312000Y659000D03*
X316000Y650500D03*
X316300Y644300D03*
X299000Y649950D03*
X308000Y646400D03*
X306150Y664650D03*
X350500Y664000D03*
X349500Y656000D03*
X352500Y655500D03*
X333500Y666000D03*
Y659500D03*
X348500Y648000D03*
X357500Y676500D03*
Y642500D03*
X334500Y677500D03*
X329000Y668500D03*
X374800Y669600D03*
X403600Y672400D03*
X399200Y647200D03*
X394800Y672400D03*
X388000Y648000D03*
X401500Y652000D03*
X404500Y679000D03*
X375600Y656400D03*
X405550Y665150D03*
X426000Y679500D03*
X436000Y646000D03*
X434000Y664500D03*
X441000Y644500D03*
X431500Y665000D03*
X414000Y662000D03*
X422000Y651000D03*
X420500Y656000D03*
X416000Y658000D03*
X446500Y675500D03*
X427000Y662000D03*
X418050Y646550D03*
X480000Y654000D03*
Y679500D03*
X481500Y651000D03*
Y681500D03*
X461500Y658500D03*
X468500Y654000D03*
Y664000D03*
X485000Y649500D03*
X476500Y654500D03*
X455500Y643500D03*
X478500Y668500D03*
X511000Y646000D03*
X508000Y653400D03*
X517500Y653500D03*
X507500Y656000D03*
X489000Y678000D03*
X520500Y648500D03*
X514500Y652500D03*
X541000Y677500D03*
X120500Y711500D03*
X128500Y712000D03*
X106000Y704500D03*
X105000Y716500D03*
X192500Y711000D03*
X220000Y721500D03*
X239500Y683500D03*
X244000Y683000D03*
X213000Y717000D03*
X209500Y711000D03*
X285500Y694000D03*
X259500Y684500D03*
X262500Y695500D03*
X305500Y686000D03*
X307000Y691000D03*
X320500Y707000D03*
X312000Y685500D03*
X305350Y705550D03*
X352500Y709000D03*
X360500Y697000D03*
X406750Y685400D03*
X394800Y682400D03*
X394000Y697500D03*
X396500Y696000D03*
X393000Y685000D03*
X400000Y686000D03*
X386500Y683500D03*
X421000Y688500D03*
X444000Y683500D03*
X438500Y703500D03*
X444500Y712200D03*
X462400Y701200D03*
X464400Y720000D03*
X468500Y700500D03*
X483700Y701400D03*
X478300Y712500D03*
X452400Y692950D03*
X465000Y700500D03*
X460400Y704400D03*
X488700Y713850D03*
X474500Y690000D03*
X478000Y683000D03*
X468500Y693000D03*
X476000Y700800D03*
X476900Y708100D03*
X482200Y717000D03*
X462000Y714000D03*
X487900Y696700D03*
X488500Y689900D03*
X457500Y683500D03*
X473500Y700800D03*
X465000Y689500D03*
X452800Y714100D03*
X486000Y711000D03*
X522500Y685000D03*
X513900Y722000D03*
X498100Y693800D03*
X489100Y706100D03*
X489200Y708300D03*
X489300Y716100D03*
X489000Y711500D03*
Y721800D03*
X496300Y691100D03*
X517500Y685000D03*
X532500Y687500D03*
X126000Y760000D03*
X125500Y730000D03*
X114000Y751500D03*
X125500Y743000D03*
X136000Y735000D03*
X165500Y734500D03*
Y757000D03*
X143000Y743000D03*
X142500Y760000D03*
Y729500D03*
X182500Y753500D03*
X172500Y727000D03*
X236000Y737000D03*
X231500Y732500D03*
X224000Y727500D03*
X210000Y761000D03*
X252500Y749500D03*
X315500Y762000D03*
X292000Y761000D03*
X317000Y740500D03*
X309000Y724000D03*
X291000Y731500D03*
X295000D03*
X364500Y728000D03*
X335500Y744500D03*
X337000Y734000D03*
X397500Y756500D03*
X407500Y756000D03*
X395000Y758000D03*
X415000Y756500D03*
X444700Y725800D03*
X444800Y735100D03*
X443200Y738500D03*
X434800Y732000D03*
X434700Y727500D03*
X441700Y745200D03*
X430500Y754500D03*
X443300Y727500D03*
X444200Y731800D03*
X485750Y746550D03*
X483700Y748950D03*
X488700Y729850D03*
X462500Y736000D03*
X472000Y737000D03*
X473000Y751300D03*
X460000Y761900D03*
X468500Y750500D03*
X452800Y729800D03*
X462000Y732000D03*
X474300Y735800D03*
X455700Y729300D03*
X477500Y736500D03*
X476200Y750700D03*
X522500Y758500D03*
X505000Y726000D03*
X516000Y730500D03*
X515500Y746500D03*
X494000Y747000D03*
X526500Y745000D03*
X525000Y722500D03*
X512400Y733700D03*
X496800Y740700D03*
X520000Y727500D03*
Y731000D03*
X103000Y763000D03*
X172000Y779600D03*
X220800Y770800D03*
X279000Y779500D03*
X325000Y773500D03*
X301000Y765500D03*
X312000Y783500D03*
X336000Y786000D03*
X360000Y779500D03*
X349600Y782000D03*
X400000Y780500D03*
X395000Y787000D03*
X382500Y766000D03*
X405000Y773000D03*
X410000Y780500D03*
X415000D03*
X438000Y787000D03*
X443500Y769000D03*
X420000Y766500D03*
X439500Y763300D03*
X410000Y765500D03*
X446000Y772500D03*
X420000Y773000D03*
X425500D03*
X438600Y766500D03*
X441500D03*
X455000Y764000D03*
X457000Y781000D03*
X452500Y763500D03*
X478000Y764000D03*
X482650Y763950D03*
X488000Y763400D03*
X480200Y764000D03*
X453500Y774000D03*
X468300Y764000D03*
X521000Y763500D03*
X515500Y765500D03*
G54D65*
X519200Y461400D03*
X512200Y457400D03*
X519200Y453400D03*
X512200Y449400D03*
X519200Y445400D03*
X512200Y441400D03*
X519200Y437400D03*
X512200Y433400D03*
G54D79*
X230000Y550000D03*
X400000D03*
X330000Y740000D03*
G54D80*
X240000Y550000D03*
X230000Y540000D03*
X240000D03*
X230000Y530000D03*
X240000D03*
X230000Y520000D03*
X240000D03*
X230000Y510000D03*
X240000D03*
X230000Y500000D03*
X240000D03*
X230000Y490000D03*
X240000D03*
X230000Y480000D03*
X240000D03*
X230000Y470000D03*
X240000D03*
X230000Y460000D03*
X240000D03*
X410000Y550000D03*
X400000Y540000D03*
X410000D03*
X400000Y530000D03*
X410000D03*
X400000Y520000D03*
X410000D03*
X400000Y510000D03*
X410000D03*
X400000Y500000D03*
X410000D03*
X400000Y490000D03*
X410000D03*
X400000Y480000D03*
X410000D03*
X400000Y470000D03*
X410000D03*
X400000Y460000D03*
X410000D03*
X270000Y720000D03*
X260000D03*
X270000Y730000D03*
X260000D03*
X270000Y740000D03*
X260000D03*
X270000Y750000D03*
X260000D03*
X270000Y760000D03*
X260000D03*
X270000Y770000D03*
X260000D03*
X270000Y780000D03*
X260000D03*
X330000Y750000D03*
X340000Y740000D03*
Y750000D03*
X350000Y740000D03*
Y750000D03*
X360000Y740000D03*
Y750000D03*
X370000Y740000D03*
Y750000D03*
X380000Y740000D03*
Y750000D03*
X390000Y740000D03*
Y750000D03*
X400000Y740000D03*
Y750000D03*
X410000Y740000D03*
Y750000D03*
X420000Y740000D03*
Y750000D03*
G54D126*
X121000Y679000D03*
G54D174*
X172000Y732154D03*
Y738846D03*
X319000Y178654D03*
Y185346D03*
G54D179*
X132154Y743000D03*
X138846D03*
X137346Y729500D03*
X130654D03*
X131154Y760000D03*
X137846D03*
X475146Y668300D03*
X468454D03*
X481746Y452400D03*
X475054D03*
X462146Y452800D03*
X455454D03*
X493054Y448400D03*
X499746D03*
X494654Y432400D03*
X501346D03*
G54D243*
X102200Y159000D02*
Y302200D01*
X120000Y320000*
X102200Y159000D02*
X102500Y158700D01*
Y158500*
X105500Y155500*
X138500*
X140000Y157000*
X177500*
X105000Y169279D02*
Y295000D01*
X130000Y320000*
X105000Y169279D02*
X111779Y162500D01*
X148500*
X152000Y166000*
X320988Y192205D02*
Y188496D01*
X321569Y187916*
X303272Y192205D02*
X303315Y187205D01*
X319000Y185346D02*
Y188372D01*
X319020Y188392*
Y192205*
X368000Y200000D02*
Y192000D01*
X368232Y191768*
Y192205*
X346500Y200000D02*
Y192000D01*
X346579Y191921*
Y192205*
X348500Y198500D02*
Y191500D01*
X348547Y191453*
Y192205*
X350500Y197000D02*
X350516Y191500D01*
Y192205*
X366264D02*
Y197664D01*
X366300Y197700*
Y201500*
X364295Y192205D02*
Y193295D01*
X364500Y193500*
Y203000*
X362357Y187205D02*
X362327Y192205D01*
Y192827*
X362500Y193000*
Y204500*
X356515Y187205D02*
X356421Y192205D01*
Y195143*
X356500Y195221*
Y206000*
X354453Y192205D02*
Y195953D01*
X354500Y196000*
Y207500*
X340673Y192205D02*
Y192673D01*
X341000Y193000*
Y201500*
X338705Y192205D02*
Y193205D01*
X339000Y193500*
Y203000*
X336736Y192205D02*
Y192736D01*
X337000Y193000*
Y204500*
X334768Y192205D02*
Y193268D01*
X335000Y193500*
Y206000*
X332799Y192205D02*
Y192799D01*
X333000Y193000*
Y207500*
X370000Y198500D02*
Y191500D01*
X370201Y191299*
Y192205*
X372000Y197000D02*
X372169Y191500D01*
Y192205*
X506900Y187100D02*
Y251400D01*
X508000Y252500*
Y278000*
X506900Y187100D02*
X512400Y181600D01*
X106000Y203500D02*
X107500Y202000D01*
Y180500*
X106000Y203500D02*
Y256000D01*
X120000Y270000*
X180000Y210000D02*
Y205797D01*
X187879Y197918*
Y177372*
X212951Y152300*
X371917*
X391854Y172238*
Y192205*
X180000Y220000D02*
X192708Y207292D01*
Y173675*
X213283Y153100*
X371585*
X389886Y171400*
Y192205*
X180000Y230000D02*
X197038Y212962D01*
Y170476*
X213614Y153900*
X371254*
X387917Y170563*
Y192205*
X180000Y240000D02*
X199769Y220231D01*
Y168876*
X213945Y154700*
X342988*
X372169Y183881*
Y192205*
X244500Y224000D02*
Y313570D01*
X252000Y321070*
Y439390*
X261000Y448390*
Y524670*
X259000Y206000D02*
Y442758D01*
X262600Y446358*
Y526225*
X110000Y280000D02*
X133600Y303600D01*
X120000Y280000D02*
X155000Y315000D01*
Y655000*
X130000Y270000D02*
Y261950D01*
X130500Y261450*
Y255500*
X180000Y250000D02*
X202500Y227500D01*
Y167277*
X214277Y155500*
X342657*
X370201Y183044*
Y192205*
X180000Y260000D02*
X204579Y235421D01*
Y166329*
X214608Y156300*
X342325*
X368232Y182207*
Y192205*
X180000Y270000D02*
X206157Y243843D01*
Y165882*
X214939Y157100*
X341994*
X366264Y181370*
Y192205*
X180000Y280000D02*
X207527Y252473D01*
X207527D02*
Y165643D01*
X207527D02*
X215271Y157900D01*
X341663*
X364295Y180533*
Y192205*
X180000Y290000D02*
X208500Y261500D01*
Y198106*
X247606Y159000*
X336152*
X362357Y185206*
Y187205*
X180000Y300000D02*
X209500Y270500D01*
Y198237*
X247737Y160000*
X331372*
X356515Y185143*
Y187205*
X180000Y310000D02*
X212500Y277500D01*
Y204769*
X254269Y163000*
X329500*
X354453Y187953*
Y192205*
X180000Y320000D02*
X215600Y284400D01*
Y202800*
X254400Y164000*
X310000*
X321569Y175569*
Y187916*
X248000Y314500D02*
X255500Y322000D01*
Y441074*
X261800Y447374*
Y525447*
X242000Y286000D02*
Y313490D01*
X247000Y318490*
Y327900*
X262000Y293000D02*
Y442562D01*
X272500Y453062*
Y559236*
X300500Y587236*
Y590354*
X302146Y592000*
X304947*
X309000Y596053*
Y596079*
X314561Y601639*
X260500Y303500D02*
Y442660D01*
X263400Y445560*
Y526804*
X510500Y300500D02*
Y272538D01*
X520000Y263038*
Y230000*
X114000Y358989D02*
Y383537D01*
X114100Y383637*
X114000Y358989D02*
X120000Y352989D01*
Y330000*
X102700Y332209D02*
Y701200D01*
X106000Y704500*
X102700Y332209D02*
X109909Y325000D01*
X121311*
X126311Y330000*
X130000*
X180000D02*
X220400Y289600D01*
Y237670*
X220600Y237470*
Y214300*
X256900Y178000*
X311457*
X318803Y185346*
X319000*
X180000Y340000D02*
X224400Y295600D01*
Y234802*
X277602Y181600*
X303116*
X309177Y187661*
Y192205*
X180000Y350000D02*
X228400Y301600D01*
Y231933*
X277933Y182400*
X302785*
X302785D02*
X307209Y186824D01*
Y192205*
X180000Y360000D02*
X232000Y308000D01*
Y229464*
X278264Y183200*
X302453*
X305240Y185987*
Y192205*
X245200Y325200D02*
Y462685D01*
X252300Y469785*
Y557514*
X266100Y358500D02*
Y434972D01*
X301300Y470172*
Y564940*
X320500Y584140*
Y602200*
X322250Y603950*
X322450Y603750*
X266100Y358500D02*
X267498Y357102D01*
Y357100*
X281500Y343098*
Y259500*
X524800Y338300D02*
Y324011D01*
X526800Y322011*
Y251200*
X124100Y386100D02*
X122500Y384500D01*
Y352114*
X133600Y341014*
Y303600*
X207500Y379500D02*
Y397123D01*
X213600Y403223*
Y422146*
X180000Y370000D02*
X235550Y314450D01*
Y227046*
X278596Y184000*
X302122*
X303315Y185193*
Y187205*
X268800Y398116D02*
X288000Y378916D01*
Y274500*
X268800Y398116D02*
Y431556D01*
X308000Y470756*
Y559236*
X310400Y561636*
Y565200*
X267800Y377957D02*
Y433614D01*
X306500Y472314*
Y559236*
X308000Y560736*
Y565200*
X267800Y377957D02*
X283500Y362257D01*
Y254000*
X113500Y425000D02*
Y408100D01*
X114100Y407500*
Y383637*
X120000Y430000D02*
Y434183D01*
X124746Y438929*
X199500Y440500D02*
X202100Y443100D01*
Y573900*
X188500Y434500D02*
Y462174D01*
X194000Y467674*
Y641746*
X180000Y430000D02*
X186000Y436000D01*
Y467837*
X190000Y471837*
Y579285*
X247500Y436630D02*
X256500Y445630D01*
Y499000*
X258500Y501000*
Y523000*
X247500Y436630D02*
Y345200D01*
X247600*
X210000Y430000D02*
Y425746D01*
X213600Y422146*
X276900Y424423D02*
X285623Y415700D01*
X290553*
X297500Y408753*
Y364000*
X276900Y424423D02*
Y431577D01*
X282770Y437447*
X336200*
X388400Y489647*
Y552871*
X275300Y432240D02*
Y421966D01*
X277800Y419466*
Y414800*
X275300Y432240D02*
X300060Y457000D01*
X304521*
X321700Y474179*
Y484915*
X327285Y490500*
X354753*
X359300Y495047*
Y513841*
X276100Y431908D02*
X282692Y438500D01*
X336121*
X387600Y489979*
Y551930*
X276100Y431908D02*
Y423942D01*
X292500Y407542*
Y354000*
X287775Y440425D02*
X295600Y448250D01*
X296903*
X322850Y474197*
Y484934*
X327566Y489650*
X355034*
X360100Y494716*
Y519350*
X287775Y440425D02*
X288000Y440200D01*
X271500Y415500D02*
Y431062D01*
X314800Y474362*
Y522265*
X317800Y525265*
Y549228*
X319600Y551028*
Y554685*
X326400Y561485*
Y601650*
X271500Y415500D02*
X290000Y397000D01*
Y244400*
X273600Y410000D02*
X270000Y413600D01*
Y431159*
X313700Y474859*
Y526600*
X316900Y529800*
Y549706*
X318800Y551606*
Y556659*
X324900Y562759*
Y606821*
X326879Y608800*
X329150*
X330300Y607650*
X262900Y441074D02*
X276200Y454374D01*
Y558521*
X289379Y571700*
X305953*
X318650Y584397*
Y601550*
X262900Y441074D02*
Y347200D01*
X264000Y346100*
Y334500*
X263700Y438390D02*
Y357699D01*
X278000Y343399*
Y284000*
X263700Y438390D02*
X280900Y455590D01*
Y548400*
X282250Y549750*
Y560750*
X274000Y419500D02*
Y432251D01*
X315800Y474051*
Y519799*
X318600Y522599*
Y547855*
X328700Y557955*
Y604000*
X329000Y605550*
X266500Y438500D02*
X291200Y463200D01*
Y543200*
X292500Y544500*
Y564900*
X292175Y441425D02*
X324250Y473500D01*
Y485203*
X327697Y488650*
X355165*
X360900Y494385*
Y525374*
X292175Y441425D02*
X292200Y441400D01*
X411500Y416500D02*
X419700Y424700D01*
Y432100*
X113200Y471003D02*
Y609298D01*
X114500Y610598*
X113200Y471003D02*
X120000Y464203D01*
Y460000*
X114000Y479424D02*
Y598196D01*
X115800Y599996*
X114000Y479424D02*
X118924Y474500D01*
X119500*
X120000Y474000*
Y470000*
X115000Y479555D02*
Y585732D01*
X116600Y587332*
X115000Y479555D02*
X119055Y475500D01*
X119945*
X123850Y471595*
Y458053*
X126000Y448183D02*
Y709500D01*
X128500Y712000*
X126000Y448183D02*
X130000Y444183D01*
Y440000*
X120000Y450000D02*
Y454203D01*
X123850Y458053*
X130000Y460000D02*
X148500Y478500D01*
Y612500*
X130000Y470000D02*
X146000Y486000D01*
Y615500*
X193500Y450000D02*
X194000Y450500D01*
X201300Y457800*
Y543700*
X205000Y460000D02*
Y576458D01*
X211000Y582458*
Y624000*
X180000Y470000D02*
X189000Y479000D01*
Y566566*
X180000Y480000D02*
X188000Y488000D01*
X246000Y450970D02*
Y328900D01*
X247000Y327900*
X246000Y450970D02*
X253100Y458070D01*
Y560800*
X254900Y562600*
Y574998*
X256400Y576498*
Y596499*
X263600Y603699*
Y613540*
X235100Y469050D02*
Y559144D01*
X237500Y561544*
X235100Y469050D02*
X240000Y464150D01*
Y460000*
X213000Y455500D02*
X230000Y438500D01*
Y430000*
X240000Y470000D02*
X251500Y481500D01*
Y551401*
X240000Y480000D02*
X248500Y488500D01*
X254000Y445500D02*
Y498000D01*
X257000Y501000*
Y569941*
X259500Y572441*
Y593047*
X274920Y608466*
Y609920*
X276500Y611500*
X259500Y479000D02*
Y501189D01*
X260000Y501689*
Y524065*
X296525Y443375D02*
X325850Y472700D01*
Y485671*
X327779Y487600*
X355247*
X363950Y496303*
Y563250*
X296525Y443375D02*
X296700Y443200D01*
X318850Y475250D02*
Y484650D01*
X319100Y484900*
Y498150*
X311900Y466500D02*
X316055Y470655D01*
X316377*
X320500Y474779*
Y484847*
X327353Y491700*
X354821*
X358500Y495379*
Y508333*
X301600Y445200D02*
X304021D01*
X328400Y469579*
Y476821*
X332579Y481000*
X358121*
X371200Y494079*
Y501600*
X310450Y453750D02*
X326950Y470250D01*
Y477700*
X332200Y482950*
X357950*
X364000Y489000*
X330300Y476600D02*
X363300D01*
X365200Y478500*
X374000*
X332800Y478450D02*
X356703D01*
X372700Y494447*
X393000Y471151D02*
Y585479D01*
X394500Y586979*
Y595500*
X393000Y471151D02*
X400000Y464151D01*
Y460000*
Y442879*
X405079Y437800*
X414000*
X419700Y432100*
X422000Y451300D02*
X426800Y456100D01*
Y504300*
X432500Y510000*
X422000Y451300D02*
Y403200D01*
X422200*
X410000Y470000D02*
X422000Y482000D01*
Y651000*
X410000Y480000D02*
X420500Y490500D01*
Y656000*
X130000Y490000D02*
Y494183D01*
X134400Y498583*
X176054Y498365D02*
Y531871D01*
X180000Y535817*
Y540000*
X176054Y498365D02*
X179419Y495000D01*
X183500*
X186500Y492000*
X180000Y510000D02*
Y514183D01*
X186500Y520683*
Y556000*
X215844Y484156D02*
Y657344D01*
X223500Y665000*
X215844Y484156D02*
X230000Y470000D01*
X240000Y490000D02*
Y494150D01*
X247100Y501250*
Y613138*
X240000Y500000D02*
Y504150D01*
X246300Y510450*
Y612411*
X240000Y510000D02*
Y514151D01*
X245500Y519651*
X240000Y520000D02*
Y524151D01*
X244500Y528651*
X230000Y520000D02*
Y524150D01*
X234200Y528350*
Y559652*
X236600Y562052*
Y593600*
X270500Y483000D02*
Y520600D01*
X271500Y521600*
Y560733*
X298450Y587683*
Y589703*
X301547Y592800*
X302849*
X304199Y594150*
X305834*
X312650Y600966*
Y602097*
X313750Y603197*
Y607250*
X274550Y502850D02*
Y558671D01*
X296379Y580500*
X304154*
X308400Y584746*
Y590375*
X318900Y518062D02*
Y498350D01*
X319100Y498150*
X318900Y518062D02*
X320200Y519362D01*
Y547145*
X333000Y559945*
Y590500*
X322000Y521200D02*
X343600D01*
X320800Y512400D02*
X347000D01*
X320400Y503100D02*
X337900D01*
X338800Y504000*
X356400*
X320800Y505600D02*
X337200D01*
X339200Y507600*
X355200*
X321600Y518400D02*
X343600D01*
X312000Y486500D02*
Y526100D01*
X315800Y529900*
Y549984*
X318000Y552184*
Y558633*
X322000Y562633*
Y575600*
X304500Y509500D02*
Y566640D01*
X322600Y584740*
X320800Y496600D02*
X338800D01*
X338900Y496500*
X357000*
X320900Y509900D02*
X335700D01*
X336200Y510400*
X350900*
X328150Y485850D02*
X332150Y485800D01*
X354578*
X365450Y496672*
X317600Y493400D02*
Y518133D01*
X319400Y519933*
Y547500*
X331500Y559600*
Y562000*
X364000Y489000D02*
Y492300D01*
X366250Y494550*
X377200Y503200D02*
Y503350D01*
Y523951*
X379000Y525751*
X382400Y507100D02*
Y507200D01*
Y527083*
X382800Y527483*
Y545793*
X382400Y507200D02*
X382450Y507250D01*
X377200Y503350D02*
X377100Y503450D01*
X377200Y504000*
X372000Y507650D02*
X372700Y506950D01*
Y494447*
X372000Y507650D02*
Y544440D01*
X373300Y545740*
X395100Y519102D02*
Y558550D01*
X401200Y564650*
X395100Y519102D02*
X399402Y514800D01*
X400998*
X404100Y511698*
Y504100*
X394000Y516000D02*
Y585169D01*
X396000Y587169*
Y598561*
X396500Y599061*
Y604500*
X394000Y516000D02*
X400000Y510000D01*
X379200Y521200D02*
Y523600D01*
X379800Y524200*
Y538035*
X382400Y507600D02*
X382450Y507250D01*
X386000Y518400D02*
Y520789D01*
X386800Y521589*
Y550989*
X395200Y496500D02*
X395500Y496400D01*
Y505500*
X400000Y510000*
X371200Y501600D02*
Y566130D01*
X372500Y567430*
X380800Y510400D02*
Y532147D01*
X382000Y533347*
Y542792*
X400000Y500000D02*
X404100Y504100D01*
X400000Y520000D02*
X404975Y515025D01*
Y454785*
X405500Y454260*
Y439500*
X439500Y485800D02*
X447300D01*
X448600Y484500*
X496221*
X517500Y505779*
Y653500*
X455500Y486000D02*
Y557700D01*
X505500Y510300D02*
Y566500D01*
X120000Y550000D02*
X123946Y553946D01*
X175254Y540254D02*
X175500Y540500D01*
Y551081*
X179419Y555000*
X180581*
X184000Y558419*
Y572867*
X175254Y540254D02*
Y468929D01*
X180000Y464183*
Y460000*
X186500Y558500D02*
X188000Y557000D01*
Y488000*
X170000Y540000D02*
Y544183D01*
X174500Y548683*
Y554856*
X175000Y555356*
Y560500*
X216644Y548374D02*
X218018Y547000D01*
X222121*
X224000Y545121*
Y536000*
X230000Y530000*
X216644Y548374D02*
Y598644D01*
X222000Y604000*
X220187Y548374D02*
X220561Y548000D01*
X222253*
X225950Y544302*
Y544050*
X230000Y540000*
X220187Y548374D02*
Y575846D01*
X224100Y579759*
Y629000*
X235900Y538250D02*
Y558480D01*
X238300Y560880*
X235900Y538250D02*
X240000Y534150D01*
Y530000*
X225000Y555000D02*
X228500Y558500D01*
X221500Y545500D02*
Y508500D01*
X230000Y500000*
X254939Y560561D02*
X256000Y561621D01*
Y574218*
X257200Y575418*
Y593116*
X264400Y600316*
Y614163*
X254939Y560561D02*
X255000Y560500D01*
X263500Y544500D02*
Y560821D01*
X296863Y594185*
X299455*
X300471Y595200*
X301526*
X305488Y599163*
X305488D02*
X306463D01*
X306463D02*
X308850Y601550D01*
X287500Y526000D02*
X287750Y525750D01*
X290000Y528000*
Y565000*
X315500Y553500D02*
Y576140D01*
X324100Y584740*
X322000Y526800D02*
X343200D01*
X321100Y552500D02*
X327900Y559300D01*
Y603400*
X322000Y539500D02*
X340500D01*
X312800Y539600D02*
X314800Y541600D01*
Y550397*
X317200Y552797*
Y561080*
X319300Y563180*
Y567702*
X321800Y546000D02*
X342000D01*
X322000Y542800D02*
X330800D01*
X331500Y543500*
X340500*
X322000Y524400D02*
X343200D01*
X322000Y532800D02*
X343200D01*
X323600Y548400D02*
X329700Y554500D01*
X345500*
X373500Y523450D02*
Y513000D01*
X373600Y512800*
Y512400*
X373500Y523450D02*
X374100Y524050D01*
Y595181*
X403500Y533088D02*
X405850Y530738D01*
Y468301*
X410000Y464151*
Y460000*
X403500Y533088D02*
Y536412D01*
X404150Y537062*
Y543125*
X405500Y544475*
X388000Y560914D02*
Y553271D01*
X388400Y552871*
X388000Y560914D02*
X388200Y561114D01*
Y592363*
X389900Y594063*
Y600561*
X390400Y601061*
Y613221*
X386400Y551389D02*
Y573163D01*
X386600Y573363*
Y593466*
X388282Y595149*
Y602870*
X388800Y603387*
X386400Y551389D02*
X386800Y550989D01*
X395900Y541698D02*
X399202Y545000D01*
X402849*
X404100Y546251*
Y553900*
X395900Y541698D02*
Y534100D01*
X400000Y530000*
X378200Y538461D02*
X379000Y537661D01*
Y525751*
X378200Y538461D02*
Y583009D01*
X378400Y583209*
Y601000*
X404000Y556000D02*
Y554000D01*
X404100Y553900*
X380500Y539500D02*
Y556991D01*
X381000Y557491*
Y585893*
X381500Y586393*
Y593500*
X385000Y550000D02*
Y558550D01*
X385600Y559150*
Y593777*
X387400Y595577*
Y603949*
X388000Y604549*
X410000Y540000D02*
X414200Y544200D01*
X416821*
X419000Y546379*
Y563500*
X507500Y529000D02*
Y624403D01*
X512500Y629403*
Y648900*
X509000Y531000D02*
Y622446D01*
X513300Y626746*
X116054Y570197D02*
X118500Y572644D01*
Y668500*
X116054Y570197D02*
Y518129D01*
X120000Y514183*
Y510000*
X156000Y593200D02*
Y636500D01*
X160000Y640500*
Y667000*
X156000Y593200D02*
X164500Y584700D01*
Y345500*
X170000Y340000*
X157600Y581200D02*
Y242400D01*
X170000Y230000*
X188000Y578500D02*
Y567566D01*
X189000Y566566*
X233050Y578280D02*
X235000Y580230D01*
Y587184*
X233050Y578280D02*
Y561050D01*
X233200*
X232900Y587150D02*
Y626400D01*
X233600Y627100*
X232900Y587150D02*
X233450Y586600D01*
Y584100*
X234600Y563050D02*
Y571600D01*
X235800Y572800*
Y590392*
X236000Y601500D02*
Y594200D01*
X236600Y593600*
X278175Y573375D02*
X278300Y573500D01*
X262000Y562621D02*
Y541360D01*
X262800Y540560*
Y527404*
X263400Y526804*
X262000Y562621D02*
X270000Y570621D01*
Y594500*
X282000Y606500*
X250800Y582261D02*
Y552101D01*
X251500Y551401*
X250800Y582261D02*
X253000Y584461D01*
Y595750*
X258800Y568379D02*
Y530090D01*
X259500Y529390*
Y524565*
X260000Y524065*
X258800Y568379D02*
X262000Y571579D01*
Y593184*
X278816Y610000*
X285146*
X286146Y609000*
X300818*
X303818Y612000*
X309700*
X311300Y613600*
X259600Y567369D02*
Y532878D01*
X260350Y532128*
Y525320*
X261000Y524670*
X259600Y567369D02*
X265000Y572769D01*
Y595053*
X278747Y608800*
X284474*
X285074Y608200*
X302214*
X305114Y611100*
X310450*
X312400Y609150*
X258000Y569372D02*
Y527306D01*
X258500Y526806*
Y523000*
X258000Y569372D02*
X260800Y572172D01*
Y593115*
X281685Y614000*
X301427*
X301927Y613500*
X306500*
X306800Y613600*
X260400Y566244D02*
Y535694D01*
X261175Y534919*
Y526072*
X261800Y525447*
X260400Y566244D02*
X266600Y572444D01*
Y595521*
X279079Y608000*
X283382*
X284382Y607000*
X302423*
X305023Y609600*
X306800*
X261200Y565120D02*
Y538510D01*
X262000Y537710*
Y526825*
X262600Y526225*
X261200Y565120D02*
X268400Y572320D01*
Y595200*
X279600Y606400*
X251600Y581013D02*
Y558214D01*
X252300Y557514*
X251600Y581013D02*
X254000Y583413D01*
Y606000*
X253100Y563000D02*
Y575078D01*
X255600Y577578*
Y600299*
X256400Y601099*
Y617708*
X256800Y618108*
Y684785*
X258000Y573500D02*
Y592731D01*
X273600Y608331*
Y614385*
X278300Y573500D02*
X295372Y590572D01*
X296985*
X300813Y594400*
X301951*
X305026Y597475*
X306896*
X310600Y601179*
Y603550*
X254000Y579000D02*
Y581366D01*
X254800Y582166*
Y602742*
X255600Y603542*
Y622080*
X256000Y622480*
Y683448*
X276000Y579000D02*
X278621D01*
X288000Y588379*
Y589480*
X298120Y599600*
X302579*
X306839Y603861*
X306950Y603750*
X278000Y580500D02*
Y585121D01*
X293879Y601000*
X301900*
X306400Y605500*
X308550*
X276000Y582500D02*
Y592299D01*
X287601Y603900*
X302700*
X306400Y607600*
X310500*
X288000Y566500D02*
Y556450D01*
X288500Y555950*
Y546000*
X275500Y570000D02*
X279321D01*
X296950Y587629*
Y589334*
X301216Y593600*
X302389*
X304589Y595800*
X306353*
X311600Y601047*
Y602304*
X312150Y602854*
Y605350*
X251500Y586000D02*
Y610186D01*
X252500Y611186*
Y682000*
X276450Y576050D02*
X278055Y577655D01*
X278805*
X296150Y595000*
X299130*
X300130Y596000*
X301100*
X306650Y601550*
X285600Y565800D02*
Y558600D01*
X286000Y558200*
Y551000*
X307700Y592550D02*
Y591075D01*
X308400Y590375*
X307700Y592550D02*
X316000Y600850D01*
Y603450*
X318700Y606150*
X314500Y601700D02*
X314561Y601639D01*
X295000Y577000D02*
X310121D01*
X317050Y583929*
Y602079*
X318761Y603789*
X318800Y603750*
X322550Y601550D02*
X322600D01*
Y584740*
X318500Y571000D02*
Y568502D01*
X319300Y567702*
X332150Y601550D02*
Y591350D01*
X333000Y590500*
X335500Y587500D02*
X341000Y582000D01*
X341621*
X348200Y575421*
Y524941*
X359300Y513841*
X344400Y577100D02*
Y567050D01*
X347150Y564300*
Y519683*
X358500Y508333*
X334350Y601550D02*
X347772Y588128D01*
X360600*
X363900Y584828*
Y563250*
X363950*
X343200Y584450D02*
X350400Y577250D01*
Y535874*
X360900Y525374*
X338500Y587000D02*
X349250Y576250D01*
Y530200*
X360100Y519350*
X392000Y588930D02*
X392800Y589730D01*
Y597861*
X394000Y599061*
X392000Y588930D02*
Y438500D01*
X392001Y438488*
X392200Y438500*
X373900Y601000D02*
Y595381D01*
X374100Y595181*
X373900Y601000D02*
X374500Y602500D01*
X389000Y573000D02*
X389500Y572500D01*
Y554500*
X389000Y573000D02*
Y591811D01*
X391000Y593811*
Y599698*
X392000Y600698*
X387200Y567038D02*
Y552330D01*
X387600Y551930*
X387200Y567038D02*
X387400Y567238D01*
Y592915*
X389100Y594615*
Y601724*
X389600Y602224*
Y607400*
X381900Y579223D02*
Y542892D01*
X382000Y542792*
X381900Y579223D02*
X382400Y579723D01*
Y589947*
X383149Y590696*
Y594809*
X383449Y596509*
X383500Y596500*
X382700Y572453D02*
Y545893D01*
X382800Y545793*
X382700Y572453D02*
X383600Y573353D01*
Y587684*
X384000Y588084*
Y594767*
X385000Y595767*
Y602500*
X383500Y565226D02*
Y547802D01*
X385200Y546102*
Y522400*
X383500Y565226D02*
X384400Y566126D01*
Y585169*
X384800Y585569*
Y594288*
X386500Y595988*
Y606000*
X379000Y569650D02*
Y538835D01*
X379800Y538035*
X379000Y569650D02*
X380000Y570650D01*
Y599000*
X375400Y599900D02*
Y563500D01*
X376000Y562900*
Y526500*
X390500Y590000D02*
Y591700D01*
X392000Y593200*
Y598879*
X392800Y599679*
X425000Y586000D02*
Y642189D01*
X425500Y642689*
Y670061*
X426000Y670561*
Y679500*
X425000Y586000D02*
Y579000D01*
X432500Y571500*
Y510000*
X435500Y600000D02*
Y604203D01*
X439350Y608053*
X435500Y590000D02*
Y594203D01*
X441000Y599703*
Y644500*
X201000Y606000D02*
Y575000D01*
X202100Y573900*
X198500Y608000D02*
Y546500D01*
X201300Y543700*
X180000Y609500D02*
Y576867D01*
X184000Y572867*
X183500Y625500D02*
Y585785D01*
X190000Y579285*
X233700Y624660D02*
X234400Y625360D01*
Y648600*
X233700Y624660D02*
Y588484D01*
X235000Y587184*
X234500Y623725D02*
X235200Y624425D01*
Y652330*
X234500Y623725D02*
Y591692D01*
X235800Y590392*
X226400Y618131D02*
Y632146D01*
X230000Y635746*
Y640000*
X226400Y618131D02*
X228500Y616031D01*
Y558500*
X245850Y619150D02*
Y612861D01*
X246300Y612411*
X245850Y619150D02*
X246100Y619400D01*
Y621500*
X246850Y615450D02*
Y613388D01*
X247100Y613138*
X246850Y615450D02*
X247350Y615950D01*
Y617900*
X244000Y604500D02*
X242500Y606000D01*
Y634121*
X250000Y641621*
Y659500*
X236700Y635000D02*
Y646150D01*
X238800Y648250*
Y659650*
X236500Y623000D02*
Y612300D01*
X237500Y611300*
Y561544*
X248350Y614400D02*
Y614950D01*
X248500*
Y488500*
X244350Y618650D02*
X244500D01*
Y612683*
X245500Y611683*
Y519651*
X237500Y631500D02*
Y627050D01*
X238300Y626250*
Y560880*
X252500Y608338D02*
Y596250D01*
X253000Y595750*
X252500Y608338D02*
X254500Y610338D01*
Y627000*
X271000Y626379D02*
Y637000D01*
X272000Y638000*
X271000Y626379D02*
X277979Y619400D01*
X307079*
X308989Y617489*
X268000Y634750D02*
Y619985D01*
X273600Y614385*
X268000Y634750D02*
X268500Y635250D01*
Y645121*
X259500Y620500D02*
Y642944D01*
X261800Y645244*
X259500Y620500D02*
X270000Y610000D01*
X269500Y625500D02*
X269589Y625589D01*
X279179Y616000*
X300950*
X302550Y617600*
X306750*
X270000Y623000D02*
X277900Y615100D01*
X307500*
X309000Y613600*
X272500Y627000D02*
X279000Y620500D01*
X300500*
X301550Y621550*
X306650*
X328625Y622375D02*
X330050Y620950D01*
X332301*
X333251Y620000*
X335169*
X336169Y621000*
X367868*
X379318Y609550*
X385071*
X388000Y606621*
Y604549*
X328625Y622375D02*
X328700Y622450D01*
X314500Y639123D02*
Y654399D01*
X319950Y659849*
Y672300*
X314500Y639123D02*
X320650Y632973D01*
Y626750*
X322400Y625000*
X328900Y638854D02*
X330000Y639954D01*
Y667305*
X330600Y667905*
Y691517*
X337000Y697917*
Y734000*
X328900Y638854D02*
Y625650D01*
X329050*
X313700Y636785D02*
X317729Y632757D01*
Y630400*
X318789Y629339*
X313700Y636785D02*
Y654877D01*
X317500Y658677*
Y662000*
X308950Y617450D02*
X308989Y617489D01*
X322600Y629450D02*
Y633950D01*
X322663Y634013*
Y643437*
X322400Y606000D02*
X322675Y606275D01*
X324100Y604850*
Y584740*
X308550Y605500D02*
X308700D01*
X327500Y607300D02*
Y603800D01*
X327900Y603400*
X318700Y629250D02*
X318789Y629339D01*
X311950Y605350D02*
X312150D01*
X315100Y610500D02*
X315192Y610408D01*
X318408Y613624*
Y613531*
X318500*
X326350Y629300D02*
Y637504D01*
X329000Y640154*
Y668500*
X318500Y617469D02*
Y619350D01*
X318700Y619550*
Y621300*
X330500Y623850D02*
X331771Y623000D01*
X378500*
X381800Y619700*
X334400Y621500D02*
X335980Y622000D01*
X370745*
X380345Y612400*
X383353*
X388800Y606953*
Y603387*
X334450Y613550D02*
X347600Y600400D01*
X360695*
X369270Y591825*
Y591730*
X371000Y590000*
X330450Y627400D02*
Y634447D01*
X331000Y634997*
Y667100*
X331550Y667650*
Y689616*
X338500Y696566*
Y735162*
X334400Y617300D02*
X342250Y609450D01*
X354803*
X373300Y590953*
Y545740*
X332100Y617300D02*
X334000Y615400D01*
X334945*
X348495Y601850*
X361271*
X372500Y590621*
Y567430*
X334450Y629450D02*
Y644650D01*
X335000Y645200*
Y671050*
X329900Y613750D02*
X331855Y611795D01*
Y610023*
X349529Y592350*
X357510*
X365450Y584410*
Y496672*
X332250Y613600D02*
X334200Y611650D01*
X334945*
X347195Y599400*
X351591*
X366250Y584741*
Y494550*
X330250Y603600D02*
Y583400D01*
X331500Y582150*
Y562000*
X334150Y627150D02*
X334166Y627247D01*
X334450Y627200*
Y627150*
X339650*
X339800Y627000*
X344000*
X347500Y630500*
X374253*
X392000Y612753*
Y600698*
X332250Y625300D02*
X378321D01*
X390400Y613221*
X346028Y639300D02*
Y639500D01*
X406400Y637850D02*
Y662685D01*
X407050Y663335*
X406400Y637850D02*
X410000Y634250D01*
Y630000*
X376900Y603000D02*
X377500Y603600D01*
Y606500*
X376900Y603000D02*
Y569650D01*
X377350Y569200*
Y537000*
X377500*
X381500Y615500D02*
X389600Y607400D01*
X418000Y630500D02*
Y646550D01*
X418050*
X418000Y630500D02*
X419000Y629500D01*
Y563500*
X414500Y639000D02*
Y647154D01*
X415200Y647854*
Y654400*
X416000Y655200*
Y658000*
X414500Y639000D02*
Y584745D01*
X417500Y581745*
Y547000*
X416000Y621000D02*
Y651524D01*
X417500Y653024*
X445500Y620000D02*
X471500Y646000D01*
X511000*
X445500Y610000D02*
X457500D01*
X485500Y638000*
X410000Y640000D02*
Y644254D01*
X414000Y648254*
Y662000*
X520000Y612000D02*
Y626000D01*
X536000Y642000*
Y684000*
X116463Y660895D02*
Y707463D01*
X120500Y711500*
X116463Y660895D02*
X116600Y660758D01*
Y587332*
X110500Y648500D02*
Y645627D01*
X112000Y644127*
Y449846*
X115500Y446346*
Y404052*
X124100Y395452*
Y386100*
X114000Y650000D02*
Y646753D01*
X115800Y644953*
Y599996*
X124000Y665500D02*
Y660611D01*
X124746Y659864*
Y438929*
X119500Y672000D02*
X122500Y669000D01*
Y613010*
X123946Y611564*
Y553946*
X112000Y664000D02*
Y645627D01*
X114500Y643127*
Y610598*
X173000Y670000D02*
X162000Y659000D01*
Y607600*
X165313Y604287*
X165313D02*
Y378890D01*
X165313D02*
X170000Y374203D01*
Y370000*
X129500Y664000D02*
Y660611D01*
X130500Y659611*
Y614850*
X134400Y610950*
Y498583*
X163500Y654000D02*
X166131Y651369D01*
Y508071*
X170000Y504203*
Y500000*
X190000Y677000D02*
Y650000D01*
Y645746*
X194000Y641746*
X225600Y651346D02*
Y595400D01*
X227000Y594000*
Y570000*
X225600Y651346D02*
X230000Y655746D01*
Y660000*
X241700Y656850D02*
Y592050D01*
X243550Y590200*
Y576050*
X241700Y656850D02*
X244000Y659150D01*
Y683000*
X230000Y650000D02*
Y645750D01*
X233600Y642150*
Y627100*
X230000Y670000D02*
Y665750D01*
X233600Y662150*
Y649400*
X234400Y648600*
X230000Y680000D02*
Y675750D01*
X234400Y671350*
Y653130*
X235200Y652330*
X257900Y651782D02*
Y619240D01*
X263600Y613540*
X257900Y651782D02*
X259500Y653382D01*
Y659000*
X258700Y647332D02*
Y619863D01*
X264400Y614163*
X258700Y647332D02*
X261000Y649632D01*
Y663636*
X270300Y650988D02*
Y667045D01*
X271000Y667745*
X270300Y650988D02*
X272000Y649288D01*
Y638000*
X271100Y651476D02*
Y654080D01*
X274400Y657380*
X271100Y651476D02*
X275500Y647076D01*
Y635500*
X281700Y666200D02*
Y653546D01*
X298196Y637050*
X301271*
X308475Y629846*
X309100Y628350*
X287400Y657850D02*
X292150Y653100D01*
X301434*
X304384Y650150*
X307503*
X310500Y647153*
Y633450*
X314600Y629350*
X266500Y679000D02*
Y664000D01*
X268000Y662500*
Y647500*
X263500Y679500D02*
Y648000D01*
X267000Y644500*
X269500Y681000D02*
Y650500D01*
X270500Y649500*
Y648000*
X277500Y656500D02*
X289155Y644845D01*
Y644423*
X304279Y629300*
X306900*
X254000Y679500D02*
Y658250D01*
X254500Y657750*
Y636500*
X286550Y654150D02*
X289250Y651450D01*
X299621*
X301750Y649321*
Y638727*
X311000Y629477*
Y626450*
X308000Y655147D02*
X312575Y650572D01*
Y636086*
X316914Y631746*
Y628836*
X318700Y627050*
X308000Y655147D02*
Y674750D01*
X308500Y675250*
X305500Y652379D02*
X306679Y651200D01*
X307584*
X311450Y647334*
Y635386*
X316100Y630736*
Y627250*
X318550Y624800*
X305500Y652379D02*
Y658050D01*
X306150Y658700*
Y664650*
X322600Y653714D02*
Y643500D01*
X322663Y643437*
X322600Y653714D02*
X325500Y656614D01*
Y662800*
X299200Y654700D02*
Y679700D01*
X305500Y686000*
X303400Y654400D02*
Y673400D01*
X307000Y677000*
Y691000*
X314000Y657500D02*
Y667250D01*
X315500Y668750*
Y672500*
X309500Y659000D02*
Y667250D01*
X310000Y667750*
Y676000*
X324500Y668500D02*
Y663800D01*
X325500Y662800*
X290400Y657600D02*
Y665250D01*
X291000Y665850*
Y673500*
X292600Y656450D02*
Y662750D01*
X294500Y664650*
Y671000*
X321400Y657000D02*
Y660450D01*
X321500Y660550*
Y664000*
X312000Y659000D02*
Y685500D01*
X364100Y644972D02*
X392800Y616272D01*
Y599679*
X364100Y644972D02*
Y692500D01*
X364500Y692900*
Y728000*
X332000Y666795D02*
Y645000D01*
X332200Y644800*
Y629450*
X332000Y666795D02*
X332650Y667445D01*
Y683678*
X340000Y691028*
Y740000*
X357000Y661561D02*
X357500Y662061D01*
Y676500*
X357000Y661561D02*
Y646429D01*
X357500Y645929*
Y642500*
X349500Y656000D02*
Y659500D01*
X350500Y660500*
Y664000*
X352500Y655500D02*
Y709000D01*
X333500Y659500D02*
Y666000D01*
X334500Y677500D02*
Y671550D01*
X335000Y671050*
X406400Y667465D02*
Y682550D01*
X406750Y682900*
Y685400*
X406400Y667465D02*
X407050Y666815D01*
Y663335*
X374800Y669600D02*
Y674800D01*
X380000Y680000*
X403600Y672400D02*
Y645250D01*
X404500Y644350*
Y611500*
X399200Y647200D02*
Y624812D01*
X402000Y622012*
Y564000*
X404000Y562000*
Y556000*
X394800Y672400D02*
Y618201D01*
X401200Y611801*
Y564650*
X388000Y648000D02*
Y625391D01*
X394000Y619391*
Y599061*
X401500Y652000D02*
Y645850D01*
X403000Y644350*
Y587505*
X405000Y585505*
Y557750*
X405500Y557250*
Y544475*
X404500Y679000D02*
Y700246D01*
X410000Y705746*
Y710000*
X375600Y656400D02*
Y665600D01*
X380000Y670000*
X405550Y665150D02*
Y612751D01*
X406500Y611801*
Y559000*
X380000Y660000D02*
Y664254D01*
X383600Y667854*
X370000Y680000D02*
X373600Y683600D01*
X381491*
X383600Y681491*
Y667854*
X370000Y660000D02*
X374800Y664800D01*
Y669600*
X389900Y664676D02*
Y646209D01*
X390000Y646109*
Y629500*
X389900Y664676D02*
Y668636D01*
X392400Y671136*
Y678000*
X394800Y680400*
Y682400*
X389900Y674124D02*
Y677966D01*
X389972Y678038*
Y680600*
X446400Y667850D02*
Y672700D01*
X446500Y672800*
Y675500*
X446400Y667850D02*
X450000Y664250D01*
Y660000*
X436000Y646000D02*
X439350Y642650D01*
Y608053*
X434000Y664500D02*
Y644175D01*
X435500Y642675*
Y620000*
X431500Y665000D02*
Y618203D01*
X435500Y614203*
Y610000*
X427000Y662000D02*
Y586200D01*
X455500Y557700*
X440000Y660000D02*
X444000Y664000D01*
Y683500*
X480000Y654000D02*
Y679500D01*
X481500Y651000D02*
Y681500D01*
X450000Y670000D02*
X461500Y658500D01*
X508000Y653400D02*
X512500Y648900D01*
X507500Y656000D02*
X508730Y654770D01*
X508752*
X513300Y650221*
Y626746*
X220000Y721500D02*
Y748500D01*
X221000Y749500*
X239500Y683500D02*
Y670490D01*
X240500Y669490*
Y566159*
X244500Y562159*
Y528651*
X230000Y710000D02*
Y705750D01*
X235900Y699850*
Y657150*
X280000Y690000D02*
X276400Y693600D01*
Y708900*
X278500Y711000*
Y734500*
X279000Y735000*
Y779500*
X265900Y686986D02*
Y731750D01*
X270000Y735850*
Y740000*
X265900Y686986D02*
X271000Y681886D01*
Y667745*
X262000Y683515D02*
Y673896D01*
X262600Y673296*
Y638500*
X262000Y683515D02*
X263600Y685115D01*
Y692196*
X285500Y694000D02*
Y657629D01*
X290854Y652275*
X300527*
X303692Y649111*
X307410*
X309500Y647021*
Y632777*
X312800Y629477*
Y625050*
X259500Y684500D02*
Y670282D01*
X261800Y667982*
Y645244*
X262500Y695500D02*
Y693296D01*
X263600Y692196*
X270000Y720000D02*
Y716374D01*
X274400Y711974*
Y657380*
X320500Y707000D02*
Y689700D01*
X323000Y687200*
Y663700*
X323600Y663100*
Y657400*
X305350Y705550D02*
X308500Y702400D01*
Y675250*
X348000Y698761D02*
X350000Y700761D01*
Y740000*
X348000Y698761D02*
Y652689D01*
X348500Y652189*
Y648000*
X360500Y697000D02*
Y730412D01*
X364100Y734012*
X395900Y718201D02*
X396500Y717601D01*
Y696000*
X395900Y718201D02*
Y741749D01*
X400000Y745849*
Y750000*
X394000Y697500D02*
Y700246D01*
X394100Y700346*
X400000Y686000D02*
Y740000D01*
X438500Y703500D02*
Y690800D01*
X440000Y689300*
Y670000*
X410000Y700000D02*
X417500Y692500D01*
Y653024*
X485772Y713850D02*
Y714000D01*
X462400Y701200D02*
Y704463D01*
X464400Y706463*
Y720000*
X483700Y701400D02*
Y707700D01*
X483813Y707813*
X478300Y712500D02*
Y709413D01*
X479356Y708357*
X452400Y692950D02*
X459400D01*
X463050Y696600*
X473921*
X479356Y702035*
Y708357*
X465000Y700500D02*
Y705934D01*
X465900Y706834*
X460400Y704400D02*
X463500Y707500D01*
Y716700*
X486000Y711000D02*
X487061Y709939D01*
X492439*
X492500Y710000*
X517500Y685000*
X485772Y714000D02*
Y728900D01*
X486600Y729728*
Y735679*
X522500Y685000D02*
Y758500D01*
X532500Y687500D02*
X536000Y684000D01*
X126000Y760000D02*
X131154D01*
X125500Y730000D02*
X127391D01*
X127891Y729500*
X130654*
X136000Y735000D02*
X150689D01*
X154536Y738846*
X172000*
Y779600*
X239953Y728500D02*
Y729000D01*
X240000*
X239772Y733500D02*
X240000D01*
X265000Y740849D02*
Y648379D01*
X267379Y646000*
X267621*
X268500Y645121*
X265000Y740849D02*
X270000Y745849D01*
Y750000*
X251000Y756798D02*
Y719812D01*
X256000Y714812*
Y687723*
X257600Y686123*
Y667036*
X261000Y663636*
X251000Y756798D02*
X258602Y764400D01*
X265600*
X270000Y760000*
X252500Y749500D02*
Y727500D01*
X260000Y720000*
X270000Y730000D02*
Y725850D01*
X275600Y720250*
Y653622*
X300122Y629100*
X302142*
X304142Y627100*
X307150*
X292000Y761000D02*
X293800D01*
X294800Y762000*
X315500*
X335500Y744500D02*
Y738162D01*
X338500Y735162*
X360000Y779500D02*
Y750000D01*
Y745849*
X364100Y741749*
Y734012*
X397500Y756500D02*
Y767250D01*
X400000Y769750*
Y780500*
X407500Y756000D02*
Y767250D01*
X410000Y769750*
Y780500*
X395000Y758000D02*
Y787000D01*
X390000Y750000D02*
Y745849D01*
X394100Y741749*
Y700346*
X390000Y740000D02*
Y733516D01*
X391500Y732016*
Y692939*
X393000Y691439*
Y685000*
X380000Y740000D02*
X389972Y730028D01*
Y680600*
X415000Y756500D02*
Y780500D01*
X444700Y725800D02*
X444800D01*
Y728739*
X446500Y730439*
X420000Y750000D02*
Y766500D01*
X410000Y750000D02*
Y765500D01*
Y740000D02*
X421000Y729000D01*
Y688500*
X484879Y737400D02*
X486600Y735679D01*
X462900Y725771D02*
X463500Y726371D01*
Y732990*
X462900Y725771D02*
Y717300D01*
X463500Y716700*
X485750Y746550D02*
Y752350D01*
X487950Y754550*
X488700Y729850D02*
X501150D01*
X505000Y726000*
X462500Y736000D02*
Y733990D01*
X463500Y732990*
X467950Y754550D02*
X470485Y752015D01*
Y751694*
X478589Y743589*
X478689*
X484879Y737400*
X477950Y754550D02*
X481015Y751485D01*
X481165*
X483700Y748950*
X472950Y759550D02*
X475440Y762040D01*
X476040*
X478000Y764000*
X220800Y770800D02*
X221000D01*
Y749500*
X250200Y765998D02*
Y715268D01*
X254800Y710668*
Y686785*
X256800Y684785*
X250200Y765998D02*
X258302Y774100D01*
X265900*
X270000Y770000*
X249400Y775198D02*
Y710725D01*
X253600Y706525*
Y685848*
X256000Y683448*
X249400Y775198D02*
X258602Y784400D01*
X265600*
X270000Y780000*
X325000Y773500D02*
Y763626D01*
X330000Y758626*
Y750000*
X301000Y765500D02*
X314121D01*
X317000Y762621*
Y740500*
X336000Y786000D02*
Y762626D01*
X340000Y758626*
Y750000*
X349600Y782000D02*
X350000D01*
Y750000*
X438000Y787000D02*
Y777500D01*
X446500Y769000*
Y730439*
X443500Y769000D02*
Y749145D01*
X444800Y747845*
Y735100*
X439500Y763300D02*
Y742200D01*
X443200Y738500*
X455000Y764000D02*
Y757813D01*
X468500Y744313*
Y700500*
X457000Y781000D02*
Y757957D01*
X476000Y738957*
Y735501*
X483813Y727689*
Y707813*
X452500Y763500D02*
Y757813D01*
X465900Y744413*
Y706834*
X482650Y763950D02*
Y762250D01*
X482950Y761950*
Y759550*
G54D288*
X395400Y183772D03*
Y180228D03*
G54D289*
X337528Y619000D03*
X341072D03*
X292072Y630000D03*
X288528D03*
X324622Y638900D03*
X321078D03*
X346028Y639300D03*
X349572D03*
X295672Y626600D03*
X292128D03*
X295672Y622500D03*
X292128D03*
X455728Y714000D03*
X459272D03*
X455728Y732000D03*
X459272D03*
X474228Y705000D03*
X477772D03*
X471228Y733000D03*
X474772D03*
X485772Y714000D03*
X482228D03*
X386428Y680600D03*
X389972D03*
X221772Y550000D03*
X218228D03*
X239772Y733500D03*
X236228D03*
X190728Y380000D03*
X194272D03*
G54D296*
X467950Y759550D03*
X472950D03*
X477950D03*
X482950D03*
X487950D03*
Y754550D03*
X482950D03*
X477950D03*
X472950D03*
X467950D03*
G54D306*
X130000Y390000D03*
X110000D03*
X267000Y530000D03*
X520000Y230000D03*
X530000D03*
X140000Y380000D03*
G54D309*
X296953Y611500D03*
X291047D03*
X324903Y650450D03*
X318997D03*
X325003Y644150D03*
X319097D03*
X304953Y646500D03*
X299047D03*
X304453Y640500D03*
X298547D03*
X239953Y728500D03*
X234047D03*
X190547Y374500D03*
X196453D03*
X189547Y395000D03*
X195453D03*
G54D310*
X383100Y184953D03*
Y179047D03*
X474000Y411753D03*
Y405847D03*
X313500Y591453D03*
Y585547D03*
X303800Y589853D03*
Y583947D03*
X311100Y553953D03*
Y548047D03*
X448800Y420153D03*
Y414247D03*
X179000Y692053D03*
Y686147D03*
G54D320*
X318500Y617469D03*
Y613531D03*
X323000Y613031D03*
Y616969D03*
G54D337*
X543750Y671000D03*
X486250D03*
X543750Y551000D03*
X486250D03*
G54D339*
X138717Y679000D03*
G54D367*
X445500Y590000D03*
X170000Y390000D03*
X120000Y560000D03*
X170000D03*
G54D368*
X435500Y590000D03*
X445500Y600000D03*
X435500D03*
X445500Y610000D03*
X435500D03*
X445500Y620000D03*
X435500D03*
X180000Y390000D03*
X170000Y380000D03*
X180000D03*
X170000Y370000D03*
X180000D03*
X170000Y360000D03*
X180000D03*
X170000Y350000D03*
X180000D03*
X170000Y340000D03*
X180000D03*
X170000Y330000D03*
X180000D03*
X170000Y320000D03*
X180000D03*
X170000Y310000D03*
X180000D03*
X170000Y300000D03*
X180000D03*
X170000Y290000D03*
X180000D03*
X170000Y280000D03*
X180000D03*
X170000Y270000D03*
X180000D03*
X170000Y260000D03*
X180000D03*
X170000Y250000D03*
X180000D03*
X170000Y240000D03*
X180000D03*
X170000Y230000D03*
X180000D03*
X170000Y220000D03*
X180000D03*
X170000Y210000D03*
X180000D03*
X170000Y200000D03*
X180000D03*
X130000Y560000D03*
X120000Y550000D03*
X130000D03*
X120000Y540000D03*
X130000D03*
X120000Y530000D03*
X130000D03*
X120000Y520000D03*
X130000D03*
X120000Y510000D03*
X130000D03*
X120000Y500000D03*
X130000D03*
X120000Y490000D03*
X130000D03*
X120000Y480000D03*
X130000D03*
X120000Y470000D03*
X130000D03*
X120000Y460000D03*
X130000D03*
X120000Y450000D03*
X130000D03*
X120000Y440000D03*
X130000D03*
X120000Y430000D03*
X130000D03*
X120000Y420000D03*
X130000D03*
X120000Y410000D03*
X130000D03*
X180000Y560000D03*
X170000Y550000D03*
X180000D03*
X170000Y540000D03*
X180000D03*
X170000Y530000D03*
X180000D03*
X170000Y520000D03*
X180000D03*
X170000Y510000D03*
X180000D03*
X170000Y500000D03*
X180000D03*
X170000Y490000D03*
X180000D03*
X170000Y480000D03*
X180000D03*
X170000Y470000D03*
X180000D03*
X170000Y460000D03*
X180000D03*
X170000Y450000D03*
X180000D03*
X170000Y440000D03*
X180000D03*
X170000Y430000D03*
X180000D03*
X170000Y420000D03*
X180000D03*
X170000Y410000D03*
X180000D03*
G54D372*
X220000Y170000D03*
X490000D03*
Y390000D03*
X220000D03*
X120000Y780000D03*
X530000D03*
X120000Y200000D03*
X530000D03*
G54D381*
X293429Y192205D03*
X295398D03*
X297366D03*
X299335D03*
X301303D03*
X303272D03*
X305240D03*
X307209D03*
X309177D03*
X311146D03*
X313114D03*
X315083D03*
X317051D03*
X319020D03*
X320988D03*
X322957D03*
X324925D03*
X326894D03*
X328862D03*
X330831D03*
X332799D03*
X334768D03*
X336736D03*
X338705D03*
X340673D03*
X342642D03*
X344610D03*
X346579D03*
X348547D03*
X350516D03*
X352484D03*
X354453D03*
X356421D03*
X358390D03*
X360358D03*
X362327D03*
X364295D03*
X366264D03*
X368232D03*
X370201D03*
X372169D03*
X374138D03*
X376106D03*
X378075D03*
X380043D03*
X382012D03*
X383980D03*
X385949D03*
X387917D03*
X389886D03*
X391854D03*
X393823D03*
X395791D03*
X397760D03*
X399728D03*
X401697D03*
X403665D03*
X405634D03*
X407602D03*
X409571D03*
G54D382*
X285555Y205000D03*
X417445D03*
G54D383*
X389900Y674124D03*
Y664676D03*
G54D400*
X515700Y415400D03*
Y479400D03*
G54D401*
X529200Y472400D03*
G54D402*
X495600Y422400D03*
X507600D03*
G54D406*
X529200D03*
X0Y0D02*
M02*
