*
*
G04 PADS 9.4 Build Number: 491120 generated Gerber (RS-274-X) file*
G04 PC Version=2.1*
*
%IN "DK-TM4C129X_3.0.pcb"*%
*
%MOIN*%
*
%FSLAX35Y35*%
*
*
*
*
G04 PC Standard Apertures*
*
*
G04 Thermal Relief Aperture macro.*
%AMTER*
1,1,$1,0,0*
1,0,$1-$2,0,0*
21,0,$3,$4,0,0,45*
21,0,$3,$4,0,0,135*
%
*
*
G04 Annular Aperture macro.*
%AMANN*
1,1,$1,0,0*
1,0,$2,0,0*
%
*
*
G04 Odd Aperture macro.*
%AMODD*
1,1,$1,0,0*
1,0,$1-0.005,0,0*
%
*
*
G04 PC Custom Aperture Macros*
*
*
*
*
*
*
G04 PC Aperture Table*
*
%ADD010C,0.005*%
%ADD012C,0.01*%
%ADD013C,0.008*%
%ADD015C,0.006*%
%ADD018C,0.015*%
%ADD020R,0.06X0.06*%
%ADD031C,0.00787*%
%ADD032C,0.00984*%
%ADD036C,0.001*%
%ADD047C,0.02*%
%ADD174R,0.03937X0.03543*%
%ADD178R,0.0748X0.07087*%
%ADD179R,0.03543X0.03937*%
%ADD180R,0.04724X0.05512*%
%ADD197C,0.02362*%
%ADD243C,0.004*%
%ADD261C,0.0011*%
%ADD288R,0.02756X0.01969*%
%ADD289R,0.01969X0.02756*%
%ADD305R,0.05512X0.04724*%
%ADD309R,0.02362X0.03543*%
%ADD310R,0.03543X0.02362*%
%ADD311R,0.022X0.11*%
%ADD320R,0.01969X0.01969*%
%ADD336R,0.029X0.115*%
%ADD338R,0.09449X0.11024*%
%ADD341O,0.04921X0.00984*%
%ADD342O,0.00984X0.04921*%
%ADD347R,0.05906X0.0315*%
%ADD348R,0.0748X0.05512*%
%ADD349R,0.05512X0.07087*%
%ADD351R,0.01772X0.0374*%
%ADD359R,0.145X0.065*%
%ADD360R,0.0315X0.01575*%
%ADD361R,0.03937X0.12598*%
%ADD362R,0.01772X0.01772*%
%ADD365O,0.05512X0.01969*%
%ADD366R,0.05512X0.01969*%
%ADD371R,0.09X0.03*%
%ADD390O,0.02165X0.03937*%
%ADD391R,0.02165X0.03937*%
%ADD392O,0.03937X0.02165*%
%ADD393R,0.03937X0.02165*%
%ADD394O,0.03465X0.01181*%
%ADD395R,0.05315X0.14488*%
%ADD396R,0.12402X0.04528*%
%ADD397C,0.01575*%
%ADD398R,0.01X0.03*%
%ADD399C,0.0315*%
*
*
*
*
G04 PC Circuitry*
G04 Layer Name DK-TM4C129X_3.0.pcb - circuitry*
%LPD*%
*
*
G04 PC Custom Flashes*
G04 Layer Name DK-TM4C129X_3.0.pcb - flashes*
%LPD*%
*
*
G04 PC Circuitry*
G04 Layer Name DK-TM4C129X_3.0.pcb - circuitry*
%LPD*%
*
G54D10*
G01X307900Y100450D02*
X332900D01*
X357900Y75450D02*
X360400D01*
X247900Y96778D02*
Y93497D01*
Y96778D02*
X248923D01*
X249264Y96622*
X249377Y96466*
X249491Y96153*
Y95841*
X249377Y95528*
X249264Y95372*
X248923Y95216*
X247900*
X248695D02*
X249491Y93497D01*
X250514Y94747D02*
X251877D01*
Y95059*
X251764Y95372*
X251650Y95528*
X251423Y95684*
X251082*
X250855Y95528*
X250627Y95216*
X250514Y94747*
Y94434*
X250627Y93966*
X250855Y93653*
X251082Y93497*
X251423*
X251650Y93653*
X251877Y93966*
X252900Y95684D02*
X253582Y93497D01*
X254264Y95684D02*
X253582Y93497D01*
X255400Y93809D02*
X255286Y93653D01*
X255400Y93497*
X255514Y93653*
X255400Y93809*
X120400Y96778D02*
Y93497D01*
Y96778D02*
X121423D01*
X121764Y96622*
X121877Y96466*
X121991Y96153*
Y95841*
X121877Y95528*
X121764Y95372*
X121423Y95216*
X120400D02*
X121423D01*
X121764Y95059*
X121877Y94903*
X121991Y94591*
Y94122*
X121877Y93809*
X121764Y93653*
X121423Y93497*
X120400*
X123582Y95684D02*
X123355Y95528D01*
X123127Y95216*
X123014Y94747*
Y94434*
X123127Y93966*
X123355Y93653*
X123582Y93497*
X123923*
X124150Y93653*
X124377Y93966*
X124491Y94434*
Y94747*
X124377Y95216*
X124150Y95528*
X123923Y95684*
X123582*
X126877D02*
Y93497D01*
Y95216D02*
X126650Y95528D01*
X126423Y95684*
X126082*
X125855Y95528*
X125627Y95216*
X125514Y94747*
Y94434*
X125627Y93966*
X125855Y93653*
X126082Y93497*
X126423*
X126650Y93653*
X126877Y93966*
X127900Y95684D02*
Y93497D01*
Y94747D02*
X128014Y95216D01*
X128241Y95528*
X128468Y95684*
X128809*
X131195Y96778D02*
Y93497D01*
Y95216D02*
X130968Y95528D01*
X130741Y95684*
X130400*
X130173Y95528*
X129945Y95216*
X129832Y94747*
Y94434*
X129945Y93966*
X130173Y93653*
X130400Y93497*
X130741*
X130968Y93653*
X131195Y93966*
X134832Y96778D02*
Y93497D01*
Y96778D02*
X136423Y93497D01*
Y96778D02*
Y93497D01*
X138014Y95684D02*
X137786Y95528D01*
X137559Y95216*
X137445Y94747*
Y94434*
X137559Y93966*
X137786Y93653*
X138014Y93497*
X138355*
X138582Y93653*
X138809Y93966*
X138923Y94434*
Y94747*
X138809Y95216*
X138582Y95528*
X138355Y95684*
X138014*
X140059Y93809D02*
X139945Y93653D01*
X140059Y93497*
X140173Y93653*
X140059Y93809*
X117900Y71778D02*
Y68497D01*
Y71778D02*
X118695D01*
X119036Y71622*
X119264Y71309*
X119377Y70997*
X119491Y70528*
Y69747*
X119377Y69278*
X119264Y68966*
X119036Y68653*
X118695Y68497*
X117900*
X121877Y70684D02*
Y68497D01*
Y70216D02*
X121650Y70528D01*
X121423Y70684*
X121082*
X120855Y70528*
X120627Y70216*
X120514Y69747*
Y69434*
X120627Y68966*
X120855Y68653*
X121082Y68497*
X121423*
X121650Y68653*
X121877Y68966*
X123241Y71778D02*
Y69122D01*
X123355Y68653*
X123582Y68497*
X123809*
X122900Y70684D02*
X123695D01*
X124832Y69747D02*
X126195D01*
Y70059*
X126082Y70372*
X125968Y70528*
X125741Y70684*
X125400*
X125173Y70528*
X124945Y70216*
X124832Y69747*
Y69434*
X124945Y68966*
X125173Y68653*
X125400Y68497*
X125741*
X125968Y68653*
X126195Y68966*
X127332Y70684D02*
X127218Y70528D01*
X127332Y70372*
X127445Y70528*
X127332Y70684*
Y68809D02*
X127218Y68653D01*
X127332Y68497*
X127445Y68653*
X127332Y68809*
X177400Y71778D02*
Y68497D01*
Y71778D02*
X178877D01*
X177400Y70216D02*
X178309D01*
X179900Y71778D02*
X180014Y71622D01*
X180127Y71778*
X180014Y71934*
X179900Y71778*
X180014Y70684D02*
Y68497D01*
X181150Y71778D02*
Y68497D01*
X182173Y69747D02*
X183536D01*
Y70059*
X183423Y70372*
X183309Y70528*
X183082Y70684*
X182741*
X182514Y70528*
X182286Y70216*
X182173Y69747*
Y69434*
X182286Y68966*
X182514Y68653*
X182741Y68497*
X183082*
X183309Y68653*
X183536Y68966*
X184559Y70684D02*
Y68497D01*
Y70059D02*
X184900Y70528D01*
X185127Y70684*
X185468*
X185695Y70528*
X185809Y70059*
Y68497*
X188195Y70684D02*
Y68497D01*
Y70216D02*
X187968Y70528D01*
X187741Y70684*
X187400*
X187173Y70528*
X186945Y70216*
X186832Y69747*
Y69434*
X186945Y68966*
X187173Y68653*
X187400Y68497*
X187741*
X187968Y68653*
X188195Y68966*
X189218Y70684D02*
Y68497D01*
Y70059D02*
X189559Y70528D01*
X189786Y70684*
X190127*
X190355Y70528*
X190468Y70059*
Y68497*
Y70059D02*
X190809Y70528D01*
X191036Y70684*
X191377*
X191605Y70528*
X191718Y70059*
Y68497*
X192741Y69747D02*
X194105D01*
Y70059*
X193991Y70372*
X193877Y70528*
X193650Y70684*
X193309*
X193082Y70528*
X192855Y70216*
X192741Y69747*
Y69434*
X192855Y68966*
X193082Y68653*
X193309Y68497*
X193650*
X193877Y68653*
X194105Y68966*
X195241Y70684D02*
X195127Y70528D01*
X195241Y70372*
X195355Y70528*
X195241Y70684*
Y68809D02*
X195127Y68653D01*
X195241Y68497*
X195355Y68653*
X195241Y68809*
X347400Y71778D02*
Y68497D01*
Y71778D02*
X348423D01*
X348764Y71622*
X348877Y71466*
X348991Y71153*
Y70684*
X348877Y70372*
X348764Y70216*
X348423Y70059*
X347400*
X351718Y70997D02*
X351605Y71309D01*
X351377Y71622*
X351150Y71778*
X350695*
X350468Y71622*
X350241Y71309*
X350127Y70997*
X350014Y70528*
Y69747*
X350127Y69278*
X350241Y68966*
X350468Y68653*
X350695Y68497*
X351150*
X351377Y68653*
X351605Y68966*
X351718Y69278*
X352741Y71778D02*
Y68497D01*
Y71778D02*
X353764D01*
X354105Y71622*
X354218Y71466*
X354332Y71153*
Y70841*
X354218Y70528*
X354105Y70372*
X353764Y70216*
X352741D02*
X353764D01*
X354105Y70059*
X354218Y69903*
X354332Y69591*
Y69122*
X354218Y68809*
X354105Y68653*
X353764Y68497*
X352741*
X357968Y71778D02*
Y68497D01*
Y71778D02*
X358764D01*
X359105Y71622*
X359332Y71309*
X359445Y70997*
X359559Y70528*
Y69747*
X359445Y69278*
X359332Y68966*
X359105Y68653*
X358764Y68497*
X357968*
X361832Y70216D02*
X361718Y70528D01*
X361377Y70684*
X361036*
X360695Y70528*
X360582Y70216*
X360695Y69903*
X360923Y69747*
X361491Y69591*
X361718Y69434*
X361832Y69122*
Y68966*
X361718Y68653*
X361377Y68497*
X361036*
X360695Y68653*
X360582Y68966*
X364218Y70684D02*
Y68184D01*
X364105Y67716*
X363991Y67559*
X363764Y67403*
X363423*
X363195Y67559*
X364218Y70216D02*
X363991Y70528D01*
X363764Y70684*
X363423*
X363195Y70528*
X362968Y70216*
X362855Y69747*
Y69434*
X362968Y68966*
X363195Y68653*
X363423Y68497*
X363764*
X363991Y68653*
X364218Y68966*
X365241Y70684D02*
Y68497D01*
Y70059D02*
X365582Y70528D01*
X365809Y70684*
X366150*
X366377Y70528*
X366491Y70059*
Y68497*
X367514Y70684D02*
Y68497D01*
Y69747D02*
X367627Y70216D01*
X367855Y70528*
X368082Y70684*
X368423*
X369559D02*
X369445Y70528D01*
X369559Y70372*
X369673Y70528*
X369559Y70684*
Y68809D02*
X369445Y68653D01*
X369559Y68497*
X369673Y68653*
X369559Y68809*
X422400Y71778D02*
Y68497D01*
Y71778D02*
X423309Y68497D01*
X424218Y71778D02*
X423309Y68497D01*
X424218Y71778D02*
Y68497D01*
X425809Y70684D02*
X425582Y70528D01*
X425355Y70216*
X425241Y69747*
Y69434*
X425355Y68966*
X425582Y68653*
X425809Y68497*
X426150*
X426377Y68653*
X426605Y68966*
X426718Y69434*
Y69747*
X426605Y70216*
X426377Y70528*
X426150Y70684*
X425809*
X429105Y71778D02*
Y68497D01*
Y70216D02*
X428877Y70528D01*
X428650Y70684*
X428309*
X428082Y70528*
X427855Y70216*
X427741Y69747*
Y69434*
X427855Y68966*
X428082Y68653*
X428309Y68497*
X428650*
X428877Y68653*
X429105Y68966*
X430127Y71778D02*
X430241Y71622D01*
X430355Y71778*
X430241Y71934*
X430127Y71778*
X430241Y70684D02*
Y68497D01*
X432286Y71778D02*
X432059D01*
X431832Y71622*
X431718Y71153*
Y68497*
X431377Y70684D02*
X432173D01*
X433309Y71778D02*
X433423Y71622D01*
X433536Y71778*
X433423Y71934*
X433309Y71778*
X433423Y70684D02*
Y68497D01*
X434559Y69747D02*
X435923D01*
Y70059*
X435809Y70372*
X435695Y70528*
X435468Y70684*
X435127*
X434900Y70528*
X434673Y70216*
X434559Y69747*
Y69434*
X434673Y68966*
X434900Y68653*
X435127Y68497*
X435468*
X435695Y68653*
X435923Y68966*
X438309Y71778D02*
Y68497D01*
Y70216D02*
X438082Y70528D01*
X437855Y70684*
X437514*
X437286Y70528*
X437059Y70216*
X436945Y69747*
Y69434*
X437059Y68966*
X437286Y68653*
X437514Y68497*
X437855*
X438082Y68653*
X438309Y68966*
X441945Y71778D02*
Y68497D01*
Y71778D02*
X442741D01*
X443082Y71622*
X443309Y71309*
X443423Y70997*
X443536Y70528*
Y69747*
X443423Y69278*
X443309Y68966*
X443082Y68653*
X442741Y68497*
X441945*
X445923Y70684D02*
Y68497D01*
Y70216D02*
X445695Y70528D01*
X445468Y70684*
X445127*
X444900Y70528*
X444673Y70216*
X444559Y69747*
Y69434*
X444673Y68966*
X444900Y68653*
X445127Y68497*
X445468*
X445695Y68653*
X445923Y68966*
X447286Y71778D02*
Y69122D01*
X447400Y68653*
X447627Y68497*
X447855*
X446945Y70684D02*
X447741D01*
X448877Y69747D02*
X450241D01*
Y70059*
X450127Y70372*
X450014Y70528*
X449786Y70684*
X449445*
X449218Y70528*
X448991Y70216*
X448877Y69747*
Y69434*
X448991Y68966*
X449218Y68653*
X449445Y68497*
X449786*
X450014Y68653*
X450241Y68966*
X451377Y70684D02*
X451264Y70528D01*
X451377Y70372*
X451491Y70528*
X451377Y70684*
Y68809D02*
X451264Y68653D01*
X451377Y68497*
X451491Y68653*
X451377Y68809*
X587491Y71809D02*
X587264Y72122D01*
X586923Y72278*
X586468*
X586127Y72122*
X585900Y71809*
Y71497*
X586014Y71184*
X586127Y71028*
X586355Y70872*
X587036Y70559*
X587264Y70403*
X587377Y70247*
X587491Y69934*
Y69466*
X587264Y69153*
X586923Y68997*
X586468*
X586127Y69153*
X585900Y69466*
X589082Y71184D02*
X588855Y71028D01*
X588627Y70716*
X588514Y70247*
Y69934*
X588627Y69466*
X588855Y69153*
X589082Y68997*
X589423*
X589650Y69153*
X589877Y69466*
X589991Y69934*
Y70247*
X589877Y70716*
X589650Y71028*
X589423Y71184*
X589082*
X591923Y72278D02*
X591695D01*
X591468Y72122*
X591355Y71653*
Y68997*
X591014Y71184D02*
X591809D01*
X593286Y72278D02*
Y69622D01*
X593400Y69153*
X593627Y68997*
X593855*
X592945Y71184D02*
X593741D01*
X594877D02*
X595332Y68997D01*
X595786Y71184D02*
X595332Y68997D01*
X595786Y71184D02*
X596241Y68997D01*
X596695Y71184D02*
X596241Y68997D01*
X599082Y71184D02*
Y68997D01*
Y70716D02*
X598855Y71028D01*
X598627Y71184*
X598286*
X598059Y71028*
X597832Y70716*
X597718Y70247*
Y69934*
X597832Y69466*
X598059Y69153*
X598286Y68997*
X598627*
X598855Y69153*
X599082Y69466*
X600105Y71184D02*
Y68997D01*
Y70247D02*
X600218Y70716D01*
X600445Y71028*
X600673Y71184*
X601014*
X602036Y70247D02*
X603400D01*
Y70559*
X603286Y70872*
X603173Y71028*
X602945Y71184*
X602605*
X602377Y71028*
X602150Y70716*
X602036Y70247*
Y69934*
X602150Y69466*
X602377Y69153*
X602605Y68997*
X602945*
X603173Y69153*
X603400Y69466*
X268900Y71778D02*
Y68497D01*
Y71778D02*
X270377D01*
X268900Y70216D02*
X269809D01*
X268900Y68497D02*
X270377D01*
X271400Y70684D02*
Y68497D01*
Y70059D02*
X271741Y70528D01*
X271968Y70684*
X272309*
X272536Y70528*
X272650Y70059*
Y68497*
X275036Y70684D02*
Y68184D01*
X274923Y67716*
X274809Y67559*
X274582Y67403*
X274241*
X274014Y67559*
X275036Y70216D02*
X274809Y70528D01*
X274582Y70684*
X274241*
X274014Y70528*
X273786Y70216*
X273673Y69747*
Y69434*
X273786Y68966*
X274014Y68653*
X274241Y68497*
X274582*
X274809Y68653*
X275036Y68966*
X276059Y71778D02*
X276173Y71622D01*
X276286Y71778*
X276173Y71934*
X276059Y71778*
X276173Y70684D02*
Y68497D01*
X277309Y70684D02*
Y68497D01*
Y70059D02*
X277650Y70528D01*
X277877Y70684*
X278218*
X278445Y70528*
X278559Y70059*
Y68497*
X279582Y69747D02*
X280945D01*
Y70059*
X280832Y70372*
X280718Y70528*
X280491Y70684*
X280150*
X279923Y70528*
X279695Y70216*
X279582Y69747*
Y69434*
X279695Y68966*
X279923Y68653*
X280150Y68497*
X280491*
X280718Y68653*
X280945Y68966*
X281968Y69747D02*
X283332D01*
Y70059*
X283218Y70372*
X283105Y70528*
X282877Y70684*
X282536*
X282309Y70528*
X282082Y70216*
X281968Y69747*
Y69434*
X282082Y68966*
X282309Y68653*
X282536Y68497*
X282877*
X283105Y68653*
X283332Y68966*
X284355Y70684D02*
Y68497D01*
Y69747D02*
X284468Y70216D01*
X284695Y70528*
X284923Y70684*
X285264*
X286400D02*
X286286Y70528D01*
X286400Y70372*
X286514Y70528*
X286400Y70684*
Y68809D02*
X286286Y68653D01*
X286400Y68497*
X286514Y68653*
X286400Y68809*
G54D12*
X279500Y757500D02*
Y760500D01*
X284500*
Y757500*
X279500*
Y758000D02*
X284500D01*
X279500Y759000D02*
X284500D01*
X279500Y760000D02*
X284500D01*
X280000Y757500D02*
Y760500D01*
X281000Y757500D02*
Y760500D01*
X282000Y757500D02*
Y760500D01*
X283000Y757500D02*
Y760500D01*
X284000Y757500D02*
Y760500D01*
X279500Y749500D02*
Y752500D01*
X284500*
Y749500*
X279500*
Y750000D02*
X284500D01*
X279500Y751000D02*
X284500D01*
X279500Y752000D02*
X284500D01*
X280000Y749500D02*
Y752500D01*
X281000Y749500D02*
Y752500D01*
X282000Y749500D02*
Y752500D01*
X283000Y749500D02*
Y752500D01*
X284000Y749500D02*
Y752500D01*
X510585Y635745D02*
Y634775D01*
X506075*
Y635745*
X510585*
X506075Y635000D02*
X510585D01*
X507000Y634775D02*
Y635745D01*
X508000Y634775D02*
Y635745D01*
X509000Y634775D02*
Y635745D01*
X510000Y634775D02*
Y635745D01*
X510585Y639485D02*
Y638515D01*
X506075*
Y639485*
X510585*
X506075Y639000D02*
X510585D01*
X507000Y638515D02*
Y639485D01*
X508000Y638515D02*
Y639485D01*
X509000Y638515D02*
Y639485D01*
X510000Y638515D02*
Y639485D01*
X510585Y643225D02*
Y642255D01*
X506075*
Y643225*
X510585*
X506075Y643000D02*
X510585D01*
X507000Y642255D02*
Y643225D01*
X508000Y642255D02*
Y643225D01*
X509000Y642255D02*
Y643225D01*
X510000Y642255D02*
Y643225D01*
X501925D02*
Y642255D01*
X497415*
Y643225*
X501925*
X497415Y643000D02*
X501925D01*
X498000Y642255D02*
Y643225D01*
X499000Y642255D02*
Y643225D01*
X500000Y642255D02*
Y643225D01*
X501000Y642255D02*
Y643225D01*
X501925Y635745D02*
Y634775D01*
X497415*
Y635745*
X501925*
X497415Y635000D02*
X501925D01*
X498000Y634775D02*
Y635745D01*
X499000Y634775D02*
Y635745D01*
X500000Y634775D02*
Y635745D01*
X501000Y634775D02*
Y635745D01*
X488500Y632000D02*
Y635000D01*
X493500*
Y632000*
X488500*
X493500*
X488500Y633000D02*
X493500D01*
X488500Y634000D02*
X493500D01*
X488500Y635000D02*
X493500D01*
X489000Y632000D02*
Y635000D01*
X490000Y632000D02*
Y635000D01*
X491000Y632000D02*
Y635000D01*
X492000Y632000D02*
Y635000D01*
X493000Y632000D02*
Y635000D01*
X488500Y624000D02*
Y627000D01*
X493500*
Y624000*
X488500*
X493500*
X488500Y625000D02*
X493500D01*
X488500Y626000D02*
X493500D01*
X488500Y627000D02*
X493500D01*
X489000Y624000D02*
Y627000D01*
X490000Y624000D02*
Y627000D01*
X491000Y624000D02*
Y627000D01*
X492000Y624000D02*
Y627000D01*
X493000Y624000D02*
Y627000D01*
X523000Y636500D02*
Y633500D01*
X518000*
Y636500*
X523000*
X518000Y634000D02*
X523000D01*
X518000Y635000D02*
X523000D01*
X518000Y636000D02*
X523000D01*
X518000Y633500D02*
Y636500D01*
X519000Y633500D02*
Y636500D01*
X520000Y633500D02*
Y636500D01*
X521000Y633500D02*
Y636500D01*
X522000Y633500D02*
Y636500D01*
X523000Y633500D02*
Y636500D01*
Y644500D02*
Y641500D01*
X518000*
Y644500*
X523000*
X518000Y642000D02*
X523000D01*
X518000Y643000D02*
X523000D01*
X518000Y644000D02*
X523000D01*
X518000Y641500D02*
Y644500D01*
X519000Y641500D02*
Y644500D01*
X520000Y641500D02*
Y644500D01*
X521000Y641500D02*
Y644500D01*
X522000Y641500D02*
Y644500D01*
X523000Y641500D02*
Y644500D01*
X358900Y586900D02*
Y583900D01*
X350000*
Y586900*
X358900*
X350000Y584000D02*
X358900D01*
X350000Y585000D02*
X358900D01*
X350000Y586000D02*
X358900D01*
X350000Y583900D02*
Y586900D01*
X351000Y583900D02*
Y586900D01*
X352000Y583900D02*
Y586900D01*
X353000Y583900D02*
Y586900D01*
X354000Y583900D02*
Y586900D01*
X355000Y583900D02*
Y586900D01*
X356000Y583900D02*
Y586900D01*
X357000Y583900D02*
Y586900D01*
X358000Y583900D02*
Y586900D01*
X358900Y576900D02*
Y573900D01*
X350000*
Y576900*
X358900*
X350000Y574000D02*
X358900D01*
X350000Y575000D02*
X358900D01*
X350000Y576000D02*
X358900D01*
X350000Y573900D02*
Y576900D01*
X351000Y573900D02*
Y576900D01*
X352000Y573900D02*
Y576900D01*
X353000Y573900D02*
Y576900D01*
X354000Y573900D02*
Y576900D01*
X355000Y573900D02*
Y576900D01*
X356000Y573900D02*
Y576900D01*
X357000Y573900D02*
Y576900D01*
X358000Y573900D02*
Y576900D01*
X389800Y584850D02*
Y575950D01*
X366800*
Y584850*
X389800*
X366800Y576000D02*
X389800D01*
X366800Y577000D02*
X389800D01*
X366800Y578000D02*
X389800D01*
X366800Y579000D02*
X389800D01*
X366800Y580000D02*
X389800D01*
X366800Y581000D02*
X389800D01*
X366800Y582000D02*
X389800D01*
X366800Y583000D02*
X389800D01*
X366800Y584000D02*
X389800D01*
X367000Y575950D02*
Y584850D01*
X368000Y575950D02*
Y584850D01*
X369000Y575950D02*
Y584850D01*
X370000Y575950D02*
Y584850D01*
X371000Y575950D02*
Y584850D01*
X372000Y575950D02*
Y584850D01*
X373000Y575950D02*
Y584850D01*
X374000Y575950D02*
Y584850D01*
X375000Y575950D02*
Y584850D01*
X376000Y575950D02*
Y584850D01*
X377000Y575950D02*
Y584850D01*
X378000Y575950D02*
Y584850D01*
X379000Y575950D02*
Y584850D01*
X380000Y575950D02*
Y584850D01*
X381000Y575950D02*
Y584850D01*
X382000Y575950D02*
Y584850D01*
X383000Y575950D02*
Y584850D01*
X384000Y575950D02*
Y584850D01*
X385000Y575950D02*
Y584850D01*
X386000Y575950D02*
Y584850D01*
X387000Y575950D02*
Y584850D01*
X388000Y575950D02*
Y584850D01*
X389000Y575950D02*
Y584850D01*
X296500Y744500D02*
X299500D01*
Y739500*
X296500*
Y744500*
Y740000D02*
X299500D01*
X296500Y741000D02*
X299500D01*
X296500Y742000D02*
X299500D01*
X296500Y743000D02*
X299500D01*
X296500Y744000D02*
X299500D01*
X297000Y739500D02*
Y744500D01*
X298000Y739500D02*
Y744500D01*
X299000Y739500D02*
Y744500D01*
X288500D02*
X291500D01*
Y739500*
X288500*
Y744500*
Y740000D02*
X291500D01*
X288500Y741000D02*
X291500D01*
X288500Y742000D02*
X291500D01*
X288500Y743000D02*
X291500D01*
X288500Y744000D02*
X291500D01*
X289000Y739500D02*
Y744500D01*
X290000Y739500D02*
Y744500D01*
X291000Y739500D02*
Y744500D01*
X158000Y647000D02*
X161000D01*
Y642000*
X158000*
Y647000*
Y642000D02*
X161000D01*
X158000Y643000D02*
X161000D01*
X158000Y644000D02*
X161000D01*
X158000Y645000D02*
X161000D01*
X158000Y646000D02*
X161000D01*
X158000Y647000D02*
X161000D01*
X158000Y642000D02*
Y647000D01*
X159000Y642000D02*
Y647000D01*
X160000Y642000D02*
Y647000D01*
X161000Y642000D02*
Y647000D01*
X150000D02*
X153000D01*
Y642000*
X150000*
Y647000*
Y642000D02*
X153000D01*
X150000Y643000D02*
X153000D01*
X150000Y644000D02*
X153000D01*
X150000Y645000D02*
X153000D01*
X150000Y646000D02*
X153000D01*
X150000Y647000D02*
X153000D01*
X150000Y642000D02*
Y647000D01*
X151000Y642000D02*
Y647000D01*
X152000Y642000D02*
Y647000D01*
X153000Y642000D02*
Y647000D01*
X175900Y60450D02*
Y75450D01*
X266400Y60450D02*
Y75450D01*
X344900D02*
Y60450D01*
X419900Y75450D02*
Y60450D01*
X332900Y115450D02*
Y75450D01*
X357900Y100450D02*
Y75450D01*
X382900Y100450D02*
Y75450D01*
X407900Y100450D02*
Y75450D01*
X482900Y115450D02*
Y75450D01*
X532900Y115450D02*
Y75450D01*
X457900Y115450D02*
X607900D01*
X307900Y100450D02*
X507900D01*
X657900D02*
X457900D01*
Y75450*
X307900Y115450D02*
X507900D01*
Y75450*
X582900Y115450D02*
Y75450D01*
Y75950*
Y60950*
X432900Y115450D02*
Y75450D01*
Y100450*
X251355Y90013D02*
X253855D01*
X253855D02*
X252491Y87513D01*
X252491D02*
X253173D01*
X253173D02*
X253627Y87200D01*
X253855Y86888*
X253855D02*
X254082Y85950D01*
Y85325*
X253855Y84388*
X253855D02*
X253400Y83763D01*
X253400D02*
X252718Y83450D01*
X252036*
X251355Y83763*
X251355D02*
X251127Y84075D01*
X250900Y84700*
X256355Y84075D02*
X256127Y83763D01*
X256127D02*
X256355Y83450D01*
X256582Y83763*
X256582D02*
X256355Y84075D01*
X259991Y90013D02*
X259309Y89700D01*
X258855Y88763*
X258855D02*
X258627Y87200D01*
Y86263*
X258627D02*
X258855Y84700D01*
X259309Y83763*
X259309D02*
X259991Y83450D01*
X260445*
X261127Y83763*
X261127D02*
X261582Y84700D01*
X261809Y86263*
X261809D02*
Y87200D01*
X261582Y88763*
X261582D02*
X261127Y89700D01*
X260445Y90013*
X260445D02*
X259991D01*
X145900D02*
Y83450D01*
Y90013D02*
X147945D01*
X147945D02*
X148627Y89700D01*
X148855Y89388*
X148855D02*
X149082Y88763D01*
X149082D02*
Y88138D01*
X149082D02*
X148855Y87513D01*
X148855D02*
X148627Y87200D01*
X147945Y86888*
X145900D02*
X147945D01*
X147945D02*
X148627Y86575D01*
X148855Y86263*
X148855D02*
X149082Y85638D01*
X149082D02*
Y84700D01*
X148855Y84075*
X148627Y83763*
X148627D02*
X147945Y83450D01*
X145900*
X151127Y90013D02*
Y83450D01*
Y90013D02*
X152718D01*
X152718D02*
X153400Y89700D01*
X153855Y89075*
X154082Y88450*
X154309Y87513*
X154309D02*
Y85950D01*
X154082Y85013*
X154082D02*
X153855Y84388D01*
X153855D02*
X153400Y83763D01*
X153400D02*
X152718Y83450D01*
X151127*
X156355Y86263D02*
X160445D01*
X164082Y90013D02*
Y83450D01*
X162491Y90013D02*
X165673D01*
X167718D02*
Y83450D01*
Y90013D02*
X169536Y83450D01*
X171355Y90013D02*
X169536Y83450D01*
X171355Y90013D02*
Y83450D01*
X175673Y90013D02*
X173400Y85638D01*
X173400D02*
X176809D01*
X175673Y90013D02*
Y83450D01*
X182264Y88450D02*
X182036Y89075D01*
X181582Y89700*
X181127Y90013*
X181127D02*
X180218D01*
X180218D02*
X179764Y89700D01*
X179309Y89075*
X179082Y88450*
X178855Y87513*
X178855D02*
Y85950D01*
X179082Y85013*
X179082D02*
X179309Y84388D01*
X179309D02*
X179764Y83763D01*
X179764D02*
X180218Y83450D01*
X181127*
X181582Y83763*
X181582D02*
X182036Y84388D01*
X182036D02*
X182264Y85013D01*
X184309Y88763D02*
X184764Y89075D01*
X185445Y90013*
X185445D02*
Y83450D01*
X187718Y88450D02*
Y88763D01*
X187718D02*
X187945Y89388D01*
X187945D02*
X188173Y89700D01*
X188627Y90013*
X188627D02*
X189536D01*
X189536D02*
X189991Y89700D01*
X190218Y89388*
X190218D02*
X190445Y88763D01*
X190445D02*
Y88138D01*
X190445D02*
X190218Y87513D01*
X190218D02*
X189764Y86575D01*
X187491Y83450*
X190673*
X195673Y87825D02*
X195445Y86888D01*
X195445D02*
X194991Y86263D01*
X194991D02*
X194309Y85950D01*
X194082*
X193400Y86263*
X193400D02*
X192945Y86888D01*
X192945D02*
X192718Y87825D01*
Y88138*
X192718D02*
X192945Y89075D01*
X193400Y89700*
X194082Y90013*
X194082D02*
X194309D01*
X194309D02*
X194991Y89700D01*
X195445Y89075*
X195673Y87825*
Y86263*
X195673D02*
X195445Y84700D01*
X194991Y83763*
X194991D02*
X194309Y83450D01*
X193855*
X193173Y83763*
X193173D02*
X192945Y84388D01*
X197718Y90013D02*
X200900Y83450D01*
Y90013D02*
X197718Y83450D01*
X314559Y110606D02*
Y104044D01*
X312968Y110606D02*
X316150D01*
X319332Y108419D02*
X318877Y108106D01*
X318423Y107481*
X318195Y106544*
Y105919*
X318423Y104981*
X318877Y104356*
X319332Y104044*
X320014*
X320468Y104356*
X320923Y104981*
X321150Y105919*
Y106544*
X320923Y107481*
X320468Y108106*
X320014Y108419*
X319332*
X323195D02*
Y101856D01*
Y107481D02*
X323650Y108106D01*
X324105Y108419*
X324786*
X325241Y108106*
X325695Y107481*
X325923Y106544*
Y105919*
X325695Y104981*
X325241Y104356*
X324786Y104044*
X324105*
X323650Y104356*
X323195Y104981*
X437400Y110606D02*
Y104044D01*
Y110606D02*
X439445D01*
X440127Y110294*
X440355Y109981*
X440582Y109356*
Y108731*
X440355Y108106*
X440127Y107794*
X439445Y107481*
X437400D02*
X439445D01*
X440127Y107169*
X440355Y106856*
X440582Y106231*
Y105294*
X440355Y104669*
X440127Y104356*
X439445Y104044*
X437400*
X443991Y110606D02*
X443536Y110294D01*
X443082Y109669*
X442855Y109044*
X442627Y108106*
Y106544*
X442855Y105606*
X443082Y104981*
X443536Y104356*
X443991Y104044*
X444900*
X445355Y104356*
X445809Y104981*
X446036Y105606*
X446264Y106544*
Y108106*
X446036Y109044*
X445809Y109669*
X445355Y110294*
X444900Y110606*
X443991*
X449900D02*
Y104044D01*
X448309Y110606D02*
X451491D01*
X463991D02*
Y104044D01*
X462400Y110606D02*
X465582D01*
X468991D02*
X468536Y110294D01*
X468082Y109669*
X467855Y109044*
X467627Y108106*
Y106544*
X467855Y105606*
X468082Y104981*
X468536Y104356*
X468991Y104044*
X469900*
X470355Y104356*
X470809Y104981*
X471036Y105606*
X471264Y106544*
Y108106*
X471036Y109044*
X470809Y109669*
X470355Y110294*
X469900Y110606*
X468991*
X473309D02*
Y104044D01*
Y110606D02*
X475355D01*
X476036Y110294*
X476264Y109981*
X476491Y109356*
Y108419*
X476264Y107794*
X476036Y107481*
X475355Y107169*
X473309*
X487400Y110606D02*
Y104044D01*
Y110606D02*
X489445D01*
X490127Y110294*
X490355Y109981*
X490582Y109356*
Y108731*
X490355Y108106*
X490127Y107794*
X489445Y107481*
X487400D02*
X489445D01*
X490127Y107169*
X490355Y106856*
X490582Y106231*
Y105294*
X490355Y104669*
X490127Y104356*
X489445Y104044*
X487400*
X493991Y110606D02*
X493536Y110294D01*
X493082Y109669*
X492855Y109044*
X492627Y108106*
Y106544*
X492855Y105606*
X493082Y104981*
X493536Y104356*
X493991Y104044*
X494900*
X495355Y104356*
X495809Y104981*
X496036Y105606*
X496264Y106544*
Y108106*
X496036Y109044*
X495809Y109669*
X495355Y110294*
X494900Y110606*
X493991*
X499900D02*
Y104044D01*
X498309Y110606D02*
X501491D01*
X524524Y126367D02*
Y120395D01*
Y126367D02*
X526178Y120395D01*
X527833Y126367D02*
X526178Y120395D01*
X527833Y126367D02*
Y120395D01*
X532176Y124377D02*
Y120395D01*
Y123523D02*
X531762Y124092D01*
X531762D02*
X531349Y124377D01*
X530728*
X530315Y124092*
X529901Y123523*
X529694Y122670*
Y122102*
X529901Y121248*
X530315Y120680*
X530728Y120395*
X531349*
X531762Y120680*
X531762D02*
X532176Y121248D01*
X536312Y123523D02*
X536106Y124092D01*
X535485Y124377*
X534865*
X534244Y124092*
X534037Y123523*
X534037D02*
X534244Y122955D01*
X534658Y122670*
X535692Y122386*
X536106Y122102*
X536312Y121533*
X536312D02*
Y121248D01*
X536312D02*
X536106Y120680D01*
X535485Y120395*
X534865*
X534244Y120680*
X534037Y121248*
X538174Y126367D02*
Y120395D01*
X540242Y124377D02*
X538174Y121533D01*
X539001Y122670D02*
X540449Y120395D01*
X587400Y110606D02*
Y104044D01*
Y110606D02*
X589445D01*
X590127Y110294*
X590355Y109981*
X590582Y109356*
Y108731*
X590355Y108106*
X590127Y107794*
X589445Y107481*
X587400D02*
X589445D01*
X590127Y107169*
X590355Y106856*
X590582Y106231*
Y105294*
X590355Y104669*
X590127Y104356*
X589445Y104044*
X587400*
X593991Y110606D02*
X593536Y110294D01*
X593082Y109669*
X592855Y109044*
X592627Y108106*
Y106544*
X592855Y105606*
X593082Y104981*
X593536Y104356*
X593991Y104044*
X594900*
X595355Y104356*
X595809Y104981*
X596036Y105606*
X596264Y106544*
Y108106*
X596036Y109044*
X595809Y109669*
X595355Y110294*
X594900Y110606*
X593991*
X599900D02*
Y104044D01*
X598309Y110606D02*
X601491D01*
X371741D02*
Y104044D01*
X373786Y108419D02*
Y104044D01*
Y107169D02*
X374468Y108106D01*
X374923Y108419*
X375605*
X376059Y108106*
X376286Y107169*
Y104044*
X379014Y110606D02*
Y105294D01*
X379241Y104356*
X379695Y104044*
X380150*
X378332Y108419D02*
X379923D01*
X382195Y106544D02*
X384923D01*
Y107169*
X384695Y107794*
X384468Y108106*
X384014Y108419*
X383332*
X382877Y108106*
X382423Y107481*
X382195Y106544*
Y105919*
X382423Y104981*
X382877Y104356*
X383332Y104044*
X384014*
X384468Y104356*
X384923Y104981*
X386968Y108419D02*
Y104044D01*
Y106544D02*
X387195Y107481D01*
X387650Y108106*
X388105Y108419*
X388786*
X390832D02*
Y104044D01*
Y107169D02*
X391514Y108106D01*
X391968Y108419*
X392650*
X393105Y108106*
X393332Y107169*
Y104044*
X398105Y108419D02*
Y104044D01*
Y107481D02*
X397650Y108106D01*
X397195Y108419*
X396514*
X396059Y108106*
X395605Y107481*
X395377Y106544*
Y105919*
X395605Y104981*
X396059Y104356*
X396514Y104044*
X397195*
X397650Y104356*
X398105Y104981*
X400150Y110606D02*
Y104044D01*
X513991Y110606D02*
Y104044D01*
X512400Y110606D02*
X515582D01*
X518991D02*
X518536Y110294D01*
X518082Y109669*
X517855Y109044*
X517627Y108106*
Y106544*
X517855Y105606*
X518082Y104981*
X518536Y104356*
X518991Y104044*
X519900*
X520355Y104356*
X520809Y104981*
X521036Y105606*
X521264Y106544*
Y108106*
X521036Y109044*
X520809Y109669*
X520355Y110294*
X519900Y110606*
X518991*
X523309D02*
Y104044D01*
Y110606D02*
X525355D01*
X526036Y110294*
X526264Y109981*
X526491Y109356*
Y108419*
X526264Y107794*
X526036Y107481*
X525355Y107169*
X523309*
X466889Y124514D02*
X466475Y125083D01*
X465855Y125367*
X465027*
X464407Y125083*
X463993Y124514*
Y123945*
X464200Y123377*
X464407Y123092*
X464820Y122808*
X466061Y122239*
X466475Y121955*
X466682Y121670*
X466889Y121102*
Y120248*
X466475Y119680*
X465855Y119395*
X465027*
X464407Y119680*
X463993Y120248*
X468750Y125367D02*
X468957Y125083D01*
X469164Y125367*
X468957Y125652*
X468750Y125367*
X468957Y123377D02*
Y119395D01*
X471025Y125367D02*
Y119395D01*
X472886Y125367D02*
Y119395D01*
X474955Y123377D02*
X472886Y120533D01*
X473714Y121670D02*
X475161Y119395D01*
X479298Y122523D02*
X479091Y123092D01*
X478470Y123377*
X477850*
X477230Y123092*
X477023Y122523*
X477230Y121955*
X477643Y121670*
X478677Y121386*
X479091Y121102*
X479298Y120533*
Y120248*
X479091Y119680*
X478470Y119395*
X477850*
X477230Y119680*
X477023Y120248*
X483641Y122523D02*
X483227Y123092D01*
X482814Y123377*
X482193*
X481780Y123092*
X481366Y122523*
X481159Y121670*
Y121102*
X481366Y120248*
X481780Y119680*
X482193Y119395*
X482814*
X483227Y119680*
X483641Y120248*
X485502Y123377D02*
Y119395D01*
Y121670D02*
X485709Y122523D01*
X486123Y123092*
X486536Y123377*
X487157*
X489018Y121670D02*
X491500D01*
Y122239*
X491293Y122808*
X491086Y123092*
X490673Y123377*
X490052*
X489639Y123092*
X489225Y122523*
X489018Y121670*
Y121102*
X489225Y120248*
X489639Y119680*
X490052Y119395*
X490673*
X491086Y119680*
X491500Y120248*
X493361Y121670D02*
X495843D01*
Y122239*
X495636Y122808*
X495430Y123092*
X495016Y123377*
X494395*
X493982Y123092*
X493568Y122523*
X493361Y121670*
Y121102*
X493568Y120248*
X493982Y119680*
X494395Y119395*
X495016*
X495430Y119680*
X495843Y120248*
X497705Y123377D02*
Y119395D01*
Y122239D02*
X498325Y123092D01*
X498739Y123377*
X499359*
X499773Y123092*
X499980Y122239*
Y119395*
X563991Y110606D02*
Y104044D01*
X562400Y110606D02*
X565582D01*
X568991D02*
X568536Y110294D01*
X568082Y109669*
X567855Y109044*
X567627Y108106*
Y106544*
X567855Y105606*
X568082Y104981*
X568536Y104356*
X568991Y104044*
X569900*
X570355Y104356*
X570809Y104981*
X571036Y105606*
X571264Y106544*
Y108106*
X571036Y109044*
X570809Y109669*
X570355Y110294*
X569900Y110606*
X568991*
X573309D02*
Y104044D01*
Y110606D02*
X575355D01*
X576036Y110294*
X576264Y109981*
X576491Y109356*
Y108419*
X576264Y107794*
X576036Y107481*
X575355Y107169*
X573309*
X567095Y126367D02*
X565441Y120395D01*
X567095Y126367D02*
X568750Y120395D01*
X566061Y122386D02*
X568130D01*
X572886Y123523D02*
X572680Y124092D01*
X572059Y124377*
X571439*
X570818Y124092*
X570611Y123523*
X570818Y122955*
X571232Y122670*
X572266Y122386*
X572680Y122102*
X572886Y121533*
Y121248*
X572680Y120680*
X572059Y120395*
X571439*
X570818Y120680*
X570611Y121248*
X577023Y123523D02*
X576816Y124092D01*
X576195Y124377*
X575575*
X574955Y124092*
X574748Y123523*
X574955Y122955*
X575368Y122670*
X576402Y122386*
X576816Y122102*
X577023Y121533*
Y121248*
X576816Y120680*
X576195Y120395*
X575575*
X574955Y120680*
X574748Y121248*
X578884Y122670D02*
X581366D01*
Y123239*
X581159Y123808*
X580952Y124092*
X580539Y124377*
X579918*
X579505Y124092*
X579091Y123523*
X578884Y122670*
Y122102*
X579091Y121248*
X579505Y120680*
X579918Y120395*
X580539*
X580952Y120680*
X581366Y121248*
X583227Y124377D02*
Y120395D01*
Y123239D02*
X583848Y124092D01*
X584261Y124377*
X584882*
X585295Y124092*
X585502Y123239*
Y120395*
Y123239D02*
X586123Y124092D01*
X586536Y124377*
X587157*
X587570Y124092*
X587777Y123239*
Y120395*
X589639Y126367D02*
Y120395D01*
Y123523D02*
X590052Y124092D01*
X590466Y124377*
X591086*
X591500Y124092*
X591914Y123523*
X592120Y122670*
Y122102*
X591914Y121248*
X591500Y120680*
X591086Y120395*
X590466*
X590052Y120680*
X589639Y121248*
X593982Y126367D02*
Y120395D01*
X596050Y124377D02*
X597291Y120395D01*
X598532Y124377D02*
X597291Y120395D01*
X596877Y119258*
X596464Y118689*
X596050Y118405*
X595843*
X537400Y110606D02*
Y104044D01*
Y110606D02*
X539445D01*
X540127Y110294*
X540355Y109981*
X540582Y109356*
Y108731*
X540355Y108106*
X540127Y107794*
X539445Y107481*
X537400D02*
X539445D01*
X540127Y107169*
X540355Y106856*
X540582Y106231*
Y105294*
X540355Y104669*
X540127Y104356*
X539445Y104044*
X537400*
X543991Y110606D02*
X543536Y110294D01*
X543082Y109669*
X542855Y109044*
X542627Y108106*
Y106544*
X542855Y105606*
X543082Y104981*
X543536Y104356*
X543991Y104044*
X544900*
X545355Y104356*
X545809Y104981*
X546036Y105606*
X546264Y106544*
Y108106*
X546036Y109044*
X545809Y109669*
X545355Y110294*
X544900Y110606*
X543991*
X549900D02*
Y104044D01*
X548309Y110606D02*
X551491D01*
X343758Y125445D02*
X343551Y126014D01*
X343138Y126583*
X343138D02*
X342724Y126867D01*
X341897*
X341483Y126583*
X341069Y126014*
X340863Y125445*
X340863D02*
X340656Y124592D01*
Y123170*
X340863Y122317*
X340863D02*
X341069Y121748D01*
X341483Y121180*
X341897Y120895*
X342724*
X343138Y121180*
X343138D02*
X343551Y121748D01*
X343758Y122317*
X346653Y124877D02*
X346240Y124592D01*
X345826Y124023*
X345619Y123170*
Y122602*
X345826Y121748*
X346240Y121180*
X346653Y120895*
X347274*
X347688Y121180*
X347688D02*
X348101Y121748D01*
X348308Y122602*
Y123170*
X348101Y124023*
X347688Y124592*
X347688D02*
X347274Y124877D01*
X346653*
X350169D02*
Y118905D01*
Y124023D02*
X350583Y124592D01*
X350997Y124877*
X351617*
X352031Y124592*
X352444Y124023*
X352651Y123170*
Y122602*
X352444Y121748*
X352031Y121180*
X351617Y120895*
X350997*
X350583Y121180*
X350169Y121748*
X354513Y124877D02*
Y118905D01*
Y124023D02*
X354926Y124592D01*
X355340Y124877*
X355960*
X356374Y124592*
X356788Y124023*
X356788D02*
X356994Y123170D01*
Y122602*
X356788Y121748*
X356788D02*
X356374Y121180D01*
X355960Y120895*
X355340*
X354926Y121180*
X354513Y121748*
X358856Y123170D02*
X361338D01*
X361338D02*
Y123739D01*
X361338D02*
X361131Y124308D01*
X360924Y124592*
X360510Y124877*
X359890*
X359476Y124592*
X359063Y124023*
X359063D02*
X358856Y123170D01*
Y122602*
X359063Y121748*
X359063D02*
X359476Y121180D01*
X359890Y120895*
X360510*
X360924Y121180*
X361338Y121748*
X363199Y124877D02*
Y120895D01*
Y123170D02*
X363406Y124023D01*
X363819Y124592*
X364233Y124877*
X364853*
X371472Y126867D02*
Y120895D01*
X373953*
X378297Y124877D02*
Y120895D01*
Y124023D02*
X377883Y124592D01*
X377469Y124877*
X376849*
X376435Y124592*
X376022Y124023*
X375815Y123170*
Y122602*
X376022Y121748*
X376435Y121180*
X376849Y120895*
X377469*
X377883Y121180*
X378297Y121748*
X380365Y124877D02*
X381606Y120895D01*
X382847Y124877D02*
X381606Y120895D01*
X381192Y119758*
X380778Y119189*
X380365Y118905*
X380158*
X384708Y123170D02*
X387190D01*
Y123739*
X386983Y124308*
X386776Y124592*
X386363Y124877*
X386363D02*
X385742D01*
X385328Y124592*
X384915Y124023*
X384708Y123170*
Y122602*
X384915Y121748*
X385328Y121180*
X385742Y120895*
X386363*
X386363D02*
X386776Y121180D01*
X387190Y121748*
X389051Y124877D02*
Y120895D01*
Y123170D02*
X389258Y124023D01*
X389672Y124592*
X390085Y124877*
X390706*
X397324Y126867D02*
Y120895D01*
Y126867D02*
X400219Y120895D01*
Y126867D02*
Y120895D01*
X404563Y124877D02*
Y120895D01*
Y124023D02*
X404149Y124592D01*
X403735Y124877*
X403115*
X402701Y124592*
X402288Y124023*
X402288D02*
X402081Y123170D01*
Y122602*
X402288Y121748*
X402288D02*
X402701Y121180D01*
X403115Y120895*
X403735*
X404149Y121180*
X404563Y121748*
X406424Y124877D02*
Y120895D01*
Y123739D02*
X407044Y124592D01*
X407458Y124877*
X408078*
X408492Y124592*
X408699Y123739*
Y120895*
Y123739D02*
X409319Y124592D01*
X409733Y124877*
X410353*
X410767Y124592*
X410974Y123739*
Y120895*
X412835Y123170D02*
X415317D01*
Y123739*
X415110Y124308*
X414903Y124592*
X414490Y124877*
X413869*
X413456Y124592*
X413042Y124023*
X412835Y123170*
Y122602*
X413042Y121748*
X413456Y121180*
X413869Y120895*
X414490*
X414903Y121180*
X415317Y121748*
X612900Y117575D02*
Y112325D01*
Y117575D02*
X615264D01*
X612900Y115075D02*
X614355D01*
X619082Y115825D02*
Y112325D01*
Y115075D02*
X618718Y115575D01*
X618355Y115825*
X617809*
X617445Y115575*
X617082Y115075*
X616900Y114325*
Y113825*
X617082Y113075*
X617445Y112575*
X617809Y112325*
X618355*
X618718Y112575*
X619082Y113075*
X620718Y117575D02*
Y112325D01*
Y115075D02*
X621082Y115575D01*
X621445Y115825*
X621991*
X622355Y115575*
X622718Y115075*
X622900Y114325*
Y113825*
X622718Y113075*
X622355Y112575*
X621991Y112325*
X621445*
X621082Y112575*
X620718Y113075*
X628718Y117575D02*
Y112325D01*
Y117575D02*
X629991D01*
X630536Y117325*
X630900Y116825*
X631082Y116325*
X631264Y115575*
Y114325*
X631082Y113575*
X630900Y113075*
X630536Y112575*
X629991Y112325*
X628718*
X632900Y115825D02*
Y112325D01*
Y114325D02*
X633082Y115075D01*
X633445Y115575*
X633809Y115825*
X634355*
X638173D02*
Y112325D01*
Y115075D02*
X637809Y115575D01*
X637445Y115825*
X636900*
X636536Y115575*
X636173Y115075*
X635991Y114325*
Y113825*
X636173Y113075*
X636536Y112575*
X636900Y112325*
X637445*
X637809Y112575*
X638173Y113075*
X639809Y115825D02*
X640536Y112325D01*
X641264Y115825D02*
X640536Y112325D01*
X641264Y115825D02*
X641991Y112325D01*
X642718Y115825D02*
X641991Y112325D01*
X644355Y117575D02*
X644536Y117325D01*
X644718Y117575*
X644536Y117825*
X644355Y117575*
X644536Y115825D02*
Y112325D01*
X646355Y115825D02*
Y112325D01*
Y114825D02*
X646900Y115575D01*
X647264Y115825*
X647809*
X648173Y115575*
X648355Y114825*
Y112325*
X652173Y115825D02*
Y111825D01*
X651991Y111075*
X651809Y110825*
X651445Y110575*
X650900*
X650536Y110825*
X652173Y115075D02*
X651809Y115575D01*
X651445Y115825*
X650900*
X650536Y115575*
X650173Y115075*
X649991Y114325*
Y113825*
X650173Y113075*
X650536Y112575*
X650900Y112325*
X651445*
X651809Y112575*
X652173Y113075*
G54D13*
X444800Y417200D02*
X442600D01*
Y424400*
X444800*
Y417200*
X442600D02*
X444800D01*
X442600Y418000D02*
X444800D01*
X442600Y418800D02*
X444800D01*
X442600Y419600D02*
X444800D01*
X442600Y420400D02*
X444800D01*
X442600Y421200D02*
X444800D01*
X442600Y422000D02*
X444800D01*
X442600Y422800D02*
X444800D01*
X442600Y423600D02*
X444800D01*
X442600Y424400D02*
X444800D01*
X443200Y417200D02*
Y424400D01*
X444000Y417200D02*
Y424400D01*
X444800Y417200D02*
Y424400D01*
X449800Y417200D02*
X447600D01*
Y424400*
X449800*
Y417200*
X447600D02*
X449800D01*
X447600Y418000D02*
X449800D01*
X447600Y418800D02*
X449800D01*
X447600Y419600D02*
X449800D01*
X447600Y420400D02*
X449800D01*
X447600Y421200D02*
X449800D01*
X447600Y422000D02*
X449800D01*
X447600Y422800D02*
X449800D01*
X447600Y423600D02*
X449800D01*
X447600Y424400D02*
X449800D01*
X448000Y417200D02*
Y424400D01*
X448800Y417200D02*
Y424400D01*
X449600Y417200D02*
Y424400D01*
X454800Y417200D02*
X452600D01*
Y424400*
X454800*
Y417200*
X452600D02*
X454800D01*
X452600Y418000D02*
X454800D01*
X452600Y418800D02*
X454800D01*
X452600Y419600D02*
X454800D01*
X452600Y420400D02*
X454800D01*
X452600Y421200D02*
X454800D01*
X452600Y422000D02*
X454800D01*
X452600Y422800D02*
X454800D01*
X452600Y423600D02*
X454800D01*
X452600Y424400D02*
X454800D01*
X452800Y417200D02*
Y424400D01*
X453600Y417200D02*
Y424400D01*
X454400Y417200D02*
Y424400D01*
X459800Y417200D02*
X457600D01*
Y424400*
X459800*
Y417200*
X457600D02*
X459800D01*
X457600Y418000D02*
X459800D01*
X457600Y418800D02*
X459800D01*
X457600Y419600D02*
X459800D01*
X457600Y420400D02*
X459800D01*
X457600Y421200D02*
X459800D01*
X457600Y422000D02*
X459800D01*
X457600Y422800D02*
X459800D01*
X457600Y423600D02*
X459800D01*
X457600Y424400D02*
X459800D01*
X457600Y417200D02*
Y424400D01*
X458400Y417200D02*
Y424400D01*
X459200Y417200D02*
Y424400D01*
X464800Y417200D02*
X462600D01*
Y424400*
X464800*
Y417200*
X462600D02*
X464800D01*
X462600Y418000D02*
X464800D01*
X462600Y418800D02*
X464800D01*
X462600Y419600D02*
X464800D01*
X462600Y420400D02*
X464800D01*
X462600Y421200D02*
X464800D01*
X462600Y422000D02*
X464800D01*
X462600Y422800D02*
X464800D01*
X462600Y423600D02*
X464800D01*
X462600Y424400D02*
X464800D01*
X463200Y417200D02*
Y424400D01*
X464000Y417200D02*
Y424400D01*
X464800Y417200D02*
Y424400D01*
X469800Y417200D02*
X467600D01*
Y424400*
X469800*
Y417200*
X467600D02*
X469800D01*
X467600Y418000D02*
X469800D01*
X467600Y418800D02*
X469800D01*
X467600Y419600D02*
X469800D01*
X467600Y420400D02*
X469800D01*
X467600Y421200D02*
X469800D01*
X467600Y422000D02*
X469800D01*
X467600Y422800D02*
X469800D01*
X467600Y423600D02*
X469800D01*
X467600Y424400D02*
X469800D01*
X468000Y417200D02*
Y424400D01*
X468800Y417200D02*
Y424400D01*
X469600Y417200D02*
Y424400D01*
X474800Y417200D02*
X472600D01*
Y424400*
X474800*
Y417200*
X472600D02*
X474800D01*
X472600Y418000D02*
X474800D01*
X472600Y418800D02*
X474800D01*
X472600Y419600D02*
X474800D01*
X472600Y420400D02*
X474800D01*
X472600Y421200D02*
X474800D01*
X472600Y422000D02*
X474800D01*
X472600Y422800D02*
X474800D01*
X472600Y423600D02*
X474800D01*
X472600Y424400D02*
X474800D01*
X472800Y417200D02*
Y424400D01*
X473600Y417200D02*
Y424400D01*
X474400Y417200D02*
Y424400D01*
X479800Y417200D02*
X477600D01*
Y424400*
X479800*
Y417200*
X477600D02*
X479800D01*
X477600Y418000D02*
X479800D01*
X477600Y418800D02*
X479800D01*
X477600Y419600D02*
X479800D01*
X477600Y420400D02*
X479800D01*
X477600Y421200D02*
X479800D01*
X477600Y422000D02*
X479800D01*
X477600Y422800D02*
X479800D01*
X477600Y423600D02*
X479800D01*
X477600Y424400D02*
X479800D01*
X477600Y417200D02*
Y424400D01*
X478400Y417200D02*
Y424400D01*
X479200Y417200D02*
Y424400D01*
X479800Y449200D02*
X477600D01*
Y456400*
X479800*
Y449200*
X477600D02*
X479800D01*
X477600Y450000D02*
X479800D01*
X477600Y450800D02*
X479800D01*
X477600Y451600D02*
X479800D01*
X477600Y452400D02*
X479800D01*
X477600Y453200D02*
X479800D01*
X477600Y454000D02*
X479800D01*
X477600Y454800D02*
X479800D01*
X477600Y455600D02*
X479800D01*
X477600Y456400D02*
X479800D01*
X477600Y449200D02*
Y456400D01*
X478400Y449200D02*
Y456400D01*
X479200Y449200D02*
Y456400D01*
X474800Y449200D02*
X472600D01*
Y456400*
X474800*
Y449200*
X472600D02*
X474800D01*
X472600Y450000D02*
X474800D01*
X472600Y450800D02*
X474800D01*
X472600Y451600D02*
X474800D01*
X472600Y452400D02*
X474800D01*
X472600Y453200D02*
X474800D01*
X472600Y454000D02*
X474800D01*
X472600Y454800D02*
X474800D01*
X472600Y455600D02*
X474800D01*
X472600Y456400D02*
X474800D01*
X472800Y449200D02*
Y456400D01*
X473600Y449200D02*
Y456400D01*
X474400Y449200D02*
Y456400D01*
X469800Y449200D02*
X467600D01*
Y456400*
X469800*
Y449200*
X467600D02*
X469800D01*
X467600Y450000D02*
X469800D01*
X467600Y450800D02*
X469800D01*
X467600Y451600D02*
X469800D01*
X467600Y452400D02*
X469800D01*
X467600Y453200D02*
X469800D01*
X467600Y454000D02*
X469800D01*
X467600Y454800D02*
X469800D01*
X467600Y455600D02*
X469800D01*
X467600Y456400D02*
X469800D01*
X468000Y449200D02*
Y456400D01*
X468800Y449200D02*
Y456400D01*
X469600Y449200D02*
Y456400D01*
X464800Y449200D02*
X462600D01*
Y456400*
X464800*
Y449200*
X462600D02*
X464800D01*
X462600Y450000D02*
X464800D01*
X462600Y450800D02*
X464800D01*
X462600Y451600D02*
X464800D01*
X462600Y452400D02*
X464800D01*
X462600Y453200D02*
X464800D01*
X462600Y454000D02*
X464800D01*
X462600Y454800D02*
X464800D01*
X462600Y455600D02*
X464800D01*
X462600Y456400D02*
X464800D01*
X463200Y449200D02*
Y456400D01*
X464000Y449200D02*
Y456400D01*
X464800Y449200D02*
Y456400D01*
X459800Y449200D02*
X457600D01*
Y456400*
X459800*
Y449200*
X457600D02*
X459800D01*
X457600Y450000D02*
X459800D01*
X457600Y450800D02*
X459800D01*
X457600Y451600D02*
X459800D01*
X457600Y452400D02*
X459800D01*
X457600Y453200D02*
X459800D01*
X457600Y454000D02*
X459800D01*
X457600Y454800D02*
X459800D01*
X457600Y455600D02*
X459800D01*
X457600Y456400D02*
X459800D01*
X457600Y449200D02*
Y456400D01*
X458400Y449200D02*
Y456400D01*
X459200Y449200D02*
Y456400D01*
X454800Y449200D02*
X452600D01*
Y456400*
X454800*
Y449200*
X452600D02*
X454800D01*
X452600Y450000D02*
X454800D01*
X452600Y450800D02*
X454800D01*
X452600Y451600D02*
X454800D01*
X452600Y452400D02*
X454800D01*
X452600Y453200D02*
X454800D01*
X452600Y454000D02*
X454800D01*
X452600Y454800D02*
X454800D01*
X452600Y455600D02*
X454800D01*
X452600Y456400D02*
X454800D01*
X452800Y449200D02*
Y456400D01*
X453600Y449200D02*
Y456400D01*
X454400Y449200D02*
Y456400D01*
X449800Y449200D02*
X447600D01*
Y456400*
X449800*
Y449200*
X447600D02*
X449800D01*
X447600Y450000D02*
X449800D01*
X447600Y450800D02*
X449800D01*
X447600Y451600D02*
X449800D01*
X447600Y452400D02*
X449800D01*
X447600Y453200D02*
X449800D01*
X447600Y454000D02*
X449800D01*
X447600Y454800D02*
X449800D01*
X447600Y455600D02*
X449800D01*
X447600Y456400D02*
X449800D01*
X448000Y449200D02*
Y456400D01*
X448800Y449200D02*
Y456400D01*
X449600Y449200D02*
Y456400D01*
X444800Y449200D02*
X442600D01*
Y456400*
X444800*
Y449200*
X442600D02*
X444800D01*
X442600Y450000D02*
X444800D01*
X442600Y450800D02*
X444800D01*
X442600Y451600D02*
X444800D01*
X442600Y452400D02*
X444800D01*
X442600Y453200D02*
X444800D01*
X442600Y454000D02*
X444800D01*
X442600Y454800D02*
X444800D01*
X442600Y455600D02*
X444800D01*
X442600Y456400D02*
X444800D01*
X443200Y449200D02*
Y456400D01*
X444000Y449200D02*
Y456400D01*
X444800Y449200D02*
Y456400D01*
X455825Y477900D02*
Y479500D01*
X463675*
Y477900*
X455825*
Y478000D02*
X463675D01*
X455825Y478800D02*
X463675D01*
X456000Y477900D02*
Y479500D01*
X456800Y477900D02*
Y479500D01*
X457600Y477900D02*
Y479500D01*
X458400Y477900D02*
Y479500D01*
X459200Y477900D02*
Y479500D01*
X460000Y477900D02*
Y479500D01*
X460800Y477900D02*
Y479500D01*
X461600Y477900D02*
Y479500D01*
X462400Y477900D02*
Y479500D01*
X463200Y477900D02*
Y479500D01*
X455825Y472900D02*
Y474500D01*
X463675*
Y472900*
X455825*
Y473200D02*
X463675D01*
X455825Y474000D02*
X463675D01*
X456000Y472900D02*
Y474500D01*
X456800Y472900D02*
Y474500D01*
X457600Y472900D02*
Y474500D01*
X458400Y472900D02*
Y474500D01*
X459200Y472900D02*
Y474500D01*
X460000Y472900D02*
Y474500D01*
X460800Y472900D02*
Y474500D01*
X461600Y472900D02*
Y474500D01*
X462400Y472900D02*
Y474500D01*
X463200Y472900D02*
Y474500D01*
X455825Y467900D02*
Y469500D01*
X463675*
Y467900*
X455825*
Y468400D02*
X463675D01*
X455825Y469200D02*
X463675D01*
X456000Y467900D02*
Y469500D01*
X456800Y467900D02*
Y469500D01*
X457600Y467900D02*
Y469500D01*
X458400Y467900D02*
Y469500D01*
X459200Y467900D02*
Y469500D01*
X460000Y467900D02*
Y469500D01*
X460800Y467900D02*
Y469500D01*
X461600Y467900D02*
Y469500D01*
X462400Y467900D02*
Y469500D01*
X463200Y467900D02*
Y469500D01*
X455825Y462900D02*
Y464500D01*
X463675*
Y462900*
X455825*
Y463600D02*
X463675D01*
X455825Y464400D02*
X463675D01*
X456000Y462900D02*
Y464500D01*
X456800Y462900D02*
Y464500D01*
X457600Y462900D02*
Y464500D01*
X458400Y462900D02*
Y464500D01*
X459200Y462900D02*
Y464500D01*
X460000Y462900D02*
Y464500D01*
X460800Y462900D02*
Y464500D01*
X461600Y462900D02*
Y464500D01*
X462400Y462900D02*
Y464500D01*
X463200Y462900D02*
Y464500D01*
X476325Y462900D02*
Y464500D01*
X484175*
Y462900*
X476325*
Y463600D02*
X484175D01*
X476325Y464400D02*
X484175D01*
X476800Y462900D02*
Y464500D01*
X477600Y462900D02*
Y464500D01*
X478400Y462900D02*
Y464500D01*
X479200Y462900D02*
Y464500D01*
X480000Y462900D02*
Y464500D01*
X480800Y462900D02*
Y464500D01*
X481600Y462900D02*
Y464500D01*
X482400Y462900D02*
Y464500D01*
X483200Y462900D02*
Y464500D01*
X484000Y462900D02*
Y464500D01*
X476325Y467900D02*
Y469500D01*
X484175*
Y467900*
X476325*
Y468400D02*
X484175D01*
X476325Y469200D02*
X484175D01*
X476800Y467900D02*
Y469500D01*
X477600Y467900D02*
Y469500D01*
X478400Y467900D02*
Y469500D01*
X479200Y467900D02*
Y469500D01*
X480000Y467900D02*
Y469500D01*
X480800Y467900D02*
Y469500D01*
X481600Y467900D02*
Y469500D01*
X482400Y467900D02*
Y469500D01*
X483200Y467900D02*
Y469500D01*
X484000Y467900D02*
Y469500D01*
X476325Y472900D02*
Y474500D01*
X484175*
Y472900*
X476325*
Y473200D02*
X484175D01*
X476325Y474000D02*
X484175D01*
X476800Y472900D02*
Y474500D01*
X477600Y472900D02*
Y474500D01*
X478400Y472900D02*
Y474500D01*
X479200Y472900D02*
Y474500D01*
X480000Y472900D02*
Y474500D01*
X480800Y472900D02*
Y474500D01*
X481600Y472900D02*
Y474500D01*
X482400Y472900D02*
Y474500D01*
X483200Y472900D02*
Y474500D01*
X484000Y472900D02*
Y474500D01*
X476325Y477900D02*
Y479500D01*
X484175*
Y477900*
X476325*
Y478000D02*
X484175D01*
X476325Y478800D02*
X484175D01*
X476800Y477900D02*
Y479500D01*
X477600Y477900D02*
Y479500D01*
X478400Y477900D02*
Y479500D01*
X479200Y477900D02*
Y479500D01*
X480000Y477900D02*
Y479500D01*
X480800Y477900D02*
Y479500D01*
X481600Y477900D02*
Y479500D01*
X482400Y477900D02*
Y479500D01*
X483200Y477900D02*
Y479500D01*
X484000Y477900D02*
Y479500D01*
X465688Y70018D02*
X465279Y69830D01*
X465006Y69268*
X465006D02*
X464870Y68330D01*
Y67768*
X464870D02*
X465006Y66830D01*
X465279Y66268*
X465279D02*
X465688Y66080D01*
X465961*
X466370Y66268*
X466370D02*
X466643Y66830D01*
X466779Y67768*
X466779D02*
Y68330D01*
X466643Y69268*
X466643D02*
X466370Y69830D01*
X465961Y70018*
X465961D02*
X465688D01*
X469915D02*
X468552Y66080D01*
X468006Y70018D02*
X469915D01*
X473597Y70768D02*
X471143Y64767D01*
X474825Y69268D02*
X475097Y69455D01*
X475506Y70018*
X475506D02*
Y66080D01*
X478506Y70018D02*
X477143D01*
X477143D02*
X477006Y68330D01*
X477143Y68518*
X477143D02*
X477552Y68705D01*
X477961*
X478370Y68518*
X478370D02*
X478643Y68143D01*
X478643D02*
X478779Y67580D01*
X478643Y67205*
X478506Y66643*
X478506D02*
X478234Y66268D01*
X478234D02*
X477825Y66080D01*
X477415*
X477006Y66268*
X477006D02*
X476870Y66455D01*
X476734Y66830*
X482461Y70768D02*
X480006Y64767D01*
X483825Y69080D02*
Y69268D01*
X483825D02*
X483961Y69643D01*
X483961D02*
X484097Y69830D01*
X484370Y70018*
X484370D02*
X484915D01*
X484915D02*
X485188Y69830D01*
X485325Y69643*
X485325D02*
X485461Y69268D01*
X485461D02*
Y68893D01*
X485461D02*
X485325Y68518D01*
X485325D02*
X485052Y67955D01*
X483688Y66080*
X485597*
X487643Y70018D02*
X487234Y69830D01*
X486961Y69268*
X486961D02*
X486825Y68330D01*
Y67768*
X486825D02*
X486961Y66830D01*
X487234Y66268*
X487234D02*
X487643Y66080D01*
X487915*
X488325Y66268*
X488325D02*
X488597Y66830D01*
X488734Y67768*
X488734D02*
Y68330D01*
X488597Y69268*
X488597D02*
X488325Y69830D01*
X487915Y70018*
X487915D02*
X487643D01*
X489961Y69268D02*
X490234Y69455D01*
X490643Y70018*
X490643D02*
Y66080D01*
X492143Y70018D02*
X493643D01*
X493643D02*
X492825Y68518D01*
X492825D02*
X493234D01*
X493234D02*
X493506Y68330D01*
X493643Y68143*
X493643D02*
X493779Y67580D01*
Y67205*
X493643Y66643*
X493643D02*
X493370Y66268D01*
X493370D02*
X492961Y66080D01*
X492552*
X492143Y66268*
X492143D02*
X492006Y66455D01*
X491870Y66830*
X614370Y69018D02*
Y65080D01*
Y69018D02*
X615597D01*
X615597D02*
X616006Y68830D01*
X616143Y68643*
X616143D02*
X616279Y68268D01*
X616279D02*
Y67705D01*
X616143Y67330*
X616006Y67143*
X616006D02*
X615597Y66955D01*
X614370*
X618597Y69018D02*
X617506Y65080D01*
X618597Y69018D02*
X619688Y65080D01*
X617915Y66393D02*
X619279D01*
X620915Y69018D02*
Y65080D01*
Y69018D02*
X621870D01*
X621870D02*
X622279Y68830D01*
X622552Y68455*
X622688Y68080*
X622825Y67518*
X622825D02*
Y66580D01*
X622688Y66018*
X622688D02*
X622552Y65643D01*
X622552D02*
X622279Y65268D01*
X622279D02*
X621870Y65080D01*
X620915*
X625552Y67143D02*
X625415Y67518D01*
X625415D02*
X625006Y67705D01*
X624597*
X624188Y67518*
X624188D02*
X624052Y67143D01*
X624052D02*
X624188Y66768D01*
X624188D02*
X624461Y66580D01*
X625143Y66393*
X625143D02*
X625415Y66205D01*
X625552Y65830*
Y65643*
X625552D02*
X625415Y65268D01*
X625415D02*
X625006Y65080D01*
X624597*
X624188Y65268*
X624188D02*
X624052Y65643D01*
X629915Y67705D02*
X630734Y65080D01*
X631552Y67705D02*
X630734Y65080D01*
X634552Y67705D02*
X634415Y67143D01*
X634415D02*
X634143Y66768D01*
X634143D02*
X633734Y66580D01*
X633597*
X633188Y66768*
X633188D02*
X632915Y67143D01*
X632915D02*
X632779Y67705D01*
Y67893*
X632779D02*
X632915Y68455D01*
X633188Y68830*
X633597Y69018*
X633597D02*
X633734D01*
X633734D02*
X634143Y68830D01*
X634415Y68455*
X634552Y67705*
Y66768*
X634552D02*
X634415Y65830D01*
X634143Y65268*
X634143D02*
X633734Y65080D01*
X633461*
X633052Y65268*
X633052D02*
X632915Y65643D01*
X635915Y65455D02*
X635779Y65268D01*
X635779D02*
X635915Y65080D01*
X636052Y65268*
X636052D02*
X635915Y65455D01*
X637552Y69018D02*
X639052D01*
X639052D02*
X638234Y67518D01*
X638234D02*
X638643D01*
X638643D02*
X638915Y67330D01*
X639052Y67143*
X639052D02*
X639188Y66580D01*
Y66205*
X639052Y65643*
X639052D02*
X638779Y65268D01*
X638779D02*
X638370Y65080D01*
X637961*
X637552Y65268*
X637552D02*
X637415Y65455D01*
X637279Y65830*
X378309Y69325D02*
X378036Y69700D01*
X377627Y69888*
X377627D02*
X377082D01*
X377082D02*
X376673Y69700D01*
X376400Y69325*
Y68950*
X376536Y68575*
X376673Y68388*
X376673D02*
X376945Y68200D01*
X377764Y67825*
X378036Y67638*
X378036D02*
X378173Y67450D01*
X378309Y67075*
Y66513*
X378309D02*
X378036Y66138D01*
X378036D02*
X377627Y65950D01*
X377082*
X376673Y66138*
X376673D02*
X376400Y66513D01*
X379536Y69888D02*
Y65950D01*
X381173*
X383764Y69888D02*
Y66888D01*
X383764D02*
X383627Y66325D01*
X383491Y66138*
X383491D02*
X383218Y65950D01*
X382945*
X382673Y66138*
X382673D02*
X382536Y66325D01*
X382400Y66888*
X382400D02*
Y67263D01*
X293309Y69325D02*
X293036Y69700D01*
X292627Y69888*
X292627D02*
X292082D01*
X292082D02*
X291673Y69700D01*
X291400Y69325*
Y68950*
X291536Y68575*
X291673Y68388*
X291673D02*
X291945Y68200D01*
X292764Y67825*
X293036Y67638*
X293036D02*
X293173Y67450D01*
X293309Y67075*
Y66513*
X293309D02*
X293036Y66138D01*
X293036D02*
X292627Y65950D01*
X292082*
X291673Y66138*
X291673D02*
X291400Y66513D01*
X294536Y69888D02*
Y65950D01*
X296173*
X298764Y69888D02*
Y66888D01*
X298764D02*
X298627Y66325D01*
X298491Y66138*
X298491D02*
X298218Y65950D01*
X297945*
X297673Y66138*
X297673D02*
X297536Y66325D01*
X297400Y66888*
X297400D02*
Y67263D01*
X201400Y69888D02*
Y65950D01*
Y69888D02*
X202355D01*
X202355D02*
X202764Y69700D01*
X203036Y69325*
X203173Y68950*
X203309Y68388*
X203309D02*
Y67450D01*
X203173Y66888*
X203173D02*
X203036Y66513D01*
X203036D02*
X202764Y66138D01*
X202764D02*
X202355Y65950D01*
X201400*
X204536Y69888D02*
Y65950D01*
X206445Y69888D02*
X204536Y67263D01*
X205218Y68200D02*
X206445Y65950D01*
X207673Y67638D02*
X210127D01*
X212309Y69888D02*
Y65950D01*
X211355Y69888D02*
X213264D01*
X214491D02*
Y65950D01*
Y69888D02*
X215582Y65950D01*
X216673Y69888D02*
X215582Y65950D01*
X216673Y69888D02*
Y65950D01*
X219264Y69888D02*
X217900Y67263D01*
X217900D02*
X219945D01*
X219264Y69888D02*
Y65950D01*
X223218Y68950D02*
X223082Y69325D01*
X222809Y69700*
X222536Y69888*
X222536D02*
X221991D01*
X221991D02*
X221718Y69700D01*
X221445Y69325*
X221309Y68950*
X221173Y68388*
X221173D02*
Y67450D01*
X221309Y66888*
X221309D02*
X221445Y66513D01*
X221445D02*
X221718Y66138D01*
X221718D02*
X221991Y65950D01*
X222536*
X222809Y66138*
X222809D02*
X223082Y66513D01*
X223082D02*
X223218Y66888D01*
X224445Y69138D02*
X224718Y69325D01*
X225127Y69888*
X225127D02*
Y65950D01*
X226491Y68950D02*
Y69138D01*
X226491D02*
X226627Y69513D01*
X226627D02*
X226764Y69700D01*
X227036Y69888*
X227036D02*
X227582D01*
X227582D02*
X227855Y69700D01*
X227991Y69513*
X227991D02*
X228127Y69138D01*
X228127D02*
Y68763D01*
X228127D02*
X227991Y68388D01*
X227991D02*
X227718Y67825D01*
X226355Y65950*
X228264*
X231264Y68575D02*
X231127Y68013D01*
X231127D02*
X230855Y67638D01*
X230855D02*
X230445Y67450D01*
X230309*
X229900Y67638*
X229900D02*
X229627Y68013D01*
X229627D02*
X229491Y68575D01*
Y68763*
X229491D02*
X229627Y69325D01*
X229900Y69700*
X230309Y69888*
X230309D02*
X230445D01*
X230445D02*
X230855Y69700D01*
X231127Y69325*
X231264Y68575*
Y67638*
X231264D02*
X231127Y66700D01*
X230855Y66138*
X230855D02*
X230445Y65950D01*
X230173*
X229764Y66138*
X229764D02*
X229627Y66513D01*
X232491Y69888D02*
X234400Y65950D01*
Y69888D02*
X232491Y65950D01*
X132218Y69888D02*
X131809Y69700D01*
X131536Y69138*
X131536D02*
X131400Y68200D01*
Y67638*
X131400D02*
X131536Y66700D01*
X131809Y66138*
X131809D02*
X132218Y65950D01*
X132491*
X132900Y66138*
X132900D02*
X133173Y66700D01*
X133309Y67638*
X133309D02*
Y68200D01*
X133173Y69138*
X133173D02*
X132900Y69700D01*
X132491Y69888*
X132491D02*
X132218D01*
X136445D02*
X135082Y65950D01*
X134536Y69888D02*
X136445D01*
X140127Y70638D02*
X137673Y64637D01*
X141355Y69138D02*
X141627Y69325D01*
X142036Y69888*
X142036D02*
Y65950D01*
X145036Y69888D02*
X143673D01*
X143673D02*
X143536Y68200D01*
X143673Y68388*
X143673D02*
X144082Y68575D01*
X144491*
X144900Y68388*
X144900D02*
X145173Y68013D01*
X145173D02*
X145309Y67450D01*
X145173Y67075*
X145036Y66513*
X145036D02*
X144764Y66138D01*
X144764D02*
X144355Y65950D01*
X143945*
X143536Y66138*
X143536D02*
X143400Y66325D01*
X143264Y66700*
X148991Y70638D02*
X146536Y64637D01*
X150355Y68950D02*
Y69138D01*
X150355D02*
X150491Y69513D01*
X150491D02*
X150627Y69700D01*
X150900Y69888*
X150900D02*
X151445D01*
X151445D02*
X151718Y69700D01*
X151855Y69513*
X151855D02*
X151991Y69138D01*
X151991D02*
Y68763D01*
X151991D02*
X151855Y68388D01*
X151855D02*
X151582Y67825D01*
X150218Y65950*
X152127*
X154173Y69888D02*
X153764Y69700D01*
X153491Y69138*
X153491D02*
X153355Y68200D01*
Y67638*
X153355D02*
X153491Y66700D01*
X153764Y66138*
X153764D02*
X154173Y65950D01*
X154445*
X154855Y66138*
X154855D02*
X155127Y66700D01*
X155264Y67638*
X155264D02*
Y68200D01*
X155127Y69138*
X155127D02*
X154855Y69700D01*
X154445Y69888*
X154445D02*
X154173D01*
X156491Y69138D02*
X156764Y69325D01*
X157173Y69888*
X157173D02*
Y65950D01*
X158673Y69888D02*
X160173D01*
X160173D02*
X159355Y68388D01*
X159355D02*
X159764D01*
X159764D02*
X160036Y68200D01*
X160173Y68013*
X160173D02*
X160309Y67450D01*
Y67075*
X160173Y66513*
X160173D02*
X159900Y66138D01*
X159900D02*
X159491Y65950D01*
X159082*
X158673Y66138*
X158673D02*
X158536Y66325D01*
X158400Y66700*
G54D15*
X196914Y750826D02*
X198086D01*
Y747686*
X196914*
Y750826*
Y748200D02*
X198086D01*
X196914Y748800D02*
X198086D01*
X196914Y749400D02*
X198086D01*
X196914Y750000D02*
X198086D01*
X196914Y750600D02*
X198086D01*
X197200Y747686D02*
Y750826D01*
X197800Y747686D02*
Y750826D01*
G54D18*
X135286Y119434D02*
Y109591D01*
X132900Y119434D02*
X137673D01*
X140741D02*
Y109591D01*
Y119434D02*
X145173D01*
X140741Y114747D02*
X143468D01*
X140741Y109591D02*
X145173D01*
X148241Y119434D02*
X153014Y109591D01*
Y119434D02*
X148241Y109591D01*
X158809Y119434D02*
X156082Y109591D01*
X158809Y119434D02*
X161536Y109591D01*
X157105Y112872D02*
X160514D01*
X169377Y118028D02*
X168695Y118966D01*
X167673Y119434*
X166309*
X165286Y118966*
X164605Y118028*
Y117091*
X164945Y116153*
X165286Y115684*
X165968Y115216*
X168014Y114278*
X168695Y113809*
X169036Y113341*
X169377Y112403*
Y110997*
X168695Y110059*
X167673Y109591*
X166309*
X165286Y110059*
X164605Y110997*
X180286Y119434D02*
Y109591D01*
X183355Y119434D02*
Y109591D01*
Y119434D02*
X188127Y109591D01*
Y119434D02*
Y109591D01*
X195968Y118028D02*
X195286Y118966D01*
X194264Y119434*
X192900*
X191877Y118966*
X191195Y118028*
Y117091*
X191536Y116153*
X191877Y115684*
X192559Y115216*
X194605Y114278*
X195286Y113809*
X195627Y113341*
X195968Y112403*
Y110997*
X195286Y110059*
X194264Y109591*
X192900*
X191877Y110059*
X191195Y110997*
X201423Y119434D02*
Y109591D01*
X199036Y119434D02*
X203809D01*
X206877D02*
Y109591D01*
Y119434D02*
X209945D01*
X210968Y118966*
X211309Y118497*
X211650Y117559*
Y116622*
X211309Y115684*
X210968Y115216*
X209945Y114747*
X206877*
X209264D02*
X211650Y109591D01*
X214718Y119434D02*
Y112403D01*
X215059Y110997*
X215741Y110059*
X216764Y109591*
X217445*
X218468Y110059*
X219150Y110997*
X219491Y112403*
Y119434*
X222559D02*
Y109591D01*
Y119434D02*
X225286Y109591D01*
X228014Y119434D02*
X225286Y109591D01*
X228014Y119434D02*
Y109591D01*
X231082Y119434D02*
Y109591D01*
Y119434D02*
X235514D01*
X231082Y114747D02*
X233809D01*
X231082Y109591D02*
X235514D01*
X238582Y119434D02*
Y109591D01*
Y119434D02*
X243355Y109591D01*
Y119434D02*
Y109591D01*
X248809Y119434D02*
Y109591D01*
X246423Y119434D02*
X251195D01*
X259036Y118028D02*
X258355Y118966D01*
X257332Y119434*
X255968*
X254945Y118966*
X254264Y118028*
Y117091*
X254605Y116153*
X254945Y115684*
X255627Y115216*
X257673Y114278*
X258355Y113809*
X258695Y113341*
X259036Y112403*
Y110997*
X258355Y110059*
X257332Y109591*
X255968*
X254945Y110059*
X254264Y110997*
G54D20*
X530000Y496250D03*
Y509750D03*
G54D31*
X535232Y619512D02*
Y618724D01*
X530705*
Y619512*
X535232*
X530705Y619291D02*
X535232D01*
X530709Y618724D02*
Y619512D01*
X531496Y618724D02*
Y619512D01*
X532283Y618724D02*
Y619512D01*
X533071Y618724D02*
Y619512D01*
X533858Y618724D02*
Y619512D01*
X534646Y618724D02*
Y619512D01*
X535232Y616953D02*
Y616165D01*
X530705*
Y616953*
X535232*
X530705Y616929D02*
X535232D01*
X530709Y616165D02*
Y616953D01*
X531496Y616165D02*
Y616953D01*
X532283Y616165D02*
Y616953D01*
X533071Y616165D02*
Y616953D01*
X533858Y616165D02*
Y616953D01*
X534646Y616165D02*
Y616953D01*
X535232Y614394D02*
Y613606D01*
X530705*
Y614394*
X535232*
X530705Y613780D02*
X535232D01*
X530709Y613606D02*
Y614394D01*
X531496Y613606D02*
Y614394D01*
X532283Y613606D02*
Y614394D01*
X533071Y613606D02*
Y614394D01*
X533858Y613606D02*
Y614394D01*
X534646Y613606D02*
Y614394D01*
X535232Y611835D02*
Y611047D01*
X530705*
Y611835*
X535232*
X530705Y611417D02*
X535232D01*
X530709Y611047D02*
Y611835D01*
X531496Y611047D02*
Y611835D01*
X532283Y611047D02*
Y611835D01*
X533071Y611047D02*
Y611835D01*
X533858Y611047D02*
Y611835D01*
X534646Y611047D02*
Y611835D01*
X535232Y609276D02*
Y608488D01*
X530705*
Y609276*
X535232*
X530705Y609055D02*
X535232D01*
X530709Y608488D02*
Y609276D01*
X531496Y608488D02*
Y609276D01*
X532283Y608488D02*
Y609276D01*
X533071Y608488D02*
Y609276D01*
X533858Y608488D02*
Y609276D01*
X534646Y608488D02*
Y609276D01*
X535232Y735276D02*
Y734488D01*
X530705*
Y735276*
X535232*
X530705Y735039D02*
X535232D01*
X530709Y734488D02*
Y735276D01*
X531496Y734488D02*
Y735276D01*
X532283Y734488D02*
Y735276D01*
X533071Y734488D02*
Y735276D01*
X533858Y734488D02*
Y735276D01*
X534646Y734488D02*
Y735276D01*
X535232Y737835D02*
Y737047D01*
X530705*
Y737835*
X535232*
X530705Y737402D02*
X535232D01*
X530709Y737047D02*
Y737835D01*
X531496Y737047D02*
Y737835D01*
X532283Y737047D02*
Y737835D01*
X533071Y737047D02*
Y737835D01*
X533858Y737047D02*
Y737835D01*
X534646Y737047D02*
Y737835D01*
X535232Y740394D02*
Y739606D01*
X530705*
Y740394*
X535232*
X530705Y739764D02*
X535232D01*
X530709Y739606D02*
Y740394D01*
X531496Y739606D02*
Y740394D01*
X532283Y739606D02*
Y740394D01*
X533071Y739606D02*
Y740394D01*
X533858Y739606D02*
Y740394D01*
X534646Y739606D02*
Y740394D01*
X535232Y742953D02*
Y742165D01*
X530705*
Y742953*
X535232*
X530705Y742913D02*
X535232D01*
X530709Y742165D02*
Y742953D01*
X531496Y742165D02*
Y742953D01*
X532283Y742165D02*
Y742953D01*
X533071Y742165D02*
Y742953D01*
X533858Y742165D02*
Y742953D01*
X534646Y742165D02*
Y742953D01*
X535232Y745512D02*
Y744724D01*
X530705*
Y745512*
X535232*
X530705Y745276D02*
X535232D01*
X530709Y744724D02*
Y745512D01*
X531496Y744724D02*
Y745512D01*
X532283Y744724D02*
Y745512D01*
X533071Y744724D02*
Y745512D01*
X533858Y744724D02*
Y745512D01*
X534646Y744724D02*
Y745512D01*
G54D32*
X302783Y633217D03*
X304752D03*
X308689D03*
X310657D03*
X314594D03*
X316563D03*
X320500D03*
X322469D03*
X326406D03*
X328374D03*
X332311D03*
X334280D03*
X336248D03*
X338217D03*
X302783Y631248D03*
X304752D03*
X306720D03*
X308689D03*
X310657D03*
X312626D03*
X314594D03*
X316563D03*
X318531D03*
X320500D03*
X322469D03*
X324437D03*
X326406D03*
X328374D03*
X330343D03*
X332311D03*
X334280D03*
X336248D03*
X338217D03*
X302783Y629280D03*
X304752D03*
X310657D03*
X312626D03*
X316563D03*
X320500D03*
X324437D03*
X328374D03*
X330343D03*
X336248D03*
X302783Y627311D03*
X304752D03*
X312626D03*
X314594D03*
X316563D03*
X324437D03*
X326406D03*
X328374D03*
X336248D03*
X338217D03*
X304752Y625343D03*
X306720D03*
X314594D03*
X320500D03*
X326406D03*
X334280D03*
X336248D03*
X338217D03*
X302783Y623374D03*
X304752D03*
X306720D03*
X308689D03*
X320500D03*
X332311D03*
X334280D03*
X336248D03*
X302783Y621406D03*
X304752D03*
X308689D03*
X310657D03*
X318531Y619437D03*
X320500Y621406D03*
X322469Y619437D03*
X324437D03*
X330343Y621406D03*
X332311D03*
X336248D03*
X338217D03*
X304752Y619437D03*
X306720D03*
X308689D03*
X316563Y617469D03*
X318531D03*
X320500Y619437D03*
X322469Y617469D03*
X324437D03*
X332311Y619437D03*
X334280D03*
X336248D03*
X338217D03*
X302783Y617469D03*
X304752D03*
X320500D03*
X336248D03*
X302783Y615500D03*
X304752D03*
X306720D03*
X310657D03*
X312626D03*
X314594D03*
X316563D03*
X318531D03*
X320500D03*
X322469D03*
X324437D03*
X326406D03*
X328374D03*
X330343D03*
X334280D03*
X336248D03*
X338217D03*
X304752Y613531D03*
X320500D03*
X336248D03*
X338217D03*
X302783Y611563D03*
X304752D03*
X306720D03*
X308689D03*
X316563Y613531D03*
X318531D03*
X320500Y611563D03*
X322469Y613531D03*
X324437D03*
X332311Y611563D03*
X334280D03*
X336248D03*
X302783Y609594D03*
X304752D03*
X308689D03*
X310657D03*
X316563Y611563D03*
X318531D03*
X320500Y609594D03*
X322469Y611563D03*
X324437D03*
X330343Y609594D03*
X332311D03*
X336248D03*
X338217D03*
X304752Y607626D03*
X306720D03*
X308689D03*
X320500D03*
X332311D03*
X334280D03*
X336248D03*
X338217D03*
X302783Y605657D03*
X304752D03*
X306720D03*
X314594D03*
X320500D03*
X326406D03*
X334280D03*
X336248D03*
X302783Y603689D03*
X304752D03*
X312626D03*
X314594D03*
X316563D03*
X324437D03*
X326406D03*
X328374D03*
X336248D03*
X338217D03*
X304752Y601720D03*
X310657D03*
X312626D03*
X316563D03*
X320500D03*
X324437D03*
X328374D03*
X330343D03*
X336248D03*
X338217D03*
X302783Y599752D03*
X304752D03*
X306720D03*
X308689D03*
X310657D03*
X312626D03*
X314594D03*
X316563D03*
X318531D03*
X320500D03*
X322469D03*
X324437D03*
X326406D03*
X328374D03*
X330343D03*
X332311D03*
X334280D03*
X336248D03*
X338217D03*
X302783Y597783D03*
X304752D03*
X306720D03*
X308689D03*
X312626D03*
X314594D03*
X318531D03*
X320500D03*
X324437D03*
X326406D03*
X330343D03*
X332311D03*
X336248D03*
X338217D03*
G54D36*
G54D47*
X307900Y75950D02*
Y130450D01*
X457900Y75950D02*
Y130450D01*
X507900Y75950D02*
Y130450D01*
X557900Y75950D02*
Y130450D01*
X607900Y75950D02*
Y130450D01*
X245400Y75450D02*
Y100450D01*
X115400D02*
X307900D01*
X115400Y75450D02*
X657900D01*
Y130450D02*
X115400D01*
Y60450*
X657900*
Y130450*
G54D174*
X341350Y574546D03*
Y567854D03*
X536500Y251346D03*
Y244654D03*
X544500Y191346D03*
Y184654D03*
X535000Y588846D03*
Y582154D03*
X169200Y690046D03*
Y683354D03*
X476500Y650346D03*
Y643654D03*
X303000Y728654D03*
Y735346D03*
X310000Y751654D03*
Y758346D03*
X523500Y300654D03*
Y307346D03*
X292000Y699346D03*
Y692654D03*
X317000Y728654D03*
Y735346D03*
X511500Y260346D03*
Y253654D03*
X278000Y522654D03*
Y529346D03*
X120000Y632654D03*
Y639346D03*
X463000Y676654D03*
Y683346D03*
X460000Y649846D03*
Y643154D03*
X468500Y682846D03*
Y676154D03*
X465500Y649846D03*
Y643154D03*
X470500D03*
Y649846D03*
X474000Y676154D03*
Y682846D03*
X453300Y777854D03*
Y784546D03*
X309000Y735346D03*
Y728654D03*
X315500Y758346D03*
Y751654D03*
X540500Y582154D03*
Y588846D03*
X157500Y628846D03*
Y622154D03*
G54D178*
X543500Y755748D03*
Y735472D03*
Y744528D03*
G54D179*
X487054Y506800D03*
X493746D03*
X484654Y644000D03*
X491346D03*
X316254Y558800D03*
X322946D03*
X456346Y750000D03*
X449654D03*
X487054Y518400D03*
X493746D03*
X197654Y711000D03*
X204346D03*
X306654Y771000D03*
X313346D03*
X477854Y689900D03*
X484546D03*
X339746Y557000D03*
X333054D03*
X344946Y550450D03*
X338254D03*
X139846Y250500D03*
X133154D03*
X157346Y175000D03*
X150654D03*
X321704Y566050D03*
X328396D03*
X487054Y490000D03*
X493746D03*
X204346Y761000D03*
X197654D03*
X313346Y776000D03*
X306654D03*
X295654Y785000D03*
X302346D03*
X140446Y613200D03*
X133754D03*
X133654Y619000D03*
X140346D03*
X138346Y644500D03*
X131654D03*
X517346Y290500D03*
X510654D03*
X531846Y763500D03*
X525154D03*
X531846Y717100D03*
X525154D03*
X118346Y622500D03*
X111654D03*
G54D180*
X477043Y490000D03*
X469957D03*
X456543Y758000D03*
X449457D03*
X477043Y518400D03*
X469957D03*
X477043Y506800D03*
X469957D03*
G54D197*
X377618Y630443D02*
X383130D01*
Y623357*
X377618*
Y630443*
Y624803D02*
X383130D01*
X377618Y627165D02*
X383130D01*
X377618Y629528D02*
X383130D01*
X378740Y623357D02*
Y630443D01*
X381102Y623357D02*
Y630443D01*
X361870D02*
X367382D01*
Y623357*
X361870*
Y630443*
Y624803D02*
X367382D01*
X361870Y627165D02*
X367382D01*
X361870Y629528D02*
X367382D01*
X362205Y623357D02*
Y630443D01*
X364567Y623357D02*
Y630443D01*
X366929Y623357D02*
Y630443D01*
X503457Y712118D02*
Y717630D01*
X510543*
Y712118*
X503457*
Y712205D02*
X510543D01*
X503457Y714567D02*
X510543D01*
X503457Y716929D02*
X510543D01*
X503937Y712118D02*
Y717630D01*
X506299Y712118D02*
Y717630D01*
X508661Y712118D02*
Y717630D01*
X503457Y696370D02*
Y701882D01*
X510543*
Y696370*
X503457*
Y698031D02*
X510543D01*
X503457Y700394D02*
X510543D01*
X503937Y696370D02*
Y701882D01*
X506299Y696370D02*
Y701882D01*
X508661Y696370D02*
Y701882D01*
X546059Y600614D02*
Y595890D01*
X540941*
Y600614*
X546059*
X540941Y596457D02*
X546059D01*
X540941Y598819D02*
X546059D01*
X541732Y595890D02*
Y600614D01*
X544094Y595890D02*
Y600614D01*
X546059Y632110D02*
Y627386D01*
X540941*
Y632110*
X546059*
X540941Y629528D02*
X546059D01*
X540941Y631890D02*
X546059D01*
X541732Y627386D02*
Y632110D01*
X544094Y627386D02*
Y632110D01*
X546059Y611835D02*
Y607110D01*
X540941*
Y611835*
X546059*
X540941Y608268D02*
X546059D01*
X540941Y610630D02*
X546059D01*
X541732Y607110D02*
Y611835D01*
X544094Y607110D02*
Y611835D01*
X546059Y620890D02*
Y616165D01*
X540941*
Y620890*
X546059*
X540941Y617717D02*
X546059D01*
X540941Y620079D02*
X546059D01*
X541732Y616165D02*
Y620890D01*
X544094Y616165D02*
Y620890D01*
X531492Y730748D02*
X535429D01*
Y724843*
X531492*
Y730748*
Y726378D02*
X535429D01*
X531492Y728740D02*
X535429D01*
X532283Y724843D02*
Y730748D01*
X534646Y724843D02*
Y730748D01*
X531492Y755157D02*
X535429D01*
Y749252*
X531492*
Y755157*
Y750000D02*
X535429D01*
X531492Y752362D02*
X535429D01*
X531492Y754724D02*
X535429D01*
X532283Y749252D02*
Y755157D01*
X534646Y749252D02*
Y755157D01*
G54D243*
X534800Y289233D02*
Y292267D01*
X534883Y292350*
X537917*
X538000Y292267*
Y289233*
X537917Y289150*
X534883*
X534800Y289233*
X534833Y289200D02*
X537967D01*
X534800Y289600D02*
X538000D01*
X534800Y290000D02*
X538000D01*
X534800Y290400D02*
X538000D01*
X534800Y290800D02*
X538000D01*
X534800Y291200D02*
X538000D01*
X534800Y291600D02*
X538000D01*
X534800Y292000D02*
X538000D01*
X534800Y289233D02*
Y292267D01*
X535200Y289150D02*
Y292350D01*
X535600Y289150D02*
Y292350D01*
X536000Y289150D02*
Y292350D01*
X536400Y289150D02*
Y292350D01*
X536800Y289150D02*
Y292350D01*
X537200Y289150D02*
Y292350D01*
X537600Y289150D02*
Y292350D01*
X538000Y289233D02*
Y292267D01*
X534800Y296733D02*
Y299767D01*
X534883Y299850*
X537917*
X538000Y299767*
Y296733*
X537917Y296650*
X534883*
X534800Y296733*
Y296800D02*
X538000D01*
X534800Y297200D02*
X538000D01*
X534800Y297600D02*
X538000D01*
X534800Y298000D02*
X538000D01*
X534800Y298400D02*
X538000D01*
X534800Y298800D02*
X538000D01*
X534800Y299200D02*
X538000D01*
X534800Y299600D02*
X538000D01*
X534800Y296733D02*
Y299767D01*
X535200Y296650D02*
Y299850D01*
X535600Y296650D02*
Y299850D01*
X536000Y296650D02*
Y299850D01*
X536400Y296650D02*
Y299850D01*
X536800Y296650D02*
Y299850D01*
X537200Y296650D02*
Y299850D01*
X537600Y296650D02*
Y299850D01*
X538000Y296733D02*
Y299767D01*
X530700Y296017D02*
Y292983D01*
X530617Y292900*
X526183*
X526100Y292983*
Y296017*
X526183Y296100*
X530617*
X530700Y296017*
X526100Y293200D02*
X530700D01*
X526100Y293600D02*
X530700D01*
X526100Y294000D02*
X530700D01*
X526100Y294400D02*
X530700D01*
X526100Y294800D02*
X530700D01*
X526100Y295200D02*
X530700D01*
X526100Y295600D02*
X530700D01*
X526100Y296000D02*
X530700D01*
X526400Y292900D02*
Y296100D01*
X526800Y292900D02*
Y296100D01*
X527200Y292900D02*
Y296100D01*
X527600Y292900D02*
Y296100D01*
X528000Y292900D02*
Y296100D01*
X528400Y292900D02*
Y296100D01*
X528800Y292900D02*
Y296100D01*
X529200Y292900D02*
Y296100D01*
X529600Y292900D02*
Y296100D01*
X530000Y292900D02*
Y296100D01*
X530400Y292900D02*
Y296100D01*
G54D261*
X533004Y263996D02*
X527996D01*
Y258004*
X533004*
Y263996*
X528025Y258004D02*
Y263996D01*
X528080Y258004D02*
Y263996D01*
X528135Y258004D02*
Y263996D01*
X528190Y258004D02*
Y263996D01*
X528245Y258004D02*
Y263996D01*
X528300Y258004D02*
Y263996D01*
X528355Y258004D02*
Y263996D01*
X528410Y258004D02*
Y263996D01*
X528465Y258004D02*
Y263996D01*
X528520Y258004D02*
Y263996D01*
X528575Y258004D02*
Y263996D01*
X528630Y258004D02*
Y263996D01*
X528685Y258004D02*
Y263996D01*
X528740Y258004D02*
Y263996D01*
X528795Y258004D02*
Y263996D01*
X528850Y258004D02*
Y263996D01*
X528905Y258004D02*
Y263996D01*
X528960Y258004D02*
Y263996D01*
X529015Y258004D02*
Y263996D01*
X529070Y258004D02*
Y263996D01*
X529125Y258004D02*
Y263996D01*
X529180Y258004D02*
Y263996D01*
X529235Y258004D02*
Y263996D01*
X529290Y258004D02*
Y263996D01*
X529345Y258004D02*
Y263996D01*
X529400Y258004D02*
Y263996D01*
X529455Y258004D02*
Y263996D01*
X529510Y258004D02*
Y263996D01*
X529565Y258004D02*
Y263996D01*
X529620Y258004D02*
Y263996D01*
X529675Y258004D02*
Y263996D01*
X529730Y258004D02*
Y263996D01*
X529785Y258004D02*
Y263996D01*
X529840Y258004D02*
Y263996D01*
X529895Y258004D02*
Y263996D01*
X529950Y258004D02*
Y263996D01*
X530005Y258004D02*
Y263996D01*
X530060Y258004D02*
Y263996D01*
X530115Y258004D02*
Y263996D01*
X530170Y258004D02*
Y263996D01*
X530225Y258004D02*
Y263996D01*
X530280Y258004D02*
Y263996D01*
X530335Y258004D02*
Y263996D01*
X530390Y258004D02*
Y263996D01*
X530445Y258004D02*
Y263996D01*
X530500Y258004D02*
Y263996D01*
X530555Y258004D02*
Y263996D01*
X530610Y258004D02*
Y263996D01*
X530665Y258004D02*
Y263996D01*
X530720Y258004D02*
Y263996D01*
X530775Y258004D02*
Y263996D01*
X530830Y258004D02*
Y263996D01*
X530885Y258004D02*
Y263996D01*
X530940Y258004D02*
Y263996D01*
X530995Y258004D02*
Y263996D01*
X531050Y258004D02*
Y263996D01*
X531105Y258004D02*
Y263996D01*
X531160Y258004D02*
Y263996D01*
X531215Y258004D02*
Y263996D01*
X531270Y258004D02*
Y263996D01*
X531325Y258004D02*
Y263996D01*
X531380Y258004D02*
Y263996D01*
X531435Y258004D02*
Y263996D01*
X531490Y258004D02*
Y263996D01*
X531545Y258004D02*
Y263996D01*
X531600Y258004D02*
Y263996D01*
X531655Y258004D02*
Y263996D01*
X531710Y258004D02*
Y263996D01*
X531765Y258004D02*
Y263996D01*
X531820Y258004D02*
Y263996D01*
X531875Y258004D02*
Y263996D01*
X531930Y258004D02*
Y263996D01*
X531985Y258004D02*
Y263996D01*
X532040Y258004D02*
Y263996D01*
X532095Y258004D02*
Y263996D01*
X532150Y258004D02*
Y263996D01*
X532205Y258004D02*
Y263996D01*
X532260Y258004D02*
Y263996D01*
X532315Y258004D02*
Y263996D01*
X532370Y258004D02*
Y263996D01*
X532425Y258004D02*
Y263996D01*
X532480Y258004D02*
Y263996D01*
X532535Y258004D02*
Y263996D01*
X532590Y258004D02*
Y263996D01*
X532645Y258004D02*
Y263996D01*
X532700Y258004D02*
Y263996D01*
X532755Y258004D02*
Y263996D01*
X532810Y258004D02*
Y263996D01*
X532865Y258004D02*
Y263996D01*
X532920Y258004D02*
Y263996D01*
X532975Y258004D02*
Y263996D01*
X529618Y268327D02*
X528823D01*
Y264894*
X529618*
Y268327*
X528850Y264894D02*
Y268327D01*
X528905Y264894D02*
Y268327D01*
X528960Y264894D02*
Y268327D01*
X529015Y264894D02*
Y268327D01*
X529070Y264894D02*
Y268327D01*
X529125Y264894D02*
Y268327D01*
X529180Y264894D02*
Y268327D01*
X529235Y264894D02*
Y268327D01*
X529290Y264894D02*
Y268327D01*
X529345Y264894D02*
Y268327D01*
X529400Y264894D02*
Y268327D01*
X529455Y264894D02*
Y268327D01*
X529510Y264894D02*
Y268327D01*
X529565Y264894D02*
Y268327D01*
X532177D02*
X531382D01*
Y264894*
X532177*
Y268327*
X531435Y264894D02*
Y268327D01*
X531490Y264894D02*
Y268327D01*
X531545Y264894D02*
Y268327D01*
X531600Y264894D02*
Y268327D01*
X531655Y264894D02*
Y268327D01*
X531710Y264894D02*
Y268327D01*
X531765Y264894D02*
Y268327D01*
X531820Y264894D02*
Y268327D01*
X531875Y264894D02*
Y268327D01*
X531930Y264894D02*
Y268327D01*
X531985Y264894D02*
Y268327D01*
X532040Y264894D02*
Y268327D01*
X532095Y264894D02*
Y268327D01*
X532150Y264894D02*
Y268327D01*
X529618Y257106D02*
X528823D01*
Y253673*
X529618*
Y257106*
X528850Y253673D02*
Y257106D01*
X528905Y253673D02*
Y257106D01*
X528960Y253673D02*
Y257106D01*
X529015Y253673D02*
Y257106D01*
X529070Y253673D02*
Y257106D01*
X529125Y253673D02*
Y257106D01*
X529180Y253673D02*
Y257106D01*
X529235Y253673D02*
Y257106D01*
X529290Y253673D02*
Y257106D01*
X529345Y253673D02*
Y257106D01*
X529400Y253673D02*
Y257106D01*
X529455Y253673D02*
Y257106D01*
X529510Y253673D02*
Y257106D01*
X529565Y253673D02*
Y257106D01*
X532177D02*
X531382D01*
Y253673*
X532177*
Y257106*
X531435Y253673D02*
Y257106D01*
X531490Y253673D02*
Y257106D01*
X531545Y253673D02*
Y257106D01*
X531600Y253673D02*
Y257106D01*
X531655Y253673D02*
Y257106D01*
X531710Y253673D02*
Y257106D01*
X531765Y253673D02*
Y257106D01*
X531820Y253673D02*
Y257106D01*
X531875Y253673D02*
Y257106D01*
X531930Y253673D02*
Y257106D01*
X531985Y253673D02*
Y257106D01*
X532040Y253673D02*
Y257106D01*
X532095Y253673D02*
Y257106D01*
X532150Y253673D02*
Y257106D01*
G54D288*
X511100Y613572D03*
Y610028D03*
X515300Y616528D03*
Y620072D03*
X515800Y610022D03*
Y606478D03*
X290800Y630228D03*
Y633772D03*
X498000Y699772D03*
Y696228D03*
X494000Y740728D03*
Y744272D03*
X170500Y167728D03*
Y171272D03*
X183000Y168228D03*
Y171772D03*
X125000Y362728D03*
Y366272D03*
X107500Y363228D03*
Y366772D03*
X493000Y690978D03*
Y694522D03*
X430700Y751772D03*
Y748228D03*
X387000Y625728D03*
Y629272D03*
X517500Y300728D03*
Y304272D03*
X511000Y649228D03*
Y652772D03*
X516000Y733228D03*
Y736772D03*
X515500Y743772D03*
Y740228D03*
X404800Y589622D03*
Y586078D03*
X255500Y550272D03*
Y546728D03*
G54D289*
X440772Y727500D03*
X437228D03*
X507228Y722000D03*
X510772D03*
X284172Y624800D03*
X280628D03*
X440772Y732000D03*
X437228D03*
X471972Y747700D03*
X468428D03*
X471772Y690000D03*
X468228D03*
X333372Y760800D03*
X329828D03*
X157228Y155000D03*
X160772D03*
X476228Y754500D03*
X479772D03*
X471228Y764000D03*
X474772D03*
X441728Y742000D03*
X445272D03*
X508878Y730550D03*
X512422D03*
X512472Y727000D03*
X508928D03*
X462272Y689500D03*
X458728D03*
X352072Y627100D03*
X348528D03*
X356278Y563550D03*
X359822D03*
X522272Y577500D03*
X518728D03*
X230272Y727500D03*
X226728D03*
X189728Y386000D03*
X193272D03*
G54D305*
X107500Y379043D03*
Y371957D03*
X446000Y777657D03*
Y784743D03*
X125000Y379043D03*
Y371957D03*
G54D309*
X139247Y539800D03*
X145153D03*
X188747Y499900D03*
X194653D03*
X346147Y639200D03*
X352053D03*
X168047Y570500D03*
X173953D03*
X122147Y569300D03*
X128053D03*
X304047Y531500D03*
X309953D03*
X221453Y550000D03*
X215547D03*
X221953Y717000D03*
X216047D03*
X522453Y573500D03*
X516547D03*
X180047Y400500D03*
X185953D03*
X130047D03*
X135953D03*
X169453Y190000D03*
X163547D03*
G54D310*
X295000Y591547D03*
Y597453D03*
X352500Y551453D03*
Y545547D03*
X290000Y591547D03*
Y597453D03*
X294000Y520953D03*
Y515047D03*
X399100Y591297D03*
Y597203D03*
X250500Y551453D03*
Y545547D03*
G54D311*
X377500Y773000D03*
Y787000D03*
X382500Y773000D03*
Y787000D03*
X387500Y773000D03*
Y787000D03*
X392500Y773000D03*
Y787000D03*
X397500Y773000D03*
Y787000D03*
X402500Y773000D03*
Y787000D03*
X407500Y773000D03*
Y787000D03*
X412500Y773000D03*
Y787000D03*
X417500Y773000D03*
Y787000D03*
X422500Y773000D03*
Y787000D03*
G54D320*
X346681Y597350D03*
X350619D03*
X346681Y593200D03*
X350619D03*
X374069Y618000D03*
X370131D03*
X356800Y627069D03*
Y623131D03*
G54D336*
X537500Y677750D03*
Y664250D03*
X532500Y677750D03*
Y664250D03*
X527500Y677750D03*
Y664250D03*
X522500Y677750D03*
Y664250D03*
X517500Y677750D03*
Y664250D03*
X512500Y677750D03*
Y664250D03*
X507500Y677750D03*
Y664250D03*
X502500Y677750D03*
Y664250D03*
X497500Y677750D03*
Y664250D03*
X492500Y677750D03*
Y664250D03*
X537500Y557750D03*
Y544250D03*
X532500Y557750D03*
Y544250D03*
X527500Y557750D03*
Y544250D03*
X522500Y557750D03*
Y544250D03*
X517500Y557750D03*
Y544250D03*
X512500Y557750D03*
Y544250D03*
X507500Y557750D03*
Y544250D03*
X502500Y557750D03*
Y544250D03*
X497500Y557750D03*
Y544250D03*
X492500Y557750D03*
Y544250D03*
G54D338*
X121000Y700654D03*
Y657346D03*
X144622D03*
Y700654D03*
G54D341*
X448756Y733764D03*
Y731795D03*
Y729827D03*
Y727858D03*
Y725890D03*
Y723921D03*
Y721953D03*
Y719984D03*
Y718016D03*
Y716047D03*
Y714079D03*
Y712110D03*
Y710142D03*
Y708173D03*
Y706205D03*
Y704236D03*
X493244D03*
Y706205D03*
Y708173D03*
Y710142D03*
Y712110D03*
Y714079D03*
Y716047D03*
Y718016D03*
Y719984D03*
Y721953D03*
Y723921D03*
Y725890D03*
Y727858D03*
Y729827D03*
Y731795D03*
Y733764D03*
G54D342*
X456236Y696756D03*
X458205D03*
X460173D03*
X462142D03*
X464110D03*
X466079D03*
X468047D03*
X470016D03*
X471984D03*
X473953D03*
X475921D03*
X477890D03*
X479858D03*
X481827D03*
X483795D03*
X485764D03*
Y741244D03*
X483795D03*
X481827D03*
X479858D03*
X477890D03*
X475921D03*
X473953D03*
X471984D03*
X470016D03*
X468047D03*
X466079D03*
X464110D03*
X462142D03*
X460173D03*
X458205D03*
X456236D03*
G54D347*
X120000Y730000D03*
X121575Y734331D03*
X120000Y738661D03*
X119213Y742992D03*
X120000Y747323D03*
X119213Y751654D03*
X120000Y755984D03*
Y760315D03*
G54D348*
X104843Y711496D03*
X108780Y763071D03*
G54D349*
X160354Y734528D03*
Y756969D03*
G54D351*
X192500Y749256D03*
X187500D03*
X182500D03*
Y718744D03*
X187500D03*
X192500D03*
X197500D03*
G54D359*
X515000Y495750D03*
Y514250D03*
G54D360*
X150850Y162969D03*
Y159031D03*
X157150Y161000D03*
X163850Y162969D03*
Y159031D03*
X170150Y161000D03*
X176850Y163969D03*
Y160031D03*
X183150Y162000D03*
X106550Y636269D03*
Y632331D03*
X112850Y634300D03*
G54D361*
X295331Y771000D03*
X286669D03*
G54D362*
X172337Y179663D03*
X175663D03*
Y176337D03*
X172337D03*
G54D365*
X128839Y634339D03*
G54D366*
Y631780D03*
Y629220D03*
Y626661D03*
X146161D03*
Y629220D03*
Y631780D03*
Y634339D03*
G54D371*
X301000Y755000D03*
G54D390*
X464760Y658185D03*
G54D391*
X468500D03*
X472240D03*
Y668815D03*
X468500D03*
X464760D03*
G54D392*
X283685Y536740D03*
G54D393*
Y533000D03*
Y529260D03*
X294315D03*
Y533000D03*
Y536740D03*
G54D394*
X524693Y264839D03*
Y262280D03*
Y259720D03*
Y257161D03*
X536307D03*
Y259720D03*
Y262280D03*
Y264839D03*
G54D395*
X522510Y278700D03*
X536290D03*
G54D396*
X539786Y385326D03*
Y401074D03*
X513014Y385326D03*
Y401074D03*
Y177074D03*
Y161326D03*
X539786Y177074D03*
Y161326D03*
X138386Y226126D03*
Y241874D03*
X111614Y226126D03*
Y241874D03*
Y176374D03*
Y160626D03*
X138386Y176374D03*
Y160626D03*
G54D397*
X531098Y605142D02*
X535823D01*
Y598449*
X531098*
Y605142*
Y598819D02*
X535823D01*
X531098Y600394D02*
X535823D01*
X531098Y601969D02*
X535823D01*
X531098Y603543D02*
X535823D01*
X531098Y605118D02*
X535823D01*
X531496Y598449D02*
Y605142D01*
X533071Y598449D02*
Y605142D01*
X534646Y598449D02*
Y605142D01*
X531098Y629551D02*
X535823D01*
Y622858*
X531098*
Y629551*
Y624016D02*
X535823D01*
X531098Y625591D02*
X535823D01*
X531098Y627165D02*
X535823D01*
X531098Y628740D02*
X535823D01*
X531496Y622858D02*
Y629551D01*
X533071Y622858D02*
Y629551D01*
X534646Y622858D02*
Y629551D01*
G54D398*
X297060Y751000D03*
X299030D03*
X301000D03*
X302970D03*
X304940D03*
Y759000D03*
X302970D03*
X301000D03*
X299030D03*
X297060D03*
G54D399*
X545665Y726220D02*
Y722283D01*
X541335*
Y726220*
X545665*
X541335Y723228D02*
X545665D01*
X544094Y722283D02*
Y726220D01*
X0Y0D02*
M02*
